<ttFont>
    <TTGlyph name=".notdef" xMin="123" yMin="0" xMax="1028" yMax="1581">
      <contour>
        <pt x="123" y="0" on="1"/>
        <pt x="123" y="1581" on="1"/>
        <pt x="1028" y="1581" on="1"/>
        <pt x="1028" y="0" on="1"/>
      </contour>
      <contour>
        <pt x="197" y="61" on="1"/>
        <pt x="954" y="61" on="1"/>
        <pt x="954" y="1520" on="1"/>
        <pt x="197" y="1520" on="1"/>
      </contour>
    </TTGlyph>
    <TTGlyph name=".ttfautohint" xMin="0" yMin="0" xMax="0" yMax="0">
      <contour>
        <pt x="0" y="0" on="1"/>
      </contour>
    </TTGlyph>
    <TTGlyph name="A" xMin="-14" yMin="0" xMax="1303" yMax="1460">
      <contour>
        <pt x="1211" y="45" on="0"/>
        <pt x="1303" y="41" on="1"/>
        <pt x="1303" y="0" on="1"/>
        <pt x="1219" y="6" on="0"/>
        <pt x="1083" y="6" on="1"/>
        <pt x="908" y="6" on="0"/>
        <pt x="821" y="0" on="1"/>
        <pt x="821" y="41" on="1"/>
        <pt x="899" y="44" on="0"/>
        <pt x="966" y="76" on="0"/>
        <pt x="966" y="117" on="1"/>
        <pt x="966" y="152" on="0"/>
        <pt x="942" y="213" on="1"/>
        <pt x="816" y="549" on="1"/>
        <pt x="322" y="549" on="1"/>
        <pt x="238" y="332" on="1"/>
        <pt x="197" y="228" on="0"/>
        <pt x="197" y="164" on="1"/>
        <pt x="197" y="99" on="0"/>
        <pt x="284" y="43" on="0"/>
        <pt x="375" y="41" on="1"/>
        <pt x="375" y="0" on="1"/>
        <pt x="258" y="6" on="0"/>
        <pt x="139" y="6" on="1"/>
        <pt x="47" y="6" on="0"/>
        <pt x="-14" y="0" on="1"/>
        <pt x="-14" y="41" on="1"/>
        <pt x="88" y="64" on="0"/>
        <pt x="147" y="219" on="1"/>
        <pt x="629" y="1460" on="1"/>
        <pt x="662" y="1460" on="1"/>
        <pt x="1161" y="172" on="1"/>
      </contour>
      <contour>
        <pt x="572" y="1201" on="1"/>
        <pt x="337" y="590" on="1"/>
        <pt x="801" y="590" on="1"/>
      </contour>
    </TTGlyph>
    <TTGlyph name="AE" xMin="-20" yMin="0" xMax="1651" yMax="1581">
      <contour>
        <pt x="1636" y="142" on="0"/>
        <pt x="1651" y="0" on="1"/>
        <pt x="1524" y="6" on="0"/>
        <pt x="1223" y="6" on="1"/>
        <pt x="901" y="6" on="0"/>
        <pt x="731" y="0" on="1"/>
        <pt x="731" y="41" on="1"/>
        <pt x="788" y="44" on="0"/>
        <pt x="838" y="70" on="0"/>
        <pt x="856" y="140" on="0"/>
        <pt x="856" y="217" on="1"/>
        <pt x="856" y="709" on="1"/>
        <pt x="498" y="709" on="1"/>
        <pt x="199" y="213" on="1"/>
        <pt x="161" y="149" on="0"/>
        <pt x="161" y="113" on="1"/>
        <pt x="161" y="77" on="0"/>
        <pt x="231" y="44" on="0"/>
        <pt x="303" y="41" on="1"/>
        <pt x="303" y="0" on="1"/>
        <pt x="241" y="6" on="0"/>
        <pt x="117" y="6" on="1"/>
        <pt x="31" y="6" on="0"/>
        <pt x="-20" y="0" on="1"/>
        <pt x="-20" y="41" on="1"/>
        <pt x="13" y="43" on="0"/>
        <pt x="79" y="102" on="0"/>
        <pt x="121" y="172" on="1"/>
        <pt x="839" y="1356" on="1"/>
        <pt x="824" y="1385" on="0"/>
        <pt x="758" y="1406" on="0"/>
        <pt x="690" y="1409" on="1"/>
        <pt x="690" y="1450" on="1"/>
        <pt x="751" y="1448" on="0"/>
        <pt x="893" y="1446" on="1"/>
        <pt x="975" y="1581" on="1"/>
        <pt x="1024" y="1581" on="1"/>
        <pt x="942" y="1445" on="1"/>
        <pt x="1025" y="1444" on="0"/>
        <pt x="1168" y="1444" on="0"/>
        <pt x="1223" y="1444" on="1"/>
        <pt x="1495" y="1444" on="0"/>
        <pt x="1610" y="1450" on="1"/>
        <pt x="1595" y="1319" on="0"/>
        <pt x="1595" y="1208" on="1"/>
        <pt x="1595" y="1124" on="0"/>
        <pt x="1602" y="1081" on="1"/>
        <pt x="1554" y="1081" on="1"/>
        <pt x="1543" y="1213" on="0"/>
        <pt x="1508" y="1344" on="0"/>
        <pt x="1425" y="1403" on="0"/>
        <pt x="1341" y="1403" on="1"/>
        <pt x="1212" y="1403" on="1"/>
        <pt x="1138" y="1403" on="0"/>
        <pt x="1072" y="1379" on="0"/>
        <pt x="1047" y="1310" on="0"/>
        <pt x="1047" y="1233" on="1"/>
        <pt x="1047" y="750" on="1"/>
        <pt x="1196" y="750" on="1"/>
        <pt x="1253" y="750" on="0"/>
        <pt x="1313" y="807" on="0"/>
        <pt x="1335" y="885" on="0"/>
        <pt x="1341" y="942" on="1"/>
        <pt x="1342" y="951" on="0"/>
        <pt x="1344" y="969" on="0"/>
        <pt x="1346" y="979" on="1"/>
        <pt x="1393" y="979" on="1"/>
        <pt x="1385" y="875" on="0"/>
        <pt x="1385" y="808" on="1"/>
        <pt x="1386" y="729" on="1"/>
        <pt x="1386" y="655" on="0"/>
        <pt x="1399" y="479" on="1"/>
        <pt x="1352" y="479" on="1"/>
        <pt x="1349" y="503" on="1"/>
        <pt x="1342" y="572" on="0"/>
        <pt x="1320" y="653" on="0"/>
        <pt x="1257" y="709" on="0"/>
        <pt x="1196" y="709" on="1"/>
        <pt x="1047" y="709" on="1"/>
        <pt x="1047" y="217" on="1"/>
        <pt x="1047" y="140" on="0"/>
        <pt x="1072" y="71" on="0"/>
        <pt x="1138" y="47" on="0"/>
        <pt x="1212" y="47" on="1"/>
        <pt x="1362" y="47" on="1"/>
        <pt x="1461" y="47" on="0"/>
        <pt x="1551" y="113" on="0"/>
        <pt x="1582" y="251" on="0"/>
        <pt x="1595" y="410" on="1"/>
        <pt x="1642" y="410" on="1"/>
        <pt x="1636" y="355" on="0"/>
        <pt x="1636" y="262" on="1"/>
      </contour>
      <contour>
        <pt x="856" y="1233" on="1"/>
        <pt x="856" y="1271" on="0"/>
        <pt x="853" y="1298" on="1"/>
        <pt x="523" y="750" on="1"/>
        <pt x="856" y="750" on="1"/>
      </contour>
    </TTGlyph>
    <TTGlyph name="Aacute" xMin="-14" yMin="0" xMax="1303" yMax="1916">
      <component glyphName=".ttfautohint" x="0" y="0" flags="0x0"/>
      <component glyphName="A" x="0" y="0" flags="0x0"/>
      <component glyphName="acute.case" x="467" y="0" flags="0x0"/>
    </TTGlyph>
    <TTGlyph name="Abreve" xMin="-14" yMin="0" xMax="1303" yMax="1862">
      <component glyphName=".ttfautohint" x="0" y="0" flags="0x0"/>
      <component glyphName="A" x="0" y="0" flags="0x0"/>
      <component glyphName="breve.case" x="174" y="0" flags="0x0"/>
    </TTGlyph>
    <TTGlyph name="Acircumflex" xMin="-14" yMin="0" xMax="1303" yMax="1876">
      <component glyphName=".ttfautohint" x="0" y="0" flags="0x0"/>
      <component glyphName="A" x="0" y="0" flags="0x0"/>
      <component glyphName="circumflex.case" x="201" y="0" flags="0x0"/>
    </TTGlyph>
    <TTGlyph name="Adieresis" xMin="-14" yMin="0" xMax="1303" yMax="1819">
      <component glyphName=".ttfautohint" x="0" y="0" flags="0x0"/>
      <component glyphName="A" x="0" y="0" flags="0x0"/>
      <component glyphName="dieresis.case" x="246" y="0" flags="0x0"/>
    </TTGlyph>
    <TTGlyph name="Agrave" xMin="-14" yMin="0" xMax="1303" yMax="1916">
      <component glyphName=".ttfautohint" x="0" y="0" flags="0x0"/>
      <component glyphName="A" x="0" y="0" flags="0x0"/>
      <component glyphName="grave.case" x="248" y="0" flags="0x0"/>
    </TTGlyph>
    <TTGlyph name="Amacron" xMin="-14" yMin="0" xMax="1303" yMax="1729">
      <component glyphName=".ttfautohint" x="0" y="0" flags="0x0"/>
      <component glyphName="A" x="0" y="0" flags="0x0"/>
      <component glyphName="macron.case" x="221" y="0" flags="0x0"/>
    </TTGlyph>
    <TTGlyph name="Aogonek" xMin="-14" yMin="-385" xMax="1310" yMax="1460">
      <contour>
        <pt x="1219" y="-385" on="0"/>
        <pt x="1079" y="-385" on="1"/>
        <pt x="1006" y="-385" on="0"/>
        <pt x="917" y="-312" on="0"/>
        <pt x="917" y="-252" on="1"/>
        <pt x="917" y="-173" on="0"/>
        <pt x="1062" y="-39" on="0"/>
        <pt x="1196" y="5" on="1"/>
        <pt x="1159" y="6" on="0"/>
        <pt x="1083" y="6" on="1"/>
        <pt x="908" y="6" on="0"/>
        <pt x="821" y="0" on="1"/>
        <pt x="821" y="41" on="1"/>
        <pt x="899" y="44" on="0"/>
        <pt x="966" y="76" on="0"/>
        <pt x="966" y="117" on="1"/>
        <pt x="966" y="151" on="0"/>
        <pt x="942" y="213" on="1"/>
        <pt x="816" y="549" on="1"/>
        <pt x="322" y="549" on="1"/>
        <pt x="238" y="332" on="1"/>
        <pt x="197" y="228" on="0"/>
        <pt x="197" y="164" on="1"/>
        <pt x="197" y="99" on="0"/>
        <pt x="284" y="43" on="0"/>
        <pt x="375" y="41" on="1"/>
        <pt x="375" y="0" on="1"/>
        <pt x="258" y="6" on="0"/>
        <pt x="139" y="6" on="1"/>
        <pt x="48" y="6" on="0"/>
        <pt x="-14" y="0" on="1"/>
        <pt x="-14" y="41" on="1"/>
        <pt x="88" y="64" on="0"/>
        <pt x="147" y="219" on="1"/>
        <pt x="629" y="1460" on="1"/>
        <pt x="662" y="1460" on="1"/>
        <pt x="1161" y="172" on="1"/>
        <pt x="1211" y="45" on="0"/>
        <pt x="1303" y="41" on="1"/>
        <pt x="1303" y="0" on="1"/>
        <pt x="1265" y="2" on="1"/>
        <pt x="1160" y="-28" on="0"/>
        <pt x="1067" y="-138" on="0"/>
        <pt x="1067" y="-197" on="1"/>
        <pt x="1067" y="-238" on="0"/>
        <pt x="1114" y="-287" on="0"/>
        <pt x="1155" y="-287" on="1"/>
        <pt x="1192" y="-287" on="0"/>
        <pt x="1259" y="-248" on="0"/>
        <pt x="1280" y="-219" on="1"/>
        <pt x="1310" y="-246" on="1"/>
      </contour>
      <contour>
        <pt x="572" y="1201" on="1"/>
        <pt x="337" y="590" on="1"/>
        <pt x="801" y="590" on="1"/>
      </contour>
    </TTGlyph>
    <TTGlyph name="Aring" xMin="-14" yMin="0" xMax="1303" yMax="1894">
      <component glyphName=".ttfautohint" x="0" y="0" flags="0x0"/>
      <component glyphName="A" x="0" y="0" flags="0x0"/>
      <component glyphName="ring.case" x="365" y="0" flags="0x0"/>
    </TTGlyph>
    <TTGlyph name="Atilde" xMin="-14" yMin="0" xMax="1303" yMax="1847">
      <component glyphName=".ttfautohint" x="0" y="0" flags="0x0"/>
      <component glyphName="A" x="0" y="0" flags="0x0"/>
      <component glyphName="tilde.case" x="148" y="0" flags="0x0"/>
    </TTGlyph>
    <TTGlyph name="B" xMin="86" yMin="0" xMax="1184" yMax="1450">
      <contour>
        <pt x="992" y="736" on="0"/>
        <pt x="1184" y="537" on="0"/>
        <pt x="1184" y="397" on="1"/>
        <pt x="1184" y="281" on="0"/>
        <pt x="1065" y="101" on="0"/>
        <pt x="843" y="0" on="0"/>
        <pt x="692" y="0" on="1"/>
        <pt x="598" y="2" on="1"/>
        <pt x="466" y="6" on="0"/>
        <pt x="340" y="6" on="1"/>
        <pt x="172" y="6" on="0"/>
        <pt x="86" y="0" on="1"/>
        <pt x="86" y="41" on="1"/>
        <pt x="160" y="44" on="0"/>
        <pt x="227" y="70" on="0"/>
        <pt x="252" y="140" on="0"/>
        <pt x="252" y="217" on="1"/>
        <pt x="252" y="1233" on="1"/>
        <pt x="252" y="1310" on="0"/>
        <pt x="227" y="1380" on="0"/>
        <pt x="160" y="1406" on="0"/>
        <pt x="86" y="1409" on="1"/>
        <pt x="86" y="1450" on="1"/>
        <pt x="171" y="1444" on="0"/>
        <pt x="336" y="1444" on="1"/>
        <pt x="372" y="1444" on="0"/>
        <pt x="558" y="1447" on="1"/>
        <pt x="645" y="1448" on="1"/>
        <pt x="785" y="1448" on="0"/>
        <pt x="979" y="1367" on="0"/>
        <pt x="1077" y="1222" on="0"/>
        <pt x="1077" y="1126" on="1"/>
        <pt x="1077" y="1008" on="0"/>
        <pt x="928" y="820" on="0"/>
        <pt x="766" y="770" on="1"/>
        <pt x="766" y="766" on="1"/>
      </contour>
      <contour>
        <pt x="530" y="1409" on="0"/>
        <pt x="466" y="1380" on="0"/>
        <pt x="442" y="1306" on="0"/>
        <pt x="442" y="1233" on="1"/>
        <pt x="442" y="770" on="1"/>
        <pt x="580" y="770" on="1"/>
        <pt x="747" y="770" on="0"/>
        <pt x="881" y="952" on="0"/>
        <pt x="881" y="1104" on="1"/>
        <pt x="881" y="1258" on="0"/>
        <pt x="745" y="1409" on="0"/>
        <pt x="594" y="1409" on="1"/>
      </contour>
      <contour>
        <pt x="979" y="47" on="0"/>
        <pt x="979" y="406" on="1"/>
        <pt x="979" y="567" on="0"/>
        <pt x="804" y="735" on="0"/>
        <pt x="614" y="735" on="1"/>
        <pt x="442" y="735" on="1"/>
        <pt x="442" y="217" on="1"/>
        <pt x="442" y="143" on="0"/>
        <pt x="466" y="73" on="0"/>
        <pt x="530" y="47" on="0"/>
        <pt x="596" y="47" on="1"/>
      </contour>
    </TTGlyph>
    <TTGlyph name="C" xMin="109" yMin="-29" xMax="1276" yMax="1479">
      <contour>
        <pt x="882" y="1479" on="0"/>
        <pt x="1055" y="1409" on="0"/>
        <pt x="1137" y="1346" on="1"/>
        <pt x="1159" y="1328" on="0"/>
        <pt x="1177" y="1328" on="1"/>
        <pt x="1219" y="1328" on="0"/>
        <pt x="1229" y="1450" on="1"/>
        <pt x="1276" y="1450" on="1"/>
        <pt x="1268" y="1317" on="0"/>
        <pt x="1268" y="979" on="1"/>
        <pt x="1221" y="979" on="1"/>
        <pt x="1206" y="1071" on="0"/>
        <pt x="1181" y="1173" on="0"/>
        <pt x="1147" y="1244" on="0"/>
        <pt x="1118" y="1282" on="1"/>
        <pt x="1056" y="1362" on="0"/>
        <pt x="866" y="1442" on="0"/>
        <pt x="756" y="1442" on="1"/>
        <pt x="623" y="1442" on="0"/>
        <pt x="423" y="1266" on="0"/>
        <pt x="313" y="940" on="0"/>
        <pt x="313" y="721" on="1"/>
        <pt x="313" y="498" on="0"/>
        <pt x="433" y="178" on="0"/>
        <pt x="643" y="12" on="0"/>
        <pt x="776" y="12" on="1"/>
        <pt x="878" y="12" on="0"/>
        <pt x="1072" y="90" on="0"/>
        <pt x="1126" y="168" on="1"/>
        <pt x="1168" y="224" on="0"/>
        <pt x="1204" y="355" on="0"/>
        <pt x="1221" y="492" on="1"/>
        <pt x="1268" y="492" on="1"/>
        <pt x="1268" y="139" on="0"/>
        <pt x="1276" y="0" on="1"/>
        <pt x="1229" y="0" on="1"/>
        <pt x="1224" y="64" on="0"/>
        <pt x="1201" y="121" on="0"/>
        <pt x="1179" y="121" on="1"/>
        <pt x="1163" y="121" on="0"/>
        <pt x="1137" y="104" on="1"/>
        <pt x="1076" y="61" on="0"/>
        <pt x="973" y="6" on="0"/>
        <pt x="841" y="-29" on="0"/>
        <pt x="758" y="-29" on="1"/>
        <pt x="563" y="-29" on="0"/>
        <pt x="270" y="147" on="0"/>
        <pt x="109" y="482" on="0"/>
        <pt x="109" y="713" on="1"/>
        <pt x="109" y="939" on="0"/>
        <pt x="275" y="1287" on="0"/>
        <pt x="571" y="1479" on="0"/>
        <pt x="760" y="1479" on="1"/>
      </contour>
    </TTGlyph>
    <TTGlyph name="Cacute" xMin="109" yMin="-29" xMax="1276" yMax="1916">
      <component glyphName=".ttfautohint" x="109" y="0" flags="0x0"/>
      <component glyphName="C" x="0" y="0" flags="0x0"/>
      <component glyphName="acute.case" x="579" y="0" flags="0x0"/>
    </TTGlyph>
    <TTGlyph name="Cacute.loclPLK" xMin="109" yMin="-29" xMax="1276" yMax="1920">
      <component glyphName=".ttfautohint" x="109" y="0" flags="0x0"/>
      <component glyphName="C" x="0" y="0" flags="0x0"/>
      <component glyphName="acute.loclPLK.case" x="636" y="0" flags="0x0"/>
    </TTGlyph>
    <TTGlyph name="Ccaron" xMin="109" yMin="-29" xMax="1276" yMax="1896">
      <component glyphName=".ttfautohint" x="109" y="0" flags="0x0"/>
      <component glyphName="C" x="0" y="0" flags="0x0"/>
      <component glyphName="caron.case" x="307" y="0" flags="0x0"/>
    </TTGlyph>
    <TTGlyph name="Ccedilla" xMin="109" yMin="-385" xMax="1276" yMax="1479">
      <contour>
        <pt x="1268" y="139" on="0"/>
        <pt x="1276" y="0" on="1"/>
        <pt x="1229" y="0" on="1"/>
        <pt x="1224" y="64" on="0"/>
        <pt x="1201" y="121" on="0"/>
        <pt x="1179" y="121" on="1"/>
        <pt x="1163" y="121" on="0"/>
        <pt x="1137" y="104" on="1"/>
        <pt x="1078" y="63" on="0"/>
        <pt x="979" y="8" on="0"/>
        <pt x="854" y="-27" on="0"/>
        <pt x="776" y="-29" on="1"/>
        <pt x="735" y="-147" on="1"/>
        <pt x="796" y="-133" on="0"/>
        <pt x="856" y="-133" on="1"/>
        <pt x="914" y="-133" on="0"/>
        <pt x="981" y="-184" on="0"/>
        <pt x="981" y="-229" on="1"/>
        <pt x="981" y="-283" on="0"/>
        <pt x="910" y="-353" on="0"/>
        <pt x="804" y="-385" on="0"/>
        <pt x="750" y="-385" on="1"/>
        <pt x="645" y="-385" on="0"/>
        <pt x="580" y="-362" on="1"/>
        <pt x="588" y="-326" on="1"/>
        <pt x="630" y="-332" on="0"/>
        <pt x="666" y="-332" on="1"/>
        <pt x="740" y="-332" on="0"/>
        <pt x="850" y="-289" on="0"/>
        <pt x="850" y="-240" on="1"/>
        <pt x="850" y="-182" on="0"/>
        <pt x="764" y="-182" on="1"/>
        <pt x="706" y="-182" on="0"/>
        <pt x="664" y="-197" on="1"/>
        <pt x="720" y="-28" on="1"/>
        <pt x="536" y="-19" on="0"/>
        <pt x="260" y="161" on="0"/>
        <pt x="109" y="489" on="0"/>
        <pt x="109" y="713" on="1"/>
        <pt x="109" y="939" on="0"/>
        <pt x="275" y="1287" on="0"/>
        <pt x="571" y="1479" on="0"/>
        <pt x="760" y="1479" on="1"/>
        <pt x="882" y="1479" on="0"/>
        <pt x="1055" y="1409" on="0"/>
        <pt x="1137" y="1346" on="1"/>
        <pt x="1159" y="1328" on="0"/>
        <pt x="1177" y="1328" on="1"/>
        <pt x="1219" y="1328" on="0"/>
        <pt x="1229" y="1450" on="1"/>
        <pt x="1276" y="1450" on="1"/>
        <pt x="1268" y="1317" on="0"/>
        <pt x="1268" y="979" on="1"/>
        <pt x="1221" y="979" on="1"/>
        <pt x="1206" y="1071" on="0"/>
        <pt x="1181" y="1173" on="0"/>
        <pt x="1147" y="1244" on="0"/>
        <pt x="1118" y="1282" on="1"/>
        <pt x="1056" y="1362" on="0"/>
        <pt x="866" y="1442" on="0"/>
        <pt x="756" y="1442" on="1"/>
        <pt x="623" y="1442" on="0"/>
        <pt x="423" y="1266" on="0"/>
        <pt x="313" y="940" on="0"/>
        <pt x="313" y="721" on="1"/>
        <pt x="313" y="498" on="0"/>
        <pt x="433" y="178" on="0"/>
        <pt x="643" y="12" on="0"/>
        <pt x="776" y="12" on="1"/>
        <pt x="878" y="12" on="0"/>
        <pt x="1072" y="90" on="0"/>
        <pt x="1126" y="168" on="1"/>
        <pt x="1168" y="224" on="0"/>
        <pt x="1204" y="355" on="0"/>
        <pt x="1221" y="492" on="1"/>
        <pt x="1268" y="492" on="1"/>
      </contour>
    </TTGlyph>
    <TTGlyph name="Ccircumflex" xMin="109" yMin="-29" xMax="1276" yMax="1876">
      <component glyphName=".ttfautohint" x="109" y="0" flags="0x0"/>
      <component glyphName="C" x="0" y="0" flags="0x0"/>
      <component glyphName="circumflex.case" x="313" y="0" flags="0x0"/>
    </TTGlyph>
    <TTGlyph name="Cdotaccent" xMin="109" yMin="-29" xMax="1276" yMax="1843">
      <component glyphName=".ttfautohint" x="109" y="0" flags="0x0"/>
      <component glyphName="C" x="0" y="0" flags="0x0"/>
      <component glyphName="dotaccent.case" x="569" y="0" flags="0x0"/>
    </TTGlyph>
    <TTGlyph name="D" xMin="86" yMin="0" xMax="1368" yMax="1450">
      <contour>
        <pt x="1007" y="1450" on="0"/>
        <pt x="1368" y="1088" on="0"/>
        <pt x="1368" y="741" on="1"/>
        <pt x="1368" y="518" on="0"/>
        <pt x="1193" y="183" on="0"/>
        <pt x="859" y="0" on="0"/>
        <pt x="627" y="0" on="1"/>
        <pt x="579" y="0" on="0"/>
        <pt x="507" y="3" on="1"/>
        <pt x="336" y="6" on="0"/>
        <pt x="340" y="6" on="1"/>
        <pt x="172" y="6" on="0"/>
        <pt x="86" y="0" on="1"/>
        <pt x="86" y="41" on="1"/>
        <pt x="160" y="44" on="0"/>
        <pt x="227" y="70" on="0"/>
        <pt x="252" y="140" on="0"/>
        <pt x="252" y="217" on="1"/>
        <pt x="252" y="1233" on="1"/>
        <pt x="252" y="1310" on="0"/>
        <pt x="227" y="1380" on="0"/>
        <pt x="160" y="1406" on="0"/>
        <pt x="86" y="1409" on="1"/>
        <pt x="86" y="1450" on="1"/>
        <pt x="196" y="1443" on="0"/>
        <pt x="286" y="1443" on="1"/>
        <pt x="336" y="1444" on="1"/>
        <pt x="420" y="1446" on="1"/>
        <pt x="580" y="1450" on="0"/>
        <pt x="645" y="1450" on="1"/>
      </contour>
      <contour>
        <pt x="530" y="1413" on="0"/>
        <pt x="466" y="1384" on="0"/>
        <pt x="442" y="1310" on="0"/>
        <pt x="442" y="1237" on="1"/>
        <pt x="442" y="213" on="1"/>
        <pt x="442" y="139" on="0"/>
        <pt x="466" y="66" on="0"/>
        <pt x="531" y="37" on="0"/>
        <pt x="596" y="37" on="1"/>
        <pt x="814" y="37" on="0"/>
        <pt x="1062" y="195" on="0"/>
        <pt x="1163" y="498" on="0"/>
        <pt x="1163" y="733" on="1"/>
        <pt x="1163" y="969" on="0"/>
        <pt x="1053" y="1266" on="0"/>
        <pt x="804" y="1413" on="0"/>
        <pt x="594" y="1413" on="1"/>
      </contour>
    </TTGlyph>
    <TTGlyph name="Dcaron" xMin="86" yMin="0" xMax="1368" yMax="1896">
      <component glyphName=".ttfautohint" x="86" y="0" flags="0x0"/>
      <component glyphName="D" x="0" y="0" flags="0x0"/>
      <component glyphName="caron.case" x="207" y="0" flags="0x0"/>
    </TTGlyph>
    <TTGlyph name="Dcroat" xMin="88" yMin="0" xMax="1370" yMax="1450">
      <contour>
        <pt x="1009" y="1450" on="0"/>
        <pt x="1370" y="1088" on="0"/>
        <pt x="1370" y="741" on="1"/>
        <pt x="1370" y="518" on="0"/>
        <pt x="1195" y="183" on="0"/>
        <pt x="861" y="0" on="0"/>
        <pt x="629" y="0" on="1"/>
        <pt x="581" y="0" on="0"/>
        <pt x="509" y="3" on="1"/>
        <pt x="338" y="6" on="0"/>
        <pt x="342" y="6" on="1"/>
        <pt x="174" y="6" on="0"/>
        <pt x="88" y="0" on="1"/>
        <pt x="88" y="41" on="1"/>
        <pt x="162" y="44" on="0"/>
        <pt x="229" y="70" on="0"/>
        <pt x="254" y="140" on="0"/>
        <pt x="254" y="217" on="1"/>
        <pt x="254" y="709" on="1"/>
        <pt x="88" y="709" on="1"/>
        <pt x="88" y="750" on="1"/>
        <pt x="254" y="750" on="1"/>
        <pt x="254" y="1233" on="1"/>
        <pt x="254" y="1310" on="0"/>
        <pt x="229" y="1380" on="0"/>
        <pt x="162" y="1406" on="0"/>
        <pt x="88" y="1409" on="1"/>
        <pt x="88" y="1450" on="1"/>
        <pt x="198" y="1443" on="0"/>
        <pt x="288" y="1443" on="1"/>
        <pt x="338" y="1444" on="1"/>
        <pt x="422" y="1446" on="1"/>
        <pt x="582" y="1450" on="0"/>
        <pt x="647" y="1450" on="1"/>
      </contour>
      <contour>
        <pt x="816" y="37" on="0"/>
        <pt x="1064" y="195" on="0"/>
        <pt x="1165" y="498" on="0"/>
        <pt x="1165" y="733" on="1"/>
        <pt x="1165" y="969" on="0"/>
        <pt x="1055" y="1266" on="0"/>
        <pt x="806" y="1413" on="0"/>
        <pt x="596" y="1413" on="1"/>
        <pt x="532" y="1413" on="0"/>
        <pt x="468" y="1384" on="0"/>
        <pt x="444" y="1310" on="0"/>
        <pt x="444" y="1237" on="1"/>
        <pt x="444" y="750" on="1"/>
        <pt x="729" y="750" on="1"/>
        <pt x="729" y="709" on="1"/>
        <pt x="444" y="709" on="1"/>
        <pt x="444" y="213" on="1"/>
        <pt x="444" y="139" on="0"/>
        <pt x="468" y="66" on="0"/>
        <pt x="533" y="37" on="0"/>
        <pt x="598" y="37" on="1"/>
      </contour>
    </TTGlyph>
    <TTGlyph name="Delta" xMin="57" yMin="0" xMax="963" yMax="1479">
      <contour>
        <pt x="738" y="6" on="0"/>
        <pt x="512" y="6" on="1"/>
        <pt x="285" y="6" on="0"/>
        <pt x="57" y="0" on="1"/>
        <pt x="535" y="1479" on="1"/>
        <pt x="567" y="1479" on="1"/>
        <pt x="963" y="0" on="1"/>
      </contour>
      <contour>
        <pt x="741" y="61" on="1"/>
        <pt x="455" y="1110" on="1"/>
        <pt x="119" y="61" on="1"/>
      </contour>
    </TTGlyph>
    <TTGlyph name="E" xMin="86" yMin="0" xMax="1149" yMax="1450">
      <contour>
        <pt x="1135" y="146" on="0"/>
        <pt x="1149" y="0" on="1"/>
        <pt x="1010" y="6" on="0"/>
        <pt x="680" y="6" on="1"/>
        <pt x="287" y="6" on="0"/>
        <pt x="86" y="0" on="1"/>
        <pt x="86" y="41" on="1"/>
        <pt x="160" y="44" on="0"/>
        <pt x="227" y="70" on="0"/>
        <pt x="252" y="140" on="0"/>
        <pt x="252" y="217" on="1"/>
        <pt x="252" y="1233" on="1"/>
        <pt x="252" y="1310" on="0"/>
        <pt x="227" y="1380" on="0"/>
        <pt x="160" y="1406" on="0"/>
        <pt x="86" y="1409" on="1"/>
        <pt x="86" y="1450" on="1"/>
        <pt x="287" y="1444" on="0"/>
        <pt x="680" y="1444" on="1"/>
        <pt x="981" y="1444" on="0"/>
        <pt x="1108" y="1450" on="1"/>
        <pt x="1094" y="1316" on="0"/>
        <pt x="1094" y="1208" on="1"/>
        <pt x="1094" y="1128" on="0"/>
        <pt x="1100" y="1081" on="1"/>
        <pt x="1053" y="1081" on="1"/>
        <pt x="1038" y="1214" on="0"/>
        <pt x="993" y="1344" on="0"/>
        <pt x="886" y="1403" on="0"/>
        <pt x="778" y="1403" on="1"/>
        <pt x="608" y="1403" on="1"/>
        <pt x="534" y="1403" on="0"/>
        <pt x="467" y="1379" on="0"/>
        <pt x="442" y="1310" on="0"/>
        <pt x="442" y="1233" on="1"/>
        <pt x="442" y="750" on="1"/>
        <pt x="578" y="750" on="1"/>
        <pt x="650" y="750" on="0"/>
        <pt x="727" y="818" on="0"/>
        <pt x="754" y="910" on="0"/>
        <pt x="763" y="980" on="1"/>
        <pt x="764" y="998" on="0"/>
        <pt x="768" y="1020" on="1"/>
        <pt x="815" y="1020" on="1"/>
        <pt x="808" y="919" on="0"/>
        <pt x="808" y="827" on="1"/>
        <pt x="809" y="729" on="1"/>
        <pt x="809" y="625" on="0"/>
        <pt x="821" y="438" on="1"/>
        <pt x="774" y="438" on="1"/>
        <pt x="771" y="467" on="1"/>
        <pt x="762" y="548" on="0"/>
        <pt x="734" y="644" on="0"/>
        <pt x="655" y="709" on="0"/>
        <pt x="578" y="709" on="1"/>
        <pt x="442" y="709" on="1"/>
        <pt x="442" y="217" on="1"/>
        <pt x="442" y="140" on="0"/>
        <pt x="467" y="71" on="0"/>
        <pt x="534" y="47" on="0"/>
        <pt x="608" y="47" on="1"/>
        <pt x="758" y="47" on="1"/>
        <pt x="886" y="47" on="0"/>
        <pt x="1019" y="115" on="0"/>
        <pt x="1078" y="265" on="0"/>
        <pt x="1094" y="410" on="1"/>
        <pt x="1141" y="410" on="1"/>
        <pt x="1135" y="355" on="0"/>
        <pt x="1135" y="262" on="1"/>
      </contour>
    </TTGlyph>
    <TTGlyph name="Eacute" xMin="86" yMin="0" xMax="1149" yMax="1916">
      <component glyphName=".ttfautohint" x="86" y="0" flags="0x0"/>
      <component glyphName="E" x="0" y="0" flags="0x0"/>
      <component glyphName="acute.case" x="461" y="0" flags="0x0"/>
    </TTGlyph>
    <TTGlyph name="Ebreve" xMin="86" yMin="0" xMax="1149" yMax="1862">
      <component glyphName=".ttfautohint" x="86" y="0" flags="0x0"/>
      <component glyphName="E" x="0" y="0" flags="0x0"/>
      <component glyphName="breve.case" x="168" y="0" flags="0x0"/>
    </TTGlyph>
    <TTGlyph name="Ecaron" xMin="86" yMin="0" xMax="1149" yMax="1896">
      <component glyphName=".ttfautohint" x="86" y="0" flags="0x0"/>
      <component glyphName="E" x="0" y="0" flags="0x0"/>
      <component glyphName="caron.case" x="189" y="0" flags="0x0"/>
    </TTGlyph>
    <TTGlyph name="Ecircumflex" xMin="86" yMin="0" xMax="1149" yMax="1876">
      <component glyphName=".ttfautohint" x="86" y="0" flags="0x0"/>
      <component glyphName="E" x="0" y="0" flags="0x0"/>
      <component glyphName="circumflex.case" x="195" y="0" flags="0x0"/>
    </TTGlyph>
    <TTGlyph name="Edieresis" xMin="86" yMin="0" xMax="1149" yMax="1819">
      <component glyphName=".ttfautohint" x="86" y="0" flags="0x0"/>
      <component glyphName="E" x="0" y="0" flags="0x0"/>
      <component glyphName="dieresis.case" x="240" y="0" flags="0x0"/>
    </TTGlyph>
    <TTGlyph name="Edotaccent" xMin="86" yMin="0" xMax="1149" yMax="1843">
      <component glyphName=".ttfautohint" x="86" y="0" flags="0x0"/>
      <component glyphName="E" x="0" y="0" flags="0x0"/>
      <component glyphName="dotaccent.case" x="451" y="0" flags="0x0"/>
    </TTGlyph>
    <TTGlyph name="Egrave" xMin="86" yMin="0" xMax="1149" yMax="1916">
      <component glyphName=".ttfautohint" x="86" y="0" flags="0x0"/>
      <component glyphName="E" x="0" y="0" flags="0x0"/>
      <component glyphName="grave.case" x="242" y="0" flags="0x0"/>
    </TTGlyph>
    <TTGlyph name="Emacron" xMin="86" yMin="0" xMax="1149" yMax="1729">
      <component glyphName=".ttfautohint" x="86" y="0" flags="0x0"/>
      <component glyphName="E" x="0" y="0" flags="0x0"/>
      <component glyphName="macron.case" x="215" y="0" flags="0x0"/>
    </TTGlyph>
    <TTGlyph name="Eng" xMin="86" yMin="-385" xMax="1372" yMax="1450">
      <contour>
        <pt x="1305" y="1444" on="0"/>
        <pt x="1372" y="1450" on="1"/>
        <pt x="1372" y="1409" on="1"/>
        <pt x="1298" y="1406" on="0"/>
        <pt x="1231" y="1380" on="0"/>
        <pt x="1206" y="1310" on="0"/>
        <pt x="1206" y="1233" on="1"/>
        <pt x="1206" y="186" on="1"/>
        <pt x="1206" y="-38" on="0"/>
        <pt x="1131" y="-290" on="0"/>
        <pt x="1004" y="-385" on="0"/>
        <pt x="915" y="-385" on="1"/>
        <pt x="836" y="-385" on="0"/>
        <pt x="731" y="-323" on="0"/>
        <pt x="731" y="-258" on="1"/>
        <pt x="731" y="-212" on="0"/>
        <pt x="786" y="-156" on="0"/>
        <pt x="827" y="-156" on="1"/>
        <pt x="869" y="-156" on="0"/>
        <pt x="930" y="-212" on="0"/>
        <pt x="930" y="-252" on="1"/>
        <pt x="930" y="-279" on="0"/>
        <pt x="900" y="-332" on="0"/>
        <pt x="877" y="-346" on="1"/>
        <pt x="901" y="-350" on="0"/>
        <pt x="924" y="-350" on="1"/>
        <pt x="1129" y="-350" on="0"/>
        <pt x="1155" y="-4" on="1"/>
        <pt x="299" y="1319" on="1"/>
        <pt x="299" y="217" on="1"/>
        <pt x="299" y="140" on="0"/>
        <pt x="324" y="70" on="0"/>
        <pt x="391" y="44" on="0"/>
        <pt x="465" y="41" on="1"/>
        <pt x="465" y="0" on="1"/>
        <pt x="391" y="6" on="0"/>
        <pt x="276" y="6" on="1"/>
        <pt x="154" y="6" on="0"/>
        <pt x="86" y="0" on="1"/>
        <pt x="86" y="41" on="1"/>
        <pt x="160" y="44" on="0"/>
        <pt x="227" y="70" on="0"/>
        <pt x="252" y="140" on="0"/>
        <pt x="252" y="217" on="1"/>
        <pt x="252" y="1233" on="1"/>
        <pt x="252" y="1310" on="0"/>
        <pt x="227" y="1380" on="0"/>
        <pt x="160" y="1406" on="0"/>
        <pt x="86" y="1409" on="1"/>
        <pt x="86" y="1450" on="1"/>
        <pt x="153" y="1444" on="0"/>
        <pt x="276" y="1444" on="1"/>
        <pt x="389" y="1444" on="0"/>
        <pt x="465" y="1450" on="1"/>
        <pt x="1159" y="377" on="1"/>
        <pt x="1159" y="1233" on="1"/>
        <pt x="1159" y="1310" on="0"/>
        <pt x="1134" y="1380" on="0"/>
        <pt x="1067" y="1406" on="0"/>
        <pt x="993" y="1409" on="1"/>
        <pt x="993" y="1450" on="1"/>
        <pt x="1067" y="1444" on="0"/>
        <pt x="1182" y="1444" on="1"/>
      </contour>
    </TTGlyph>
    <TTGlyph name="Eogonek" xMin="86" yMin="-385" xMax="1181" yMax="1450">
      <contour>
        <pt x="1090" y="-385" on="0"/>
        <pt x="950" y="-385" on="1"/>
        <pt x="877" y="-385" on="0"/>
        <pt x="788" y="-312" on="0"/>
        <pt x="788" y="-252" on="1"/>
        <pt x="788" y="-173" on="0"/>
        <pt x="930" y="-41" on="0"/>
        <pt x="1062" y="3" on="1"/>
        <pt x="936" y="6" on="0"/>
        <pt x="680" y="6" on="1"/>
        <pt x="287" y="6" on="0"/>
        <pt x="86" y="0" on="1"/>
        <pt x="86" y="41" on="1"/>
        <pt x="160" y="44" on="0"/>
        <pt x="227" y="70" on="0"/>
        <pt x="252" y="140" on="0"/>
        <pt x="252" y="217" on="1"/>
        <pt x="252" y="1233" on="1"/>
        <pt x="252" y="1310" on="0"/>
        <pt x="227" y="1380" on="0"/>
        <pt x="160" y="1406" on="0"/>
        <pt x="86" y="1409" on="1"/>
        <pt x="86" y="1450" on="1"/>
        <pt x="287" y="1444" on="0"/>
        <pt x="680" y="1444" on="1"/>
        <pt x="981" y="1444" on="0"/>
        <pt x="1108" y="1450" on="1"/>
        <pt x="1094" y="1316" on="0"/>
        <pt x="1094" y="1208" on="1"/>
        <pt x="1094" y="1128" on="0"/>
        <pt x="1100" y="1081" on="1"/>
        <pt x="1053" y="1081" on="1"/>
        <pt x="1038" y="1214" on="0"/>
        <pt x="993" y="1344" on="0"/>
        <pt x="886" y="1403" on="0"/>
        <pt x="778" y="1403" on="1"/>
        <pt x="608" y="1403" on="1"/>
        <pt x="534" y="1403" on="0"/>
        <pt x="467" y="1379" on="0"/>
        <pt x="442" y="1310" on="0"/>
        <pt x="442" y="1233" on="1"/>
        <pt x="442" y="750" on="1"/>
        <pt x="578" y="750" on="1"/>
        <pt x="650" y="750" on="0"/>
        <pt x="727" y="818" on="0"/>
        <pt x="754" y="910" on="0"/>
        <pt x="763" y="980" on="1"/>
        <pt x="764" y="998" on="0"/>
        <pt x="768" y="1020" on="1"/>
        <pt x="815" y="1020" on="1"/>
        <pt x="808" y="919" on="0"/>
        <pt x="808" y="827" on="1"/>
        <pt x="809" y="729" on="1"/>
        <pt x="809" y="625" on="0"/>
        <pt x="821" y="438" on="1"/>
        <pt x="774" y="438" on="1"/>
        <pt x="771" y="467" on="1"/>
        <pt x="762" y="548" on="0"/>
        <pt x="734" y="644" on="0"/>
        <pt x="655" y="709" on="0"/>
        <pt x="578" y="709" on="1"/>
        <pt x="442" y="709" on="1"/>
        <pt x="442" y="217" on="1"/>
        <pt x="442" y="140" on="0"/>
        <pt x="467" y="71" on="0"/>
        <pt x="534" y="47" on="0"/>
        <pt x="608" y="47" on="1"/>
        <pt x="758" y="47" on="1"/>
        <pt x="886" y="47" on="0"/>
        <pt x="1019" y="115" on="0"/>
        <pt x="1078" y="265" on="0"/>
        <pt x="1094" y="410" on="1"/>
        <pt x="1141" y="410" on="1"/>
        <pt x="1135" y="355" on="0"/>
        <pt x="1135" y="262" on="1"/>
        <pt x="1135" y="153" on="0"/>
        <pt x="1148" y="6" on="1"/>
        <pt x="1149" y="4" on="0"/>
        <pt x="1149" y="0" on="1"/>
        <pt x="1131" y="1" on="1"/>
        <pt x="1029" y="-30" on="0"/>
        <pt x="938" y="-139" on="0"/>
        <pt x="938" y="-197" on="1"/>
        <pt x="938" y="-238" on="0"/>
        <pt x="985" y="-287" on="0"/>
        <pt x="1026" y="-287" on="1"/>
        <pt x="1063" y="-287" on="0"/>
        <pt x="1130" y="-248" on="0"/>
        <pt x="1151" y="-219" on="1"/>
        <pt x="1181" y="-246" on="1"/>
      </contour>
    </TTGlyph>
    <TTGlyph name="Eth" xMin="88" yMin="0" xMax="1370" yMax="1450">
      <contour>
        <pt x="1009" y="1450" on="0"/>
        <pt x="1370" y="1088" on="0"/>
        <pt x="1370" y="741" on="1"/>
        <pt x="1370" y="518" on="0"/>
        <pt x="1195" y="183" on="0"/>
        <pt x="861" y="0" on="0"/>
        <pt x="629" y="0" on="1"/>
        <pt x="581" y="0" on="0"/>
        <pt x="509" y="3" on="1"/>
        <pt x="338" y="6" on="0"/>
        <pt x="342" y="6" on="1"/>
        <pt x="174" y="6" on="0"/>
        <pt x="88" y="0" on="1"/>
        <pt x="88" y="41" on="1"/>
        <pt x="162" y="44" on="0"/>
        <pt x="229" y="70" on="0"/>
        <pt x="254" y="140" on="0"/>
        <pt x="254" y="217" on="1"/>
        <pt x="254" y="709" on="1"/>
        <pt x="88" y="709" on="1"/>
        <pt x="88" y="750" on="1"/>
        <pt x="254" y="750" on="1"/>
        <pt x="254" y="1233" on="1"/>
        <pt x="254" y="1310" on="0"/>
        <pt x="229" y="1380" on="0"/>
        <pt x="162" y="1406" on="0"/>
        <pt x="88" y="1409" on="1"/>
        <pt x="88" y="1450" on="1"/>
        <pt x="198" y="1443" on="0"/>
        <pt x="288" y="1443" on="1"/>
        <pt x="338" y="1444" on="1"/>
        <pt x="422" y="1446" on="1"/>
        <pt x="582" y="1450" on="0"/>
        <pt x="647" y="1450" on="1"/>
      </contour>
      <contour>
        <pt x="816" y="37" on="0"/>
        <pt x="1064" y="195" on="0"/>
        <pt x="1165" y="498" on="0"/>
        <pt x="1165" y="733" on="1"/>
        <pt x="1165" y="969" on="0"/>
        <pt x="1055" y="1266" on="0"/>
        <pt x="806" y="1413" on="0"/>
        <pt x="596" y="1413" on="1"/>
        <pt x="532" y="1413" on="0"/>
        <pt x="468" y="1384" on="0"/>
        <pt x="444" y="1310" on="0"/>
        <pt x="444" y="1237" on="1"/>
        <pt x="444" y="750" on="1"/>
        <pt x="729" y="750" on="1"/>
        <pt x="729" y="709" on="1"/>
        <pt x="444" y="709" on="1"/>
        <pt x="444" y="213" on="1"/>
        <pt x="444" y="139" on="0"/>
        <pt x="468" y="66" on="0"/>
        <pt x="533" y="37" on="0"/>
        <pt x="598" y="37" on="1"/>
      </contour>
    </TTGlyph>
    <TTGlyph name="Euro" xMin="68" yMin="-29" xMax="1087" yMax="1479">
      <contour>
        <pt x="1024" y="299" on="0"/>
        <pt x="1085" y="238" on="0"/>
        <pt x="1085" y="190" on="1"/>
        <pt x="1085" y="115" on="0"/>
        <pt x="989" y="43" on="1"/>
        <pt x="889" y="-29" on="0"/>
        <pt x="762" y="-29" on="1"/>
        <pt x="611" y="-29" on="0"/>
        <pt x="376" y="122" on="0"/>
        <pt x="234" y="408" on="0"/>
        <pt x="219" y="608" on="1"/>
        <pt x="68" y="608" on="1"/>
        <pt x="68" y="649" on="1"/>
        <pt x="216" y="649" on="1"/>
        <pt x="215" y="670" on="0"/>
        <pt x="215" y="713" on="1"/>
        <pt x="215" y="770" on="0"/>
        <pt x="219" y="813" on="1"/>
        <pt x="68" y="813" on="1"/>
        <pt x="68" y="854" on="1"/>
        <pt x="223" y="854" on="1"/>
        <pt x="244" y="1042" on="0"/>
        <pt x="392" y="1325" on="0"/>
        <pt x="622" y="1479" on="0"/>
        <pt x="764" y="1479" on="1"/>
        <pt x="891" y="1479" on="0"/>
        <pt x="991" y="1407" on="1"/>
        <pt x="1087" y="1337" on="0"/>
        <pt x="1087" y="1260" on="1"/>
        <pt x="1087" y="1212" on="0"/>
        <pt x="1026" y="1151" on="0"/>
        <pt x="979" y="1151" on="1"/>
        <pt x="931" y="1151" on="0"/>
        <pt x="866" y="1211" on="0"/>
        <pt x="866" y="1262" on="1"/>
        <pt x="866" y="1304" on="0"/>
        <pt x="913" y="1358" on="0"/>
        <pt x="952" y="1366" on="1"/>
        <pt x="937" y="1397" on="0"/>
        <pt x="828" y="1444" on="0"/>
        <pt x="770" y="1444" on="1"/>
        <pt x="670" y="1444" on="0"/>
        <pt x="523" y="1303" on="0"/>
        <pt x="436" y="1038" on="0"/>
        <pt x="424" y="854" on="1"/>
        <pt x="862" y="854" on="1"/>
        <pt x="840" y="813" on="1"/>
        <pt x="422" y="813" on="1"/>
        <pt x="420" y="753" on="0"/>
        <pt x="420" y="721" on="1"/>
        <pt x="420" y="672" on="0"/>
        <pt x="421" y="649" on="1"/>
        <pt x="748" y="649" on="1"/>
        <pt x="723" y="608" on="1"/>
        <pt x="423" y="608" on="1"/>
        <pt x="437" y="317" on="0"/>
        <pt x="614" y="6" on="0"/>
        <pt x="768" y="6" on="1"/>
        <pt x="826" y="6" on="0"/>
        <pt x="935" y="53" on="0"/>
        <pt x="950" y="84" on="1"/>
        <pt x="911" y="92" on="0"/>
        <pt x="864" y="146" on="0"/>
        <pt x="864" y="188" on="1"/>
        <pt x="864" y="239" on="0"/>
        <pt x="929" y="299" on="0"/>
        <pt x="977" y="299" on="1"/>
      </contour>
    </TTGlyph>
    <TTGlyph name="Euro.smcp" xMin="72" yMin="-29" xMax="1090" yMax="1274">
      <contour>
        <pt x="1035" y="289" on="0"/>
        <pt x="1087" y="231" on="0"/>
        <pt x="1087" y="186" on="1"/>
        <pt x="1087" y="99" on="0"/>
        <pt x="987" y="31" on="1"/>
        <pt x="899" y="-29" on="0"/>
        <pt x="766" y="-29" on="1"/>
        <pt x="616" y="-29" on="0"/>
        <pt x="384" y="96" on="0"/>
        <pt x="241" y="337" on="0"/>
        <pt x="224" y="506" on="1"/>
        <pt x="72" y="506" on="1"/>
        <pt x="72" y="547" on="1"/>
        <pt x="221" y="547" on="1"/>
        <pt x="219" y="589" on="0"/>
        <pt x="219" y="610" on="1"/>
        <pt x="219" y="656" on="0"/>
        <pt x="224" y="711" on="1"/>
        <pt x="72" y="711" on="1"/>
        <pt x="72" y="752" on="1"/>
        <pt x="229" y="752" on="1"/>
        <pt x="253" y="910" on="0"/>
        <pt x="402" y="1146" on="0"/>
        <pt x="630" y="1274" on="0"/>
        <pt x="768" y="1274" on="1"/>
        <pt x="904" y="1274" on="0"/>
        <pt x="989" y="1214" on="1"/>
        <pt x="1090" y="1143" on="0"/>
        <pt x="1090" y="1059" on="1"/>
        <pt x="1090" y="1014" on="0"/>
        <pt x="1037" y="956" on="0"/>
        <pt x="995" y="956" on="1"/>
        <pt x="956" y="956" on="0"/>
        <pt x="899" y="1005" on="0"/>
        <pt x="899" y="1047" on="1"/>
        <pt x="899" y="1085" on="0"/>
        <pt x="951" y="1144" on="0"/>
        <pt x="993" y="1145" on="1"/>
        <pt x="971" y="1192" on="0"/>
        <pt x="847" y="1239" on="0"/>
        <pt x="774" y="1239" on="1"/>
        <pt x="628" y="1239" on="0"/>
        <pt x="450" y="982" on="0"/>
        <pt x="430" y="752" on="1"/>
        <pt x="866" y="752" on="1"/>
        <pt x="844" y="711" on="1"/>
        <pt x="427" y="711" on="1"/>
        <pt x="424" y="666" on="0"/>
        <pt x="424" y="618" on="1"/>
        <pt x="424" y="570" on="0"/>
        <pt x="425" y="547" on="1"/>
        <pt x="752" y="547" on="1"/>
        <pt x="727" y="506" on="1"/>
        <pt x="428" y="506" on="1"/>
        <pt x="445" y="264" on="0"/>
        <pt x="622" y="8" on="0"/>
        <pt x="774" y="8" on="1"/>
        <pt x="844" y="8" on="0"/>
        <pt x="966" y="50" on="0"/>
        <pt x="991" y="100" on="1"/>
        <pt x="949" y="101" on="0"/>
        <pt x="897" y="161" on="0"/>
        <pt x="897" y="199" on="1"/>
        <pt x="897" y="240" on="0"/>
        <pt x="954" y="289" on="0"/>
        <pt x="993" y="289" on="1"/>
      </contour>
    </TTGlyph>
    <TTGlyph name="F" xMin="86" yMin="0" xMax="1108" yMax="1450">
      <contour>
        <pt x="1094" y="1304" on="0"/>
        <pt x="1094" y="1188" on="1"/>
        <pt x="1094" y="1085" on="0"/>
        <pt x="1100" y="1020" on="1"/>
        <pt x="1053" y="1020" on="1"/>
        <pt x="1037" y="1179" on="0"/>
        <pt x="987" y="1332" on="0"/>
        <pt x="864" y="1403" on="0"/>
        <pt x="737" y="1403" on="1"/>
        <pt x="608" y="1403" on="1"/>
        <pt x="534" y="1403" on="0"/>
        <pt x="467" y="1379" on="0"/>
        <pt x="442" y="1310" on="0"/>
        <pt x="442" y="1233" on="1"/>
        <pt x="442" y="729" on="1"/>
        <pt x="592" y="729" on="1"/>
        <pt x="664" y="729" on="0"/>
        <pt x="741" y="797" on="0"/>
        <pt x="768" y="889" on="0"/>
        <pt x="777" y="959" on="1"/>
        <pt x="778" y="977" on="0"/>
        <pt x="782" y="999" on="1"/>
        <pt x="829" y="999" on="1"/>
        <pt x="822" y="899" on="0"/>
        <pt x="822" y="806" on="1"/>
        <pt x="823" y="709" on="1"/>
        <pt x="823" y="601" on="0"/>
        <pt x="836" y="418" on="1"/>
        <pt x="788" y="418" on="1"/>
        <pt x="785" y="446" on="1"/>
        <pt x="776" y="527" on="0"/>
        <pt x="748" y="623" on="0"/>
        <pt x="669" y="688" on="0"/>
        <pt x="592" y="688" on="1"/>
        <pt x="442" y="688" on="1"/>
        <pt x="442" y="217" on="1"/>
        <pt x="442" y="140" on="0"/>
        <pt x="474" y="70" on="0"/>
        <pt x="558" y="44" on="0"/>
        <pt x="649" y="41" on="1"/>
        <pt x="649" y="0" on="1"/>
        <pt x="543" y="6" on="0"/>
        <pt x="348" y="6" on="1"/>
        <pt x="172" y="6" on="0"/>
        <pt x="86" y="0" on="1"/>
        <pt x="86" y="41" on="1"/>
        <pt x="160" y="44" on="0"/>
        <pt x="227" y="70" on="0"/>
        <pt x="252" y="140" on="0"/>
        <pt x="252" y="217" on="1"/>
        <pt x="252" y="1233" on="1"/>
        <pt x="252" y="1310" on="0"/>
        <pt x="227" y="1380" on="0"/>
        <pt x="160" y="1406" on="0"/>
        <pt x="86" y="1409" on="1"/>
        <pt x="86" y="1450" on="1"/>
        <pt x="287" y="1444" on="0"/>
        <pt x="680" y="1444" on="1"/>
        <pt x="981" y="1444" on="0"/>
        <pt x="1108" y="1450" on="1"/>
      </contour>
    </TTGlyph>
    <TTGlyph name="G" xMin="111" yMin="-29" xMax="1370" yMax="1479">
      <contour>
        <pt x="853" y="1479" on="0"/>
        <pt x="982" y="1444" on="0"/>
        <pt x="1077" y="1390" on="0"/>
        <pt x="1139" y="1346" on="1"/>
        <pt x="1165" y="1325" on="0"/>
        <pt x="1180" y="1325" on="1"/>
        <pt x="1219" y="1325" on="0"/>
        <pt x="1231" y="1450" on="1"/>
        <pt x="1278" y="1450" on="1"/>
        <pt x="1270" y="1317" on="0"/>
        <pt x="1270" y="979" on="1"/>
        <pt x="1223" y="979" on="1"/>
        <pt x="1205" y="1089" on="0"/>
        <pt x="1163" y="1230" on="0"/>
        <pt x="1120" y="1282" on="1"/>
        <pt x="1060" y="1356" on="0"/>
        <pt x="870" y="1442" on="0"/>
        <pt x="766" y="1442" on="1"/>
        <pt x="631" y="1442" on="0"/>
        <pt x="427" y="1266" on="0"/>
        <pt x="315" y="941" on="0"/>
        <pt x="315" y="723" on="1"/>
        <pt x="315" y="477" on="0"/>
        <pt x="420" y="163" on="0"/>
        <pt x="635" y="12" on="0"/>
        <pt x="803" y="12" on="1"/>
        <pt x="926" y="12" on="0"/>
        <pt x="1016" y="76" on="1"/>
        <pt x="1053" y="101" on="0"/>
        <pt x="1075" y="147" on="0"/>
        <pt x="1075" y="188" on="1"/>
        <pt x="1075" y="385" on="1"/>
        <pt x="1075" y="470" on="0"/>
        <pt x="1043" y="549" on="0"/>
        <pt x="959" y="578" on="0"/>
        <pt x="868" y="582" on="1"/>
        <pt x="868" y="623" on="1"/>
        <pt x="969" y="616" on="0"/>
        <pt x="1157" y="616" on="1"/>
        <pt x="1301" y="616" on="0"/>
        <pt x="1370" y="623" on="1"/>
        <pt x="1370" y="582" on="1"/>
        <pt x="1322" y="578" on="0"/>
        <pt x="1281" y="553" on="0"/>
        <pt x="1266" y="485" on="0"/>
        <pt x="1266" y="406" on="1"/>
        <pt x="1266" y="0" on="1"/>
        <pt x="1225" y="0" on="1"/>
        <pt x="1223" y="42" on="0"/>
        <pt x="1193" y="117" on="0"/>
        <pt x="1169" y="117" on="1"/>
        <pt x="1156" y="117" on="0"/>
        <pt x="1132" y="104" on="0"/>
        <pt x="1102" y="82" on="1"/>
        <pt x="1030" y="27" on="0"/>
        <pt x="877" y="-29" on="0"/>
        <pt x="782" y="-29" on="1"/>
        <pt x="572" y="-29" on="0"/>
        <pt x="270" y="145" on="0"/>
        <pt x="111" y="473" on="0"/>
        <pt x="111" y="700" on="1"/>
        <pt x="111" y="935" on="0"/>
        <pt x="280" y="1288" on="0"/>
        <pt x="580" y="1479" on="0"/>
        <pt x="770" y="1479" on="1"/>
      </contour>
    </TTGlyph>
    <TTGlyph name="Gacute" xMin="111" yMin="-29" xMax="1370" yMax="1916">
      <component glyphName=".ttfautohint" x="111" y="0" flags="0x0"/>
      <component glyphName="G" x="0" y="0" flags="0x0"/>
      <component glyphName="acute.case" x="573" y="0" flags="0x0"/>
    </TTGlyph>
    <TTGlyph name="Gbreve" xMin="111" yMin="-29" xMax="1370" yMax="1862">
      <component glyphName=".ttfautohint" x="111" y="0" flags="0x0"/>
      <component glyphName="G" x="0" y="0" flags="0x0"/>
      <component glyphName="breve.case" x="280" y="0" flags="0x0"/>
    </TTGlyph>
    <TTGlyph name="Gcircumflex" xMin="111" yMin="-29" xMax="1370" yMax="1876">
      <component glyphName=".ttfautohint" x="111" y="0" flags="0x0"/>
      <component glyphName="G" x="0" y="0" flags="0x0"/>
      <component glyphName="circumflex.case" x="307" y="0" flags="0x0"/>
    </TTGlyph>
    <TTGlyph name="Gcommaaccent" xMin="111" yMin="-494" xMax="1370" yMax="1479">
      <component glyphName=".ttfautohint" x="111" y="0" flags="0x0"/>
      <component glyphName="G" x="0" y="0" flags="0x0"/>
      <component glyphName="commaaccentcomb.case" x="557" y="0" flags="0x0"/>
    </TTGlyph>
    <TTGlyph name="Gdotaccent" xMin="111" yMin="-29" xMax="1370" yMax="1843">
      <component glyphName=".ttfautohint" x="111" y="0" flags="0x0"/>
      <component glyphName="G" x="0" y="0" flags="0x0"/>
      <component glyphName="dotaccent.case" x="563" y="0" flags="0x0"/>
    </TTGlyph>
    <TTGlyph name="H" xMin="86" yMin="0" xMax="1464" yMax="1450">
      <contour>
        <pt x="1390" y="1406" on="0"/>
        <pt x="1323" y="1380" on="0"/>
        <pt x="1298" y="1310" on="0"/>
        <pt x="1298" y="1233" on="1"/>
        <pt x="1298" y="217" on="1"/>
        <pt x="1298" y="140" on="0"/>
        <pt x="1323" y="70" on="0"/>
        <pt x="1390" y="44" on="0"/>
        <pt x="1464" y="41" on="1"/>
        <pt x="1464" y="0" on="1"/>
        <pt x="1379" y="6" on="0"/>
        <pt x="1202" y="6" on="1"/>
        <pt x="1038" y="6" on="0"/>
        <pt x="942" y="0" on="1"/>
        <pt x="942" y="41" on="1"/>
        <pt x="1016" y="44" on="0"/>
        <pt x="1083" y="70" on="0"/>
        <pt x="1108" y="140" on="0"/>
        <pt x="1108" y="217" on="1"/>
        <pt x="1108" y="709" on="1"/>
        <pt x="442" y="709" on="1"/>
        <pt x="442" y="217" on="1"/>
        <pt x="442" y="140" on="0"/>
        <pt x="467" y="70" on="0"/>
        <pt x="534" y="44" on="0"/>
        <pt x="608" y="41" on="1"/>
        <pt x="608" y="0" on="1"/>
        <pt x="514" y="6" on="0"/>
        <pt x="348" y="6" on="1"/>
        <pt x="172" y="6" on="0"/>
        <pt x="86" y="0" on="1"/>
        <pt x="86" y="41" on="1"/>
        <pt x="160" y="44" on="0"/>
        <pt x="227" y="70" on="0"/>
        <pt x="252" y="140" on="0"/>
        <pt x="252" y="217" on="1"/>
        <pt x="252" y="1233" on="1"/>
        <pt x="252" y="1310" on="0"/>
        <pt x="227" y="1380" on="0"/>
        <pt x="160" y="1406" on="0"/>
        <pt x="86" y="1409" on="1"/>
        <pt x="86" y="1450" on="1"/>
        <pt x="171" y="1444" on="0"/>
        <pt x="348" y="1444" on="1"/>
        <pt x="514" y="1444" on="0"/>
        <pt x="608" y="1450" on="1"/>
        <pt x="608" y="1409" on="1"/>
        <pt x="534" y="1406" on="0"/>
        <pt x="467" y="1380" on="0"/>
        <pt x="442" y="1310" on="0"/>
        <pt x="442" y="1233" on="1"/>
        <pt x="442" y="750" on="1"/>
        <pt x="1108" y="750" on="1"/>
        <pt x="1108" y="1233" on="1"/>
        <pt x="1108" y="1310" on="0"/>
        <pt x="1083" y="1380" on="0"/>
        <pt x="1016" y="1406" on="0"/>
        <pt x="942" y="1409" on="1"/>
        <pt x="942" y="1450" on="1"/>
        <pt x="1038" y="1444" on="0"/>
        <pt x="1202" y="1444" on="1"/>
        <pt x="1378" y="1444" on="0"/>
        <pt x="1464" y="1450" on="1"/>
        <pt x="1464" y="1409" on="1"/>
      </contour>
    </TTGlyph>
    <TTGlyph name="Hbar" xMin="86" yMin="0" xMax="1464" yMax="1450">
      <contour>
        <pt x="1390" y="1406" on="0"/>
        <pt x="1323" y="1380" on="0"/>
        <pt x="1298" y="1310" on="0"/>
        <pt x="1298" y="1233" on="1"/>
        <pt x="1298" y="1092" on="1"/>
        <pt x="1464" y="1092" on="1"/>
        <pt x="1464" y="1051" on="1"/>
        <pt x="1298" y="1051" on="1"/>
        <pt x="1298" y="217" on="1"/>
        <pt x="1298" y="140" on="0"/>
        <pt x="1323" y="70" on="0"/>
        <pt x="1390" y="44" on="0"/>
        <pt x="1464" y="41" on="1"/>
        <pt x="1464" y="0" on="1"/>
        <pt x="1379" y="6" on="0"/>
        <pt x="1202" y="6" on="1"/>
        <pt x="1038" y="6" on="0"/>
        <pt x="942" y="0" on="1"/>
        <pt x="942" y="41" on="1"/>
        <pt x="1016" y="44" on="0"/>
        <pt x="1083" y="70" on="0"/>
        <pt x="1108" y="140" on="0"/>
        <pt x="1108" y="217" on="1"/>
        <pt x="1108" y="709" on="1"/>
        <pt x="442" y="709" on="1"/>
        <pt x="442" y="217" on="1"/>
        <pt x="442" y="140" on="0"/>
        <pt x="467" y="70" on="0"/>
        <pt x="534" y="44" on="0"/>
        <pt x="608" y="41" on="1"/>
        <pt x="608" y="0" on="1"/>
        <pt x="514" y="6" on="0"/>
        <pt x="348" y="6" on="1"/>
        <pt x="172" y="6" on="0"/>
        <pt x="86" y="0" on="1"/>
        <pt x="86" y="41" on="1"/>
        <pt x="160" y="44" on="0"/>
        <pt x="227" y="70" on="0"/>
        <pt x="252" y="140" on="0"/>
        <pt x="252" y="217" on="1"/>
        <pt x="252" y="1051" on="1"/>
        <pt x="86" y="1051" on="1"/>
        <pt x="86" y="1092" on="1"/>
        <pt x="252" y="1092" on="1"/>
        <pt x="252" y="1233" on="1"/>
        <pt x="252" y="1310" on="0"/>
        <pt x="227" y="1380" on="0"/>
        <pt x="160" y="1406" on="0"/>
        <pt x="86" y="1409" on="1"/>
        <pt x="86" y="1450" on="1"/>
        <pt x="171" y="1444" on="0"/>
        <pt x="348" y="1444" on="1"/>
        <pt x="514" y="1444" on="0"/>
        <pt x="608" y="1450" on="1"/>
        <pt x="608" y="1409" on="1"/>
        <pt x="534" y="1406" on="0"/>
        <pt x="467" y="1380" on="0"/>
        <pt x="442" y="1310" on="0"/>
        <pt x="442" y="1233" on="1"/>
        <pt x="442" y="1092" on="1"/>
        <pt x="1108" y="1092" on="1"/>
        <pt x="1108" y="1233" on="1"/>
        <pt x="1108" y="1310" on="0"/>
        <pt x="1083" y="1380" on="0"/>
        <pt x="1016" y="1406" on="0"/>
        <pt x="942" y="1409" on="1"/>
        <pt x="942" y="1450" on="1"/>
        <pt x="1038" y="1444" on="0"/>
        <pt x="1202" y="1444" on="1"/>
        <pt x="1378" y="1444" on="0"/>
        <pt x="1464" y="1450" on="1"/>
        <pt x="1464" y="1409" on="1"/>
      </contour>
      <contour>
        <pt x="442" y="1051" on="1"/>
        <pt x="442" y="750" on="1"/>
        <pt x="1108" y="750" on="1"/>
        <pt x="1108" y="1051" on="1"/>
      </contour>
    </TTGlyph>
    <TTGlyph name="Hcircumflex" xMin="86" yMin="0" xMax="1464" yMax="1876">
      <component glyphName=".ttfautohint" x="86" y="0" flags="0x0"/>
      <component glyphName="H" x="0" y="0" flags="0x0"/>
      <component glyphName="circumflex.case" x="348" y="0" flags="0x0"/>
    </TTGlyph>
    <TTGlyph name="I" xMin="86" yMin="0" xMax="608" yMax="1450">
      <contour>
        <pt x="534" y="1406" on="0"/>
        <pt x="467" y="1380" on="0"/>
        <pt x="442" y="1310" on="0"/>
        <pt x="442" y="1233" on="1"/>
        <pt x="442" y="217" on="1"/>
        <pt x="442" y="140" on="0"/>
        <pt x="467" y="70" on="0"/>
        <pt x="534" y="44" on="0"/>
        <pt x="608" y="41" on="1"/>
        <pt x="608" y="0" on="1"/>
        <pt x="514" y="6" on="0"/>
        <pt x="348" y="6" on="1"/>
        <pt x="172" y="6" on="0"/>
        <pt x="86" y="0" on="1"/>
        <pt x="86" y="41" on="1"/>
        <pt x="160" y="44" on="0"/>
        <pt x="227" y="70" on="0"/>
        <pt x="252" y="140" on="0"/>
        <pt x="252" y="217" on="1"/>
        <pt x="252" y="1233" on="1"/>
        <pt x="252" y="1310" on="0"/>
        <pt x="227" y="1380" on="0"/>
        <pt x="160" y="1406" on="0"/>
        <pt x="86" y="1409" on="1"/>
        <pt x="86" y="1450" on="1"/>
        <pt x="171" y="1444" on="0"/>
        <pt x="348" y="1444" on="1"/>
        <pt x="514" y="1444" on="0"/>
        <pt x="608" y="1450" on="1"/>
        <pt x="608" y="1409" on="1"/>
      </contour>
    </TTGlyph>
    <TTGlyph name="IJ" xMin="86" yMin="-385" xMax="1253" yMax="1450">
      <component glyphName=".ttfautohint" x="86" y="0" flags="0x0"/>
      <component glyphName="I" x="0" y="0" flags="0x0"/>
      <component glyphName="J" x="657" y="0" flags="0x0"/>
    </TTGlyph>
    <TTGlyph name="Iacute" xMin="86" yMin="0" xMax="703" yMax="1916">
      <component glyphName=".ttfautohint" x="86" y="0" flags="0x0"/>
      <component glyphName="I" x="0" y="0" flags="0x0"/>
      <component glyphName="acute.case" x="182" y="0" flags="0x0"/>
    </TTGlyph>
    <TTGlyph name="Ibreve" xMin="-60" yMin="0" xMax="755" yMax="1862">
      <component glyphName=".ttfautohint" x="0" y="0" flags="0x0"/>
      <component glyphName="I" x="0" y="0" flags="0x0"/>
      <component glyphName="breve.case" x="-111" y="0" flags="0x0"/>
    </TTGlyph>
    <TTGlyph name="Icircumflex" xMin="-53" yMin="0" xMax="750" yMax="1876">
      <component glyphName=".ttfautohint" x="0" y="0" flags="0x0"/>
      <component glyphName="I" x="0" y="0" flags="0x0"/>
      <component glyphName="circumflex.case" x="-84" y="0" flags="0x0"/>
    </TTGlyph>
    <TTGlyph name="Idieresis" xMin="12" yMin="0" xMax="684" yMax="1819">
      <component glyphName=".ttfautohint" x="12" y="0" flags="0x0"/>
      <component glyphName="I" x="0" y="0" flags="0x0"/>
      <component glyphName="dieresis.case" x="-39" y="0" flags="0x0"/>
    </TTGlyph>
    <TTGlyph name="Idotaccent" xMin="86" yMin="0" xMax="608" yMax="1964">
      <component glyphName=".ttfautohint" x="86" y="0" flags="0x0"/>
      <component glyphName="I" x="0" y="0" flags="0x0"/>
      <component glyphName="dotaccent" x="145" y="397" flags="0x0"/>
    </TTGlyph>
    <TTGlyph name="Igrave" xMin="5" yMin="0" xMax="608" yMax="1916">
      <component glyphName=".ttfautohint" x="5" y="0" flags="0x0"/>
      <component glyphName="I" x="0" y="0" flags="0x0"/>
      <component glyphName="grave.case" x="-37" y="0" flags="0x0"/>
    </TTGlyph>
    <TTGlyph name="Imacron" xMin="-13" yMin="0" xMax="708" yMax="1729">
      <component glyphName=".ttfautohint" x="0" y="0" flags="0x0"/>
      <component glyphName="I" x="0" y="0" flags="0x0"/>
      <component glyphName="macron.case" x="-64" y="0" flags="0x0"/>
    </TTGlyph>
    <TTGlyph name="Iogonek" xMin="86" yMin="-385" xMax="640" yMax="1450">
      <contour>
        <pt x="549" y="-385" on="0"/>
        <pt x="409" y="-385" on="1"/>
        <pt x="336" y="-385" on="0"/>
        <pt x="247" y="-312" on="0"/>
        <pt x="247" y="-252" on="1"/>
        <pt x="247" y="-173" on="0"/>
        <pt x="390" y="-40" on="0"/>
        <pt x="523" y="4" on="1"/>
        <pt x="415" y="6" on="0"/>
        <pt x="348" y="6" on="1"/>
        <pt x="171" y="6" on="0"/>
        <pt x="86" y="0" on="1"/>
        <pt x="86" y="41" on="1"/>
        <pt x="160" y="44" on="0"/>
        <pt x="227" y="70" on="0"/>
        <pt x="252" y="140" on="0"/>
        <pt x="252" y="217" on="1"/>
        <pt x="252" y="1233" on="1"/>
        <pt x="252" y="1310" on="0"/>
        <pt x="227" y="1380" on="0"/>
        <pt x="160" y="1406" on="0"/>
        <pt x="86" y="1409" on="1"/>
        <pt x="86" y="1450" on="1"/>
        <pt x="171" y="1444" on="0"/>
        <pt x="348" y="1444" on="1"/>
        <pt x="513" y="1444" on="0"/>
        <pt x="608" y="1450" on="1"/>
        <pt x="608" y="1409" on="1"/>
        <pt x="534" y="1406" on="0"/>
        <pt x="467" y="1380" on="0"/>
        <pt x="442" y="1310" on="0"/>
        <pt x="442" y="1233" on="1"/>
        <pt x="442" y="217" on="1"/>
        <pt x="442" y="140" on="0"/>
        <pt x="467" y="70" on="0"/>
        <pt x="534" y="44" on="0"/>
        <pt x="608" y="41" on="1"/>
        <pt x="608" y="0" on="1"/>
        <pt x="590" y="1" on="1"/>
        <pt x="488" y="-30" on="0"/>
        <pt x="397" y="-139" on="0"/>
        <pt x="397" y="-197" on="1"/>
        <pt x="397" y="-238" on="0"/>
        <pt x="444" y="-287" on="0"/>
        <pt x="485" y="-287" on="1"/>
        <pt x="522" y="-287" on="0"/>
        <pt x="589" y="-248" on="0"/>
        <pt x="610" y="-219" on="1"/>
        <pt x="640" y="-246" on="1"/>
      </contour>
    </TTGlyph>
    <TTGlyph name="Itilde" xMin="-45" yMin="0" xMax="737" yMax="1847">
      <component glyphName=".ttfautohint" x="0" y="0" flags="0x0"/>
      <component glyphName="I" x="0" y="0" flags="0x0"/>
      <component glyphName="tilde.case" x="-137" y="0" flags="0x0"/>
    </TTGlyph>
    <TTGlyph name="J" xMin="-307" yMin="-385" xMax="596" yMax="1450">
      <contour>
        <pt x="522" y="1406" on="0"/>
        <pt x="455" y="1380" on="0"/>
        <pt x="430" y="1310" on="0"/>
        <pt x="430" y="1233" on="1"/>
        <pt x="430" y="483" on="1"/>
        <pt x="430" y="309" on="0"/>
        <pt x="417" y="40" on="0"/>
        <pt x="395" y="-51" on="1"/>
        <pt x="372" y="-147" on="0"/>
        <pt x="256" y="-298" on="0"/>
        <pt x="77" y="-385" on="0"/>
        <pt x="-37" y="-385" on="1"/>
        <pt x="-137" y="-385" on="0"/>
        <pt x="-209" y="-348" on="1"/>
        <pt x="-307" y="-297" on="0"/>
        <pt x="-307" y="-207" on="1"/>
        <pt x="-307" y="-159" on="0"/>
        <pt x="-246" y="-98" on="0"/>
        <pt x="-199" y="-98" on="1"/>
        <pt x="-150" y="-98" on="0"/>
        <pt x="-86" y="-158" on="0"/>
        <pt x="-86" y="-209" on="1"/>
        <pt x="-86" y="-252" on="0"/>
        <pt x="-132" y="-305" on="0"/>
        <pt x="-172" y="-313" on="1"/>
        <pt x="-154" y="-331" on="0"/>
        <pt x="-77" y="-346" on="0"/>
        <pt x="-41" y="-346" on="1"/>
        <pt x="48" y="-346" on="0"/>
        <pt x="177" y="-254" on="0"/>
        <pt x="205" y="-172" on="1"/>
        <pt x="226" y="-108" on="0"/>
        <pt x="240" y="83" on="0"/>
        <pt x="240" y="297" on="1"/>
        <pt x="240" y="1233" on="1"/>
        <pt x="240" y="1310" on="0"/>
        <pt x="215" y="1380" on="0"/>
        <pt x="148" y="1406" on="0"/>
        <pt x="74" y="1409" on="1"/>
        <pt x="74" y="1450" on="1"/>
        <pt x="159" y="1444" on="0"/>
        <pt x="336" y="1444" on="1"/>
        <pt x="500" y="1444" on="0"/>
        <pt x="596" y="1450" on="1"/>
        <pt x="596" y="1409" on="1"/>
      </contour>
    </TTGlyph>
    <TTGlyph name="Jcircumflex" xMin="-307" yMin="-385" xMax="738" yMax="1876">
      <component glyphName=".ttfautohint" x="0" y="0" flags="0x0"/>
      <component glyphName="J" x="0" y="0" flags="0x0"/>
      <component glyphName="circumflex.case" x="-96" y="0" flags="0x0"/>
    </TTGlyph>
    <TTGlyph name="K" xMin="86" yMin="0" xMax="1339" yMax="1450">
      <contour>
        <pt x="1193" y="114" on="0"/>
        <pt x="1277" y="56" on="0"/>
        <pt x="1339" y="41" on="1"/>
        <pt x="1339" y="0" on="1"/>
        <pt x="1242" y="6" on="0"/>
        <pt x="1094" y="6" on="1"/>
        <pt x="983" y="6" on="0"/>
        <pt x="883" y="0" on="1"/>
        <pt x="883" y="41" on="1"/>
        <pt x="931" y="43" on="0"/>
        <pt x="977" y="63" on="0"/>
        <pt x="977" y="84" on="1"/>
        <pt x="977" y="103" on="0"/>
        <pt x="956" y="133" on="1"/>
        <pt x="657" y="584" on="1"/>
        <pt x="616" y="647" on="0"/>
        <pt x="555" y="707" on="0"/>
        <pt x="493" y="730" on="0"/>
        <pt x="442" y="733" on="1"/>
        <pt x="442" y="217" on="1"/>
        <pt x="442" y="140" on="0"/>
        <pt x="467" y="70" on="0"/>
        <pt x="534" y="44" on="0"/>
        <pt x="608" y="41" on="1"/>
        <pt x="608" y="0" on="1"/>
        <pt x="514" y="6" on="0"/>
        <pt x="348" y="6" on="1"/>
        <pt x="172" y="6" on="0"/>
        <pt x="86" y="0" on="1"/>
        <pt x="86" y="41" on="1"/>
        <pt x="160" y="44" on="0"/>
        <pt x="227" y="70" on="0"/>
        <pt x="252" y="140" on="0"/>
        <pt x="252" y="217" on="1"/>
        <pt x="252" y="1233" on="1"/>
        <pt x="252" y="1310" on="0"/>
        <pt x="227" y="1380" on="0"/>
        <pt x="160" y="1406" on="0"/>
        <pt x="86" y="1409" on="1"/>
        <pt x="86" y="1450" on="1"/>
        <pt x="171" y="1444" on="0"/>
        <pt x="348" y="1444" on="1"/>
        <pt x="514" y="1444" on="0"/>
        <pt x="608" y="1450" on="1"/>
        <pt x="608" y="1409" on="1"/>
        <pt x="534" y="1406" on="0"/>
        <pt x="467" y="1380" on="0"/>
        <pt x="442" y="1310" on="0"/>
        <pt x="442" y="1233" on="1"/>
        <pt x="442" y="774" on="1"/>
        <pt x="590" y="779" on="0"/>
        <pt x="676" y="889" on="1"/>
        <pt x="872" y="1139" on="1"/>
        <pt x="977" y="1272" on="0"/>
        <pt x="977" y="1335" on="1"/>
        <pt x="977" y="1406" on="0"/>
        <pt x="850" y="1409" on="1"/>
        <pt x="850" y="1450" on="1"/>
        <pt x="967" y="1444" on="0"/>
        <pt x="1085" y="1444" on="1"/>
        <pt x="1199" y="1444" on="0"/>
        <pt x="1260" y="1450" on="1"/>
        <pt x="1260" y="1409" on="1"/>
        <pt x="1192" y="1399" on="0"/>
        <pt x="1073" y="1331" on="0"/>
        <pt x="1018" y="1260" on="1"/>
        <pt x="684" y="832" on="1"/>
        <pt x="1159" y="166" on="1"/>
      </contour>
    </TTGlyph>
    <TTGlyph name="Kcommaaccent" xMin="86" yMin="-494" xMax="1339" yMax="1450">
      <component glyphName=".ttfautohint" x="86" y="0" flags="0x0"/>
      <component glyphName="K" x="0" y="0" flags="0x0"/>
      <component glyphName="commaaccentcomb.case" x="494" y="0" flags="0x0"/>
    </TTGlyph>
    <TTGlyph name="L" xMin="86" yMin="0" xMax="1149" yMax="1450">
      <contour>
        <pt x="534" y="1406" on="0"/>
        <pt x="467" y="1380" on="0"/>
        <pt x="442" y="1310" on="0"/>
        <pt x="442" y="1233" on="1"/>
        <pt x="442" y="217" on="1"/>
        <pt x="442" y="140" on="0"/>
        <pt x="467" y="71" on="0"/>
        <pt x="534" y="47" on="0"/>
        <pt x="608" y="47" on="1"/>
        <pt x="758" y="47" on="1"/>
        <pt x="886" y="47" on="0"/>
        <pt x="1019" y="119" on="0"/>
        <pt x="1078" y="277" on="0"/>
        <pt x="1094" y="430" on="1"/>
        <pt x="1141" y="430" on="1"/>
        <pt x="1135" y="366" on="0"/>
        <pt x="1135" y="262" on="1"/>
        <pt x="1135" y="146" on="0"/>
        <pt x="1149" y="0" on="1"/>
        <pt x="1010" y="6" on="0"/>
        <pt x="680" y="6" on="1"/>
        <pt x="287" y="6" on="0"/>
        <pt x="86" y="0" on="1"/>
        <pt x="86" y="41" on="1"/>
        <pt x="160" y="44" on="0"/>
        <pt x="227" y="70" on="0"/>
        <pt x="252" y="140" on="0"/>
        <pt x="252" y="217" on="1"/>
        <pt x="252" y="1233" on="1"/>
        <pt x="252" y="1310" on="0"/>
        <pt x="227" y="1380" on="0"/>
        <pt x="160" y="1406" on="0"/>
        <pt x="86" y="1409" on="1"/>
        <pt x="86" y="1450" on="1"/>
        <pt x="171" y="1444" on="0"/>
        <pt x="348" y="1444" on="1"/>
        <pt x="514" y="1444" on="0"/>
        <pt x="608" y="1450" on="1"/>
        <pt x="608" y="1409" on="1"/>
      </contour>
    </TTGlyph>
    <TTGlyph name="Lacute" xMin="86" yMin="0" xMax="1149" yMax="1916">
      <component glyphName=".ttfautohint" x="86" y="0" flags="0x0"/>
      <component glyphName="L" x="0" y="0" flags="0x0"/>
      <component glyphName="acute.case" x="182" y="0" flags="0x0"/>
    </TTGlyph>
    <TTGlyph name="Lcaron" xMin="86" yMin="0" xMax="1149" yMax="1462">
      <component glyphName=".ttfautohint" x="86" y="0" flags="0x0"/>
      <component glyphName="L" x="0" y="0" flags="0x0"/>
      <component glyphName="hacek.case" x="608" y="0" flags="0x0"/>
    </TTGlyph>
    <TTGlyph name="Lcommaaccent" xMin="86" yMin="-494" xMax="1149" yMax="1450">
      <component glyphName=".ttfautohint" x="86" y="0" flags="0x0"/>
      <component glyphName="L" x="0" y="0" flags="0x0"/>
      <component glyphName="commaaccentcomb.case" x="465" y="0" flags="0x0"/>
    </TTGlyph>
    <TTGlyph name="Ldot" xMin="86" yMin="0" xMax="1212" yMax="1450">
      <component glyphName=".ttfautohint" x="86" y="0" flags="0x0"/>
      <component glyphName="L" x="0" y="0" flags="0x0"/>
      <component glyphName="period" x="823" y="627" flags="0x0"/>
    </TTGlyph>
    <TTGlyph name="Lslash" xMin="86" yMin="0" xMax="1149" yMax="1450">
      <contour>
        <pt x="1135" y="146" on="0"/>
        <pt x="1149" y="0" on="1"/>
        <pt x="1010" y="6" on="0"/>
        <pt x="680" y="6" on="1"/>
        <pt x="287" y="6" on="0"/>
        <pt x="86" y="0" on="1"/>
        <pt x="86" y="41" on="1"/>
        <pt x="160" y="44" on="0"/>
        <pt x="227" y="70" on="0"/>
        <pt x="252" y="140" on="0"/>
        <pt x="252" y="217" on="1"/>
        <pt x="252" y="526" on="1"/>
        <pt x="86" y="430" on="1"/>
        <pt x="86" y="477" on="1"/>
        <pt x="252" y="573" on="1"/>
        <pt x="252" y="1233" on="1"/>
        <pt x="252" y="1310" on="0"/>
        <pt x="227" y="1380" on="0"/>
        <pt x="160" y="1406" on="0"/>
        <pt x="86" y="1409" on="1"/>
        <pt x="86" y="1450" on="1"/>
        <pt x="171" y="1444" on="0"/>
        <pt x="348" y="1444" on="1"/>
        <pt x="514" y="1444" on="0"/>
        <pt x="608" y="1450" on="1"/>
        <pt x="608" y="1409" on="1"/>
        <pt x="534" y="1406" on="0"/>
        <pt x="467" y="1380" on="0"/>
        <pt x="442" y="1310" on="0"/>
        <pt x="442" y="1233" on="1"/>
        <pt x="442" y="663" on="1"/>
        <pt x="969" y="969" on="1"/>
        <pt x="969" y="922" on="1"/>
        <pt x="442" y="616" on="1"/>
        <pt x="442" y="217" on="1"/>
        <pt x="442" y="140" on="0"/>
        <pt x="467" y="71" on="0"/>
        <pt x="534" y="47" on="0"/>
        <pt x="608" y="47" on="1"/>
        <pt x="758" y="47" on="1"/>
        <pt x="886" y="47" on="0"/>
        <pt x="1019" y="119" on="0"/>
        <pt x="1078" y="277" on="0"/>
        <pt x="1094" y="430" on="1"/>
        <pt x="1141" y="430" on="1"/>
        <pt x="1135" y="366" on="0"/>
        <pt x="1135" y="262" on="1"/>
      </contour>
    </TTGlyph>
    <TTGlyph name="M" xMin="86" yMin="-10" xMax="1698" yMax="1450">
      <contour>
        <pt x="1624" y="1406" on="0"/>
        <pt x="1557" y="1380" on="0"/>
        <pt x="1532" y="1310" on="0"/>
        <pt x="1532" y="1233" on="1"/>
        <pt x="1532" y="217" on="1"/>
        <pt x="1532" y="140" on="0"/>
        <pt x="1557" y="70" on="0"/>
        <pt x="1624" y="44" on="0"/>
        <pt x="1698" y="41" on="1"/>
        <pt x="1698" y="0" on="1"/>
        <pt x="1602" y="6" on="0"/>
        <pt x="1438" y="6" on="1"/>
        <pt x="1262" y="6" on="0"/>
        <pt x="1176" y="0" on="1"/>
        <pt x="1176" y="41" on="1"/>
        <pt x="1250" y="44" on="0"/>
        <pt x="1316" y="70" on="0"/>
        <pt x="1341" y="140" on="0"/>
        <pt x="1341" y="217" on="1"/>
        <pt x="1341" y="1313" on="1"/>
        <pt x="848" y="-10" on="1"/>
        <pt x="815" y="-10" on="1"/>
        <pt x="299" y="1319" on="1"/>
        <pt x="299" y="238" on="1"/>
        <pt x="299" y="159" on="0"/>
        <pt x="327" y="79" on="0"/>
        <pt x="404" y="44" on="0"/>
        <pt x="485" y="41" on="1"/>
        <pt x="485" y="0" on="1"/>
        <pt x="412" y="6" on="0"/>
        <pt x="276" y="6" on="1"/>
        <pt x="154" y="6" on="0"/>
        <pt x="86" y="0" on="1"/>
        <pt x="86" y="41" on="1"/>
        <pt x="157" y="44" on="0"/>
        <pt x="226" y="79" on="0"/>
        <pt x="252" y="159" on="0"/>
        <pt x="252" y="238" on="1"/>
        <pt x="252" y="1233" on="1"/>
        <pt x="252" y="1310" on="0"/>
        <pt x="227" y="1380" on="0"/>
        <pt x="160" y="1406" on="0"/>
        <pt x="86" y="1409" on="1"/>
        <pt x="86" y="1450" on="1"/>
        <pt x="153" y="1444" on="0"/>
        <pt x="276" y="1444" on="1"/>
        <pt x="384" y="1444" on="0"/>
        <pt x="451" y="1450" on="1"/>
        <pt x="901" y="262" on="1"/>
        <pt x="1341" y="1444" on="1"/>
        <pt x="1438" y="1444" on="1"/>
        <pt x="1602" y="1444" on="0"/>
        <pt x="1698" y="1450" on="1"/>
        <pt x="1698" y="1409" on="1"/>
      </contour>
    </TTGlyph>
    <TTGlyph name="N" xMin="86" yMin="-10" xMax="1372" yMax="1450">
      <contour>
        <pt x="1301" y="1406" on="0"/>
        <pt x="1232" y="1371" on="0"/>
        <pt x="1206" y="1291" on="0"/>
        <pt x="1206" y="1212" on="1"/>
        <pt x="1206" y="-10" on="1"/>
        <pt x="1159" y="-10" on="1"/>
        <pt x="299" y="1319" on="1"/>
        <pt x="299" y="238" on="1"/>
        <pt x="299" y="159" on="0"/>
        <pt x="327" y="79" on="0"/>
        <pt x="404" y="44" on="0"/>
        <pt x="485" y="41" on="1"/>
        <pt x="485" y="0" on="1"/>
        <pt x="412" y="6" on="0"/>
        <pt x="276" y="6" on="1"/>
        <pt x="154" y="6" on="0"/>
        <pt x="86" y="0" on="1"/>
        <pt x="86" y="41" on="1"/>
        <pt x="157" y="44" on="0"/>
        <pt x="226" y="79" on="0"/>
        <pt x="252" y="159" on="0"/>
        <pt x="252" y="238" on="1"/>
        <pt x="252" y="1233" on="1"/>
        <pt x="252" y="1310" on="0"/>
        <pt x="227" y="1380" on="0"/>
        <pt x="160" y="1406" on="0"/>
        <pt x="86" y="1409" on="1"/>
        <pt x="86" y="1450" on="1"/>
        <pt x="153" y="1444" on="0"/>
        <pt x="276" y="1444" on="1"/>
        <pt x="368" y="1444" on="0"/>
        <pt x="436" y="1450" on="1"/>
        <pt x="1159" y="336" on="1"/>
        <pt x="1159" y="1212" on="1"/>
        <pt x="1159" y="1291" on="0"/>
        <pt x="1132" y="1371" on="0"/>
        <pt x="1054" y="1406" on="0"/>
        <pt x="973" y="1409" on="1"/>
        <pt x="973" y="1450" on="1"/>
        <pt x="1046" y="1444" on="0"/>
        <pt x="1182" y="1444" on="1"/>
        <pt x="1304" y="1444" on="0"/>
        <pt x="1372" y="1450" on="1"/>
        <pt x="1372" y="1409" on="1"/>
      </contour>
    </TTGlyph>
    <TTGlyph name="Nacute" xMin="86" yMin="-10" xMax="1372" yMax="1916">
      <component glyphName=".ttfautohint" x="86" y="0" flags="0x0"/>
      <component glyphName="N" x="0" y="0" flags="0x0"/>
      <component glyphName="acute.case" x="600" y="0" flags="0x0"/>
    </TTGlyph>
    <TTGlyph name="Nacute.loclPLK" xMin="86" yMin="-10" xMax="1372" yMax="1920">
      <component glyphName=".ttfautohint" x="86" y="0" flags="0x0"/>
      <component glyphName="N" x="0" y="0" flags="0x0"/>
      <component glyphName="acute.loclPLK.case" x="657" y="0" flags="0x0"/>
    </TTGlyph>
    <TTGlyph name="Ncaron" xMin="86" yMin="-10" xMax="1372" yMax="1896">
      <component glyphName=".ttfautohint" x="86" y="0" flags="0x0"/>
      <component glyphName="N" x="0" y="0" flags="0x0"/>
      <component glyphName="caron.case" x="328" y="0" flags="0x0"/>
    </TTGlyph>
    <TTGlyph name="Ncommaaccent" xMin="86" yMin="-494" xMax="1372" yMax="1450">
      <component glyphName=".ttfautohint" x="86" y="0" flags="0x0"/>
      <component glyphName="N" x="0" y="0" flags="0x0"/>
      <component glyphName="commaaccentcomb.case" x="537" y="0" flags="0x0"/>
    </TTGlyph>
    <TTGlyph name="Ntilde" xMin="86" yMin="-10" xMax="1372" yMax="1847">
      <component glyphName=".ttfautohint" x="86" y="0" flags="0x0"/>
      <component glyphName="N" x="0" y="0" flags="0x0"/>
      <component glyphName="tilde.case" x="281" y="0" flags="0x0"/>
    </TTGlyph>
    <TTGlyph name="O" xMin="109" yMin="-29" xMax="1409" yMax="1479">
      <contour>
        <pt x="955" y="1479" on="0"/>
        <pt x="1248" y="1303" on="0"/>
        <pt x="1409" y="968" on="0"/>
        <pt x="1409" y="737" on="1"/>
        <pt x="1409" y="511" on="0"/>
        <pt x="1243" y="163" on="0"/>
        <pt x="947" y="-29" on="0"/>
        <pt x="758" y="-29" on="1"/>
        <pt x="563" y="-29" on="0"/>
        <pt x="270" y="147" on="0"/>
        <pt x="109" y="482" on="0"/>
        <pt x="109" y="713" on="1"/>
        <pt x="109" y="939" on="0"/>
        <pt x="275" y="1287" on="0"/>
        <pt x="571" y="1479" on="0"/>
        <pt x="760" y="1479" on="1"/>
      </contour>
      <contour>
        <pt x="621" y="1442" on="0"/>
        <pt x="421" y="1259" on="0"/>
        <pt x="313" y="932" on="0"/>
        <pt x="313" y="721" on="1"/>
        <pt x="313" y="508" on="0"/>
        <pt x="433" y="184" on="0"/>
        <pt x="640" y="8" on="0"/>
        <pt x="766" y="8" on="1"/>
        <pt x="897" y="8" on="0"/>
        <pt x="1096" y="191" on="0"/>
        <pt x="1204" y="518" on="0"/>
        <pt x="1204" y="729" on="1"/>
        <pt x="1204" y="942" on="0"/>
        <pt x="1084" y="1266" on="0"/>
        <pt x="878" y="1442" on="0"/>
        <pt x="752" y="1442" on="1"/>
      </contour>
    </TTGlyph>
    <TTGlyph name="OE" xMin="109" yMin="-29" xMax="1802" yMax="1479">
      <contour>
        <pt x="1788" y="146" on="0"/>
        <pt x="1802" y="0" on="1"/>
        <pt x="1675" y="6" on="0"/>
        <pt x="1374" y="6" on="1"/>
        <pt x="1087" y="6" on="0"/>
        <pt x="926" y="2" on="1"/>
        <pt x="842" y="-29" on="0"/>
        <pt x="758" y="-29" on="1"/>
        <pt x="563" y="-29" on="0"/>
        <pt x="270" y="147" on="0"/>
        <pt x="109" y="482" on="0"/>
        <pt x="109" y="713" on="1"/>
        <pt x="109" y="939" on="0"/>
        <pt x="275" y="1287" on="0"/>
        <pt x="571" y="1479" on="0"/>
        <pt x="760" y="1479" on="1"/>
        <pt x="855" y="1479" on="0"/>
        <pt x="940" y="1448" on="1"/>
        <pt x="1104" y="1444" on="0"/>
        <pt x="1374" y="1444" on="1"/>
        <pt x="1647" y="1444" on="0"/>
        <pt x="1761" y="1450" on="1"/>
        <pt x="1747" y="1316" on="0"/>
        <pt x="1747" y="1208" on="1"/>
        <pt x="1747" y="1128" on="0"/>
        <pt x="1753" y="1081" on="1"/>
        <pt x="1706" y="1081" on="1"/>
        <pt x="1691" y="1214" on="0"/>
        <pt x="1646" y="1344" on="0"/>
        <pt x="1540" y="1403" on="0"/>
        <pt x="1432" y="1403" on="1"/>
        <pt x="1364" y="1403" on="1"/>
        <pt x="1290" y="1403" on="0"/>
        <pt x="1223" y="1379" on="0"/>
        <pt x="1198" y="1310" on="0"/>
        <pt x="1198" y="1233" on="1"/>
        <pt x="1198" y="750" on="1"/>
        <pt x="1286" y="750" on="1"/>
        <pt x="1357" y="750" on="0"/>
        <pt x="1434" y="808" on="0"/>
        <pt x="1462" y="886" on="0"/>
        <pt x="1471" y="944" on="1"/>
        <pt x="1477" y="979" on="1"/>
        <pt x="1524" y="979" on="1"/>
        <pt x="1517" y="896" on="0"/>
        <pt x="1517" y="820" on="1"/>
        <pt x="1518" y="729" on="1"/>
        <pt x="1518" y="641" on="0"/>
        <pt x="1530" y="479" on="1"/>
        <pt x="1483" y="479" on="1"/>
        <pt x="1479" y="505" on="1"/>
        <pt x="1470" y="573" on="0"/>
        <pt x="1442" y="654" on="0"/>
        <pt x="1363" y="709" on="0"/>
        <pt x="1286" y="709" on="1"/>
        <pt x="1198" y="709" on="1"/>
        <pt x="1198" y="217" on="1"/>
        <pt x="1198" y="140" on="0"/>
        <pt x="1223" y="71" on="0"/>
        <pt x="1290" y="47" on="0"/>
        <pt x="1364" y="47" on="1"/>
        <pt x="1411" y="47" on="1"/>
        <pt x="1539" y="47" on="0"/>
        <pt x="1672" y="115" on="0"/>
        <pt x="1731" y="265" on="0"/>
        <pt x="1747" y="410" on="1"/>
        <pt x="1794" y="410" on="1"/>
        <pt x="1788" y="355" on="0"/>
        <pt x="1788" y="262" on="1"/>
      </contour>
      <contour>
        <pt x="1008" y="1339" on="0"/>
        <pt x="865" y="1442" on="0"/>
        <pt x="752" y="1442" on="1"/>
        <pt x="621" y="1442" on="0"/>
        <pt x="421" y="1259" on="0"/>
        <pt x="313" y="932" on="0"/>
        <pt x="313" y="721" on="1"/>
        <pt x="313" y="508" on="0"/>
        <pt x="433" y="184" on="0"/>
        <pt x="640" y="8" on="0"/>
        <pt x="766" y="8" on="1"/>
        <pt x="823" y="8" on="0"/>
        <pt x="935" y="53" on="0"/>
        <pt x="1008" y="147" on="0"/>
        <pt x="1008" y="217" on="1"/>
        <pt x="1008" y="1233" on="1"/>
      </contour>
    </TTGlyph>
    <TTGlyph name="Oacute" xMin="109" yMin="-29" xMax="1409" yMax="1916">
      <component glyphName=".ttfautohint" x="109" y="0" flags="0x0"/>
      <component glyphName="O" x="0" y="0" flags="0x0"/>
      <component glyphName="acute.case" x="590" y="0" flags="0x0"/>
    </TTGlyph>
    <TTGlyph name="Oacute.loclPLK" xMin="109" yMin="-29" xMax="1409" yMax="1920">
      <component glyphName=".ttfautohint" x="109" y="0" flags="0x0"/>
      <component glyphName="O" x="0" y="0" flags="0x0"/>
      <component glyphName="acute.loclPLK.case" x="647" y="0" flags="0x0"/>
    </TTGlyph>
    <TTGlyph name="Obreve" xMin="109" yMin="-29" xMax="1409" yMax="1862">
      <component glyphName=".ttfautohint" x="109" y="0" flags="0x0"/>
      <component glyphName="O" x="0" y="0" flags="0x0"/>
      <component glyphName="breve.case" x="297" y="0" flags="0x0"/>
    </TTGlyph>
    <TTGlyph name="Ocircumflex" xMin="109" yMin="-29" xMax="1409" yMax="1876">
      <component glyphName=".ttfautohint" x="109" y="0" flags="0x0"/>
      <component glyphName="O" x="0" y="0" flags="0x0"/>
      <component glyphName="circumflex.case" x="324" y="0" flags="0x0"/>
    </TTGlyph>
    <TTGlyph name="Odieresis" xMin="109" yMin="-29" xMax="1409" yMax="1819">
      <component glyphName=".ttfautohint" x="109" y="0" flags="0x0"/>
      <component glyphName="O" x="0" y="0" flags="0x0"/>
      <component glyphName="dieresis.case" x="369" y="0" flags="0x0"/>
    </TTGlyph>
    <TTGlyph name="Ograve" xMin="109" yMin="-29" xMax="1409" yMax="1916">
      <component glyphName=".ttfautohint" x="109" y="0" flags="0x0"/>
      <component glyphName="O" x="0" y="0" flags="0x0"/>
      <component glyphName="grave.case" x="371" y="0" flags="0x0"/>
    </TTGlyph>
    <TTGlyph name="Ohungarumlaut" xMin="109" yMin="-29" xMax="1409" yMax="1918">
      <component glyphName=".ttfautohint" x="109" y="0" flags="0x0"/>
      <component glyphName="O" x="0" y="0" flags="0x0"/>
      <component glyphName="hungarumlaut.case" x="340" y="0" flags="0x0"/>
    </TTGlyph>
    <TTGlyph name="Omacron" xMin="109" yMin="-29" xMax="1409" yMax="1729">
      <component glyphName=".ttfautohint" x="109" y="0" flags="0x0"/>
      <component glyphName="O" x="0" y="0" flags="0x0"/>
      <component glyphName="macron.case" x="344" y="0" flags="0x0"/>
    </TTGlyph>
    <TTGlyph name="Omega" xMin="141" yMin="0" xMax="1321" yMax="1479">
      <contour>
        <pt x="920" y="1479" on="0"/>
        <pt x="1184" y="1357" on="0"/>
        <pt x="1321" y="1127" on="0"/>
        <pt x="1321" y="967" on="1"/>
        <pt x="1321" y="852" on="0"/>
        <pt x="1255" y="651" on="0"/>
        <pt x="1154" y="485" on="0"/>
        <pt x="1066" y="360" on="1"/>
        <pt x="992" y="254" on="0"/>
        <pt x="907" y="124" on="0"/>
        <pt x="866" y="47" on="1"/>
        <pt x="965" y="47" on="1"/>
        <pt x="1066" y="47" on="0"/>
        <pt x="1186" y="112" on="0"/>
        <pt x="1248" y="259" on="0"/>
        <pt x="1260" y="389" on="1"/>
        <pt x="1307" y="389" on="1"/>
        <pt x="1300" y="324" on="0"/>
        <pt x="1300" y="242" on="1"/>
        <pt x="1300" y="144" on="0"/>
        <pt x="1315" y="0" on="1"/>
        <pt x="1255" y="6" on="0"/>
        <pt x="1106" y="6" on="1"/>
        <pt x="1034" y="6" on="0"/>
        <pt x="945" y="3" on="1"/>
        <pt x="815" y="0" on="1"/>
        <pt x="815" y="33" on="1"/>
        <pt x="929" y="203" on="0"/>
        <pt x="1116" y="664" on="0"/>
        <pt x="1116" y="926" on="1"/>
        <pt x="1116" y="1179" on="0"/>
        <pt x="936" y="1442" on="0"/>
        <pt x="731" y="1442" on="1"/>
        <pt x="527" y="1442" on="0"/>
        <pt x="346" y="1179" on="0"/>
        <pt x="346" y="926" on="1"/>
        <pt x="346" y="664" on="0"/>
        <pt x="533" y="203" on="0"/>
        <pt x="647" y="33" on="1"/>
        <pt x="647" y="0" on="1"/>
        <pt x="517" y="3" on="1"/>
        <pt x="428" y="6" on="0"/>
        <pt x="356" y="6" on="1"/>
        <pt x="207" y="6" on="0"/>
        <pt x="147" y="0" on="1"/>
        <pt x="162" y="131" on="0"/>
        <pt x="162" y="242" on="1"/>
        <pt x="162" y="334" on="0"/>
        <pt x="156" y="389" on="1"/>
        <pt x="203" y="389" on="1"/>
        <pt x="214" y="259" on="0"/>
        <pt x="276" y="112" on="0"/>
        <pt x="396" y="47" on="0"/>
        <pt x="498" y="47" on="1"/>
        <pt x="596" y="47" on="1"/>
        <pt x="530" y="171" on="0"/>
        <pt x="395" y="361" on="1"/>
        <pt x="306" y="487" on="0"/>
        <pt x="207" y="652" on="0"/>
        <pt x="141" y="852" on="0"/>
        <pt x="141" y="967" on="1"/>
        <pt x="141" y="1127" on="0"/>
        <pt x="278" y="1357" on="0"/>
        <pt x="542" y="1479" on="0"/>
        <pt x="731" y="1479" on="1"/>
      </contour>
    </TTGlyph>
    <TTGlyph name="Oslash" xMin="109" yMin="-150" xMax="1409" yMax="1583">
      <contour>
        <pt x="1298" y="1224" on="0"/>
        <pt x="1409" y="928" on="0"/>
        <pt x="1409" y="737" on="1"/>
        <pt x="1409" y="511" on="0"/>
        <pt x="1243" y="163" on="0"/>
        <pt x="947" y="-29" on="0"/>
        <pt x="758" y="-29" on="1"/>
        <pt x="524" y="-29" on="0"/>
        <pt x="360" y="98" on="1"/>
        <pt x="193" y="-150" on="1"/>
        <pt x="150" y="-121" on="1"/>
        <pt x="322" y="131" on="1"/>
        <pt x="219" y="228" on="0"/>
        <pt x="109" y="523" on="0"/>
        <pt x="109" y="713" on="1"/>
        <pt x="109" y="939" on="0"/>
        <pt x="275" y="1287" on="0"/>
        <pt x="571" y="1479" on="0"/>
        <pt x="760" y="1479" on="1"/>
        <pt x="996" y="1479" on="0"/>
        <pt x="1158" y="1352" on="1"/>
        <pt x="1317" y="1583" on="1"/>
        <pt x="1356" y="1556" on="1"/>
        <pt x="1195" y="1320" on="1"/>
      </contour>
      <contour>
        <pt x="621" y="1442" on="0"/>
        <pt x="421" y="1259" on="0"/>
        <pt x="313" y="932" on="0"/>
        <pt x="313" y="721" on="1"/>
        <pt x="313" y="442" on="0"/>
        <pt x="416" y="249" on="1"/>
        <pt x="1073" y="1248" on="1"/>
        <pt x="1012" y="1341" on="0"/>
        <pt x="846" y="1442" on="0"/>
        <pt x="752" y="1442" on="1"/>
      </contour>
      <contour>
        <pt x="897" y="8" on="0"/>
        <pt x="1096" y="191" on="0"/>
        <pt x="1204" y="518" on="0"/>
        <pt x="1204" y="729" on="1"/>
        <pt x="1204" y="1011" on="0"/>
        <pt x="1101" y="1201" on="1"/>
        <pt x="446" y="200" on="1"/>
        <pt x="507" y="107" on="0"/>
        <pt x="672" y="8" on="0"/>
        <pt x="766" y="8" on="1"/>
      </contour>
    </TTGlyph>
    <TTGlyph name="Otilde" xMin="109" yMin="-29" xMax="1409" yMax="1847">
      <component glyphName=".ttfautohint" x="109" y="0" flags="0x0"/>
      <component glyphName="O" x="0" y="0" flags="0x0"/>
      <component glyphName="tilde.case" x="271" y="0" flags="0x0"/>
    </TTGlyph>
    <TTGlyph name="P" xMin="86" yMin="0" xMax="1139" yMax="1450">
      <contour>
        <pt x="442" y="217" on="1"/>
        <pt x="442" y="140" on="0"/>
        <pt x="474" y="70" on="0"/>
        <pt x="558" y="44" on="0"/>
        <pt x="649" y="41" on="1"/>
        <pt x="649" y="0" on="1"/>
        <pt x="543" y="6" on="0"/>
        <pt x="348" y="6" on="1"/>
        <pt x="172" y="6" on="0"/>
        <pt x="86" y="0" on="1"/>
        <pt x="86" y="41" on="1"/>
        <pt x="160" y="44" on="0"/>
        <pt x="227" y="70" on="0"/>
        <pt x="252" y="140" on="0"/>
        <pt x="252" y="217" on="1"/>
        <pt x="252" y="1233" on="1"/>
        <pt x="252" y="1310" on="0"/>
        <pt x="227" y="1380" on="0"/>
        <pt x="160" y="1406" on="0"/>
        <pt x="86" y="1409" on="1"/>
        <pt x="86" y="1450" on="1"/>
        <pt x="171" y="1444" on="0"/>
        <pt x="336" y="1444" on="1"/>
        <pt x="372" y="1444" on="0"/>
        <pt x="558" y="1447" on="1"/>
        <pt x="645" y="1448" on="1"/>
        <pt x="806" y="1448" on="0"/>
        <pt x="1028" y="1347" on="0"/>
        <pt x="1139" y="1165" on="0"/>
        <pt x="1139" y="1044" on="1"/>
        <pt x="1139" y="932" on="0"/>
        <pt x="1039" y="724" on="0"/>
        <pt x="798" y="586" on="0"/>
        <pt x="600" y="586" on="1"/>
        <pt x="442" y="586" on="1"/>
      </contour>
      <contour>
        <pt x="530" y="1409" on="0"/>
        <pt x="466" y="1380" on="0"/>
        <pt x="442" y="1306" on="0"/>
        <pt x="442" y="1233" on="1"/>
        <pt x="442" y="627" on="1"/>
        <pt x="580" y="627" on="1"/>
        <pt x="780" y="627" on="0"/>
        <pt x="934" y="841" on="0"/>
        <pt x="934" y="1022" on="1"/>
        <pt x="934" y="1154" on="0"/>
        <pt x="866" y="1324" on="0"/>
        <pt x="717" y="1409" on="0"/>
        <pt x="594" y="1409" on="1"/>
      </contour>
    </TTGlyph>
    <TTGlyph name="Q" xMin="109" yMin="-385" xMax="1563" yMax="1479">
      <contour>
        <pt x="1517" y="-216" on="0"/>
        <pt x="1434" y="-293" on="1"/>
        <pt x="1332" y="-385" on="0"/>
        <pt x="1157" y="-385" on="1"/>
        <pt x="1090" y="-385" on="0"/>
        <pt x="959" y="-354" on="0"/>
        <pt x="838" y="-308" on="0"/>
        <pt x="746" y="-267" on="1"/>
        <pt x="581" y="-195" on="0"/>
        <pt x="498" y="-168" on="1"/>
        <pt x="475" y="-161" on="0"/>
        <pt x="470" y="-160" on="1"/>
        <pt x="449" y="-154" on="1"/>
        <pt x="359" y="-184" on="0"/>
        <pt x="279" y="-184" on="1"/>
        <pt x="184" y="-184" on="0"/>
        <pt x="184" y="-143" on="1"/>
        <pt x="184" y="-100" on="0"/>
        <pt x="295" y="-100" on="1"/>
        <pt x="369" y="-100" on="0"/>
        <pt x="449" y="-117" on="1"/>
        <pt x="512" y="-100" on="0"/>
        <pt x="597" y="-61" on="1"/>
        <pt x="641" y="-40" on="0"/>
        <pt x="680" y="-25" on="1"/>
        <pt x="507" y="-8" on="0"/>
        <pt x="250" y="177" on="0"/>
        <pt x="109" y="498" on="0"/>
        <pt x="109" y="713" on="1"/>
        <pt x="109" y="939" on="0"/>
        <pt x="275" y="1287" on="0"/>
        <pt x="571" y="1479" on="0"/>
        <pt x="760" y="1479" on="1"/>
        <pt x="955" y="1479" on="0"/>
        <pt x="1248" y="1303" on="0"/>
        <pt x="1409" y="968" on="0"/>
        <pt x="1409" y="737" on="1"/>
        <pt x="1409" y="524" on="0"/>
        <pt x="1261" y="190" on="0"/>
        <pt x="995" y="-10" on="0"/>
        <pt x="823" y="-26" on="1"/>
        <pt x="823" y="-27" on="1"/>
        <pt x="773" y="-32" on="0"/>
        <pt x="696" y="-58" on="0"/>
        <pt x="643" y="-81" on="1"/>
        <pt x="571" y="-112" on="0"/>
        <pt x="520" y="-127" on="1"/>
        <pt x="745" y="-172" on="0"/>
        <pt x="1064" y="-225" on="0"/>
        <pt x="1169" y="-225" on="1"/>
        <pt x="1315" y="-225" on="0"/>
        <pt x="1485" y="-140" on="0"/>
        <pt x="1532" y="-47" on="1"/>
        <pt x="1563" y="-59" on="1"/>
      </contour>
      <contour>
        <pt x="313" y="508" on="0"/>
        <pt x="433" y="184" on="0"/>
        <pt x="640" y="8" on="0"/>
        <pt x="766" y="8" on="1"/>
        <pt x="897" y="8" on="0"/>
        <pt x="1096" y="191" on="0"/>
        <pt x="1204" y="518" on="0"/>
        <pt x="1204" y="729" on="1"/>
        <pt x="1204" y="942" on="0"/>
        <pt x="1084" y="1266" on="0"/>
        <pt x="878" y="1442" on="0"/>
        <pt x="752" y="1442" on="1"/>
        <pt x="621" y="1442" on="0"/>
        <pt x="421" y="1259" on="0"/>
        <pt x="313" y="932" on="0"/>
        <pt x="313" y="721" on="1"/>
      </contour>
    </TTGlyph>
    <TTGlyph name="R" xMin="86" yMin="-29" xMax="1352" yMax="1450">
      <contour>
        <pt x="1304" y="33" on="0"/>
        <pt x="1210" y="-29" on="0"/>
        <pt x="1133" y="-29" on="1"/>
        <pt x="1049" y="-29" on="0"/>
        <pt x="941" y="69" on="0"/>
        <pt x="913" y="193" on="1"/>
        <pt x="868" y="397" on="1"/>
        <pt x="844" y="504" on="0"/>
        <pt x="801" y="619" on="0"/>
        <pt x="714" y="688" on="0"/>
        <pt x="637" y="688" on="1"/>
        <pt x="442" y="688" on="1"/>
        <pt x="442" y="217" on="1"/>
        <pt x="442" y="140" on="0"/>
        <pt x="467" y="70" on="0"/>
        <pt x="534" y="44" on="0"/>
        <pt x="608" y="41" on="1"/>
        <pt x="608" y="0" on="1"/>
        <pt x="514" y="6" on="0"/>
        <pt x="348" y="6" on="1"/>
        <pt x="172" y="6" on="0"/>
        <pt x="86" y="0" on="1"/>
        <pt x="86" y="41" on="1"/>
        <pt x="160" y="44" on="0"/>
        <pt x="227" y="70" on="0"/>
        <pt x="252" y="140" on="0"/>
        <pt x="252" y="217" on="1"/>
        <pt x="252" y="1233" on="1"/>
        <pt x="252" y="1310" on="0"/>
        <pt x="227" y="1380" on="0"/>
        <pt x="160" y="1406" on="0"/>
        <pt x="86" y="1409" on="1"/>
        <pt x="86" y="1450" on="1"/>
        <pt x="172" y="1444" on="0"/>
        <pt x="336" y="1444" on="1"/>
        <pt x="372" y="1444" on="0"/>
        <pt x="558" y="1447" on="1"/>
        <pt x="645" y="1448" on="1"/>
        <pt x="805" y="1448" on="0"/>
        <pt x="1027" y="1355" on="0"/>
        <pt x="1139" y="1194" on="0"/>
        <pt x="1139" y="1092" on="1"/>
        <pt x="1139" y="1012" on="0"/>
        <pt x="1063" y="849" on="0"/>
        <pt x="885" y="720" on="0"/>
        <pt x="741" y="698" on="1"/>
        <pt x="766" y="694" on="1"/>
        <pt x="858" y="679" on="0"/>
        <pt x="968" y="618" on="0"/>
        <pt x="1033" y="512" on="0"/>
        <pt x="1053" y="424" on="1"/>
        <pt x="1104" y="215" on="1"/>
        <pt x="1117" y="152" on="0"/>
        <pt x="1144" y="81" on="0"/>
        <pt x="1181" y="47" on="0"/>
        <pt x="1209" y="47" on="1"/>
        <pt x="1243" y="47" on="0"/>
        <pt x="1287" y="82" on="0"/>
        <pt x="1321" y="125" on="1"/>
        <pt x="1352" y="102" on="1"/>
      </contour>
      <contour>
        <pt x="530" y="1409" on="0"/>
        <pt x="466" y="1380" on="0"/>
        <pt x="442" y="1306" on="0"/>
        <pt x="442" y="1233" on="1"/>
        <pt x="442" y="729" on="1"/>
        <pt x="580" y="729" on="1"/>
        <pt x="718" y="729" on="0"/>
        <pt x="874" y="817" on="0"/>
        <pt x="934" y="965" on="0"/>
        <pt x="934" y="1069" on="1"/>
        <pt x="934" y="1237" on="0"/>
        <pt x="774" y="1409" on="0"/>
        <pt x="594" y="1409" on="1"/>
      </contour>
    </TTGlyph>
    <TTGlyph name="Racute" xMin="86" yMin="-29" xMax="1352" yMax="1916">
      <component glyphName=".ttfautohint" x="86" y="0" flags="0x0"/>
      <component glyphName="R" x="0" y="0" flags="0x0"/>
      <component glyphName="acute.case" x="440" y="0" flags="0x0"/>
    </TTGlyph>
    <TTGlyph name="Rcaron" xMin="86" yMin="-29" xMax="1352" yMax="1896">
      <component glyphName=".ttfautohint" x="86" y="0" flags="0x0"/>
      <component glyphName="R" x="0" y="0" flags="0x0"/>
      <component glyphName="caron.case" x="168" y="0" flags="0x0"/>
    </TTGlyph>
    <TTGlyph name="Rcommaaccent" xMin="86" yMin="-494" xMax="1352" yMax="1450">
      <component glyphName=".ttfautohint" x="86" y="0" flags="0x0"/>
      <component glyphName="R" x="0" y="0" flags="0x0"/>
      <component glyphName="commaaccentcomb.case" x="475" y="0" flags="0x0"/>
    </TTGlyph>
    <TTGlyph name="S" xMin="129" yMin="-29" xMax="1006" yMax="1473">
      <contour>
        <pt x="587" y="1473" on="0"/>
        <pt x="678" y="1452" on="0"/>
        <pt x="738" y="1421" on="0"/>
        <pt x="774" y="1397" on="1"/>
        <pt x="820" y="1368" on="0"/>
        <pt x="844" y="1368" on="1"/>
        <pt x="863" y="1368" on="0"/>
        <pt x="883" y="1411" on="0"/>
        <pt x="889" y="1458" on="1"/>
        <pt x="936" y="1458" on="1"/>
        <pt x="926" y="1338" on="0"/>
        <pt x="926" y="1040" on="1"/>
        <pt x="879" y="1040" on="1"/>
        <pt x="871" y="1145" on="0"/>
        <pt x="796" y="1323" on="0"/>
        <pt x="651" y="1434" on="0"/>
        <pt x="543" y="1434" on="1"/>
        <pt x="471" y="1434" on="0"/>
        <pt x="357" y="1374" on="0"/>
        <pt x="293" y="1266" on="0"/>
        <pt x="293" y="1196" on="1"/>
        <pt x="293" y="1118" on="0"/>
        <pt x="364" y="1004" on="0"/>
        <pt x="475" y="920" on="0"/>
        <pt x="576" y="858" on="1"/>
        <pt x="637" y="821" on="1"/>
        <pt x="766" y="740" on="0"/>
        <pt x="916" y="621" on="0"/>
        <pt x="1006" y="464" on="0"/>
        <pt x="1006" y="360" on="1"/>
        <pt x="1006" y="234" on="0"/>
        <pt x="890" y="59" on="0"/>
        <pt x="693" y="-29" on="0"/>
        <pt x="571" y="-29" on="1"/>
        <pt x="473" y="-29" on="0"/>
        <pt x="347" y="12" on="0"/>
        <pt x="291" y="47" on="1"/>
        <pt x="245" y="76" on="0"/>
        <pt x="221" y="76" on="1"/>
        <pt x="202" y="76" on="0"/>
        <pt x="182" y="33" on="0"/>
        <pt x="176" y="-14" on="1"/>
        <pt x="129" y="-14" on="1"/>
        <pt x="137" y="98" on="0"/>
        <pt x="137" y="477" on="1"/>
        <pt x="184" y="477" on="1"/>
        <pt x="198" y="269" on="0"/>
        <pt x="374" y="12" on="0"/>
        <pt x="557" y="12" on="1"/>
        <pt x="627" y="12" on="0"/>
        <pt x="748" y="70" on="0"/>
        <pt x="823" y="193" on="0"/>
        <pt x="823" y="285" on="1"/>
        <pt x="823" y="364" on="0"/>
        <pt x="746" y="489" on="0"/>
        <pt x="614" y="593" on="0"/>
        <pt x="504" y="659" on="1"/>
        <pt x="382" y="732" on="0"/>
        <pt x="234" y="848" on="0"/>
        <pt x="139" y="1009" on="0"/>
        <pt x="139" y="1118" on="1"/>
        <pt x="139" y="1234" on="0"/>
        <pt x="244" y="1394" on="0"/>
        <pt x="419" y="1473" on="0"/>
        <pt x="524" y="1473" on="1"/>
      </contour>
    </TTGlyph>
    <TTGlyph name="Sacute" xMin="129" yMin="-29" xMax="1006" yMax="1916">
      <component glyphName=".ttfautohint" x="129" y="0" flags="0x0"/>
      <component glyphName="S" x="0" y="0" flags="0x0"/>
      <component glyphName="acute.case" x="397" y="0" flags="0x0"/>
    </TTGlyph>
    <TTGlyph name="Sacute.loclPLK" xMin="129" yMin="-29" xMax="1006" yMax="1920">
      <component glyphName=".ttfautohint" x="129" y="0" flags="0x0"/>
      <component glyphName="S" x="0" y="0" flags="0x0"/>
      <component glyphName="acute.loclPLK.case" x="454" y="0" flags="0x0"/>
    </TTGlyph>
    <TTGlyph name="Scaron" xMin="129" yMin="-29" xMax="1006" yMax="1896">
      <component glyphName=".ttfautohint" x="129" y="0" flags="0x0"/>
      <component glyphName="S" x="0" y="0" flags="0x0"/>
      <component glyphName="caron.case" x="125" y="0" flags="0x0"/>
    </TTGlyph>
    <TTGlyph name="Scedilla" xMin="129" yMin="-385" xMax="1006" yMax="1473">
      <contour>
        <pt x="1006" y="239" on="0"/>
        <pt x="898" y="67" on="0"/>
        <pt x="712" y="-24" on="0"/>
        <pt x="596" y="-29" on="1"/>
        <pt x="555" y="-147" on="1"/>
        <pt x="616" y="-133" on="0"/>
        <pt x="676" y="-133" on="1"/>
        <pt x="734" y="-133" on="0"/>
        <pt x="801" y="-184" on="0"/>
        <pt x="801" y="-229" on="1"/>
        <pt x="801" y="-283" on="0"/>
        <pt x="730" y="-353" on="0"/>
        <pt x="624" y="-385" on="0"/>
        <pt x="570" y="-385" on="1"/>
        <pt x="465" y="-385" on="0"/>
        <pt x="400" y="-362" on="1"/>
        <pt x="408" y="-326" on="1"/>
        <pt x="450" y="-332" on="0"/>
        <pt x="486" y="-332" on="1"/>
        <pt x="560" y="-332" on="0"/>
        <pt x="670" y="-289" on="0"/>
        <pt x="670" y="-240" on="1"/>
        <pt x="670" y="-182" on="0"/>
        <pt x="584" y="-182" on="1"/>
        <pt x="526" y="-182" on="0"/>
        <pt x="484" y="-197" on="1"/>
        <pt x="540" y="-28" on="1"/>
        <pt x="456" y="-25" on="0"/>
        <pt x="343" y="15" on="0"/>
        <pt x="291" y="47" on="1"/>
        <pt x="245" y="76" on="0"/>
        <pt x="221" y="76" on="1"/>
        <pt x="202" y="76" on="0"/>
        <pt x="182" y="33" on="0"/>
        <pt x="176" y="-14" on="1"/>
        <pt x="129" y="-14" on="1"/>
        <pt x="137" y="98" on="0"/>
        <pt x="137" y="477" on="1"/>
        <pt x="184" y="477" on="1"/>
        <pt x="198" y="269" on="0"/>
        <pt x="374" y="12" on="0"/>
        <pt x="557" y="12" on="1"/>
        <pt x="627" y="12" on="0"/>
        <pt x="748" y="70" on="0"/>
        <pt x="823" y="193" on="0"/>
        <pt x="823" y="285" on="1"/>
        <pt x="823" y="364" on="0"/>
        <pt x="746" y="489" on="0"/>
        <pt x="614" y="593" on="0"/>
        <pt x="504" y="659" on="1"/>
        <pt x="382" y="732" on="0"/>
        <pt x="234" y="848" on="0"/>
        <pt x="139" y="1009" on="0"/>
        <pt x="139" y="1118" on="1"/>
        <pt x="139" y="1234" on="0"/>
        <pt x="244" y="1394" on="0"/>
        <pt x="419" y="1473" on="0"/>
        <pt x="524" y="1473" on="1"/>
        <pt x="587" y="1473" on="0"/>
        <pt x="678" y="1452" on="0"/>
        <pt x="738" y="1421" on="0"/>
        <pt x="774" y="1397" on="1"/>
        <pt x="820" y="1368" on="0"/>
        <pt x="844" y="1368" on="1"/>
        <pt x="863" y="1368" on="0"/>
        <pt x="883" y="1411" on="0"/>
        <pt x="889" y="1458" on="1"/>
        <pt x="936" y="1458" on="1"/>
        <pt x="926" y="1338" on="0"/>
        <pt x="926" y="1040" on="1"/>
        <pt x="879" y="1040" on="1"/>
        <pt x="871" y="1145" on="0"/>
        <pt x="796" y="1323" on="0"/>
        <pt x="651" y="1434" on="0"/>
        <pt x="543" y="1434" on="1"/>
        <pt x="471" y="1434" on="0"/>
        <pt x="357" y="1374" on="0"/>
        <pt x="293" y="1266" on="0"/>
        <pt x="293" y="1196" on="1"/>
        <pt x="293" y="1118" on="0"/>
        <pt x="364" y="1004" on="0"/>
        <pt x="475" y="920" on="0"/>
        <pt x="576" y="858" on="1"/>
        <pt x="637" y="821" on="1"/>
        <pt x="766" y="740" on="0"/>
        <pt x="916" y="621" on="0"/>
        <pt x="1006" y="464" on="0"/>
        <pt x="1006" y="360" on="1"/>
      </contour>
    </TTGlyph>
    <TTGlyph name="Scircumflex" xMin="129" yMin="-29" xMax="1006" yMax="1876">
      <component glyphName=".ttfautohint" x="129" y="0" flags="0x0"/>
      <component glyphName="S" x="0" y="0" flags="0x0"/>
      <component glyphName="circumflex.case" x="131" y="0" flags="0x0"/>
    </TTGlyph>
    <TTGlyph name="Scommaaccent" xMin="129" yMin="-494" xMax="1006" yMax="1473">
      <component glyphName=".ttfautohint" x="129" y="0" flags="0x0"/>
      <component glyphName="S" x="0" y="0" flags="0x0"/>
      <component glyphName="commaaccentcomb.case" x="371" y="0" flags="0x0"/>
    </TTGlyph>
    <TTGlyph name="T" xMin="59" yMin="0" xMax="1212" yMax="1450">
      <contour>
        <pt x="1198" y="1304" on="0"/>
        <pt x="1198" y="1188" on="1"/>
        <pt x="1198" y="1085" on="0"/>
        <pt x="1204" y="1020" on="1"/>
        <pt x="1157" y="1020" on="1"/>
        <pt x="1141" y="1179" on="0"/>
        <pt x="1092" y="1332" on="0"/>
        <pt x="969" y="1403" on="0"/>
        <pt x="842" y="1403" on="1"/>
        <pt x="731" y="1403" on="1"/>
        <pt x="731" y="238" on="1"/>
        <pt x="731" y="153" on="0"/>
        <pt x="763" y="74" on="0"/>
        <pt x="847" y="44" on="0"/>
        <pt x="938" y="41" on="1"/>
        <pt x="938" y="0" on="1"/>
        <pt x="830" y="6" on="0"/>
        <pt x="637" y="6" on="1"/>
        <pt x="432" y="6" on="0"/>
        <pt x="334" y="0" on="1"/>
        <pt x="334" y="41" on="1"/>
        <pt x="425" y="44" on="0"/>
        <pt x="509" y="74" on="0"/>
        <pt x="541" y="153" on="0"/>
        <pt x="541" y="238" on="1"/>
        <pt x="541" y="1403" on="1"/>
        <pt x="430" y="1403" on="1"/>
        <pt x="303" y="1403" on="0"/>
        <pt x="180" y="1332" on="0"/>
        <pt x="131" y="1179" on="0"/>
        <pt x="115" y="1020" on="1"/>
        <pt x="68" y="1020" on="1"/>
        <pt x="74" y="1085" on="0"/>
        <pt x="74" y="1188" on="1"/>
        <pt x="74" y="1308" on="0"/>
        <pt x="59" y="1450" on="1"/>
        <pt x="229" y="1444" on="0"/>
        <pt x="637" y="1444" on="1"/>
        <pt x="1042" y="1444" on="0"/>
        <pt x="1212" y="1450" on="1"/>
      </contour>
    </TTGlyph>
    <TTGlyph name="Tbar" xMin="63" yMin="0" xMax="1216" yMax="1450">
      <contour>
        <pt x="1202" y="1304" on="0"/>
        <pt x="1202" y="1188" on="1"/>
        <pt x="1202" y="1085" on="0"/>
        <pt x="1208" y="1020" on="1"/>
        <pt x="1161" y="1020" on="1"/>
        <pt x="1145" y="1179" on="0"/>
        <pt x="1096" y="1332" on="0"/>
        <pt x="973" y="1403" on="0"/>
        <pt x="846" y="1403" on="1"/>
        <pt x="735" y="1403" on="1"/>
        <pt x="735" y="750" on="1"/>
        <pt x="1063" y="750" on="1"/>
        <pt x="1063" y="709" on="1"/>
        <pt x="735" y="709" on="1"/>
        <pt x="735" y="238" on="1"/>
        <pt x="735" y="153" on="0"/>
        <pt x="767" y="74" on="0"/>
        <pt x="851" y="44" on="0"/>
        <pt x="942" y="41" on="1"/>
        <pt x="942" y="0" on="1"/>
        <pt x="834" y="6" on="0"/>
        <pt x="641" y="6" on="1"/>
        <pt x="436" y="6" on="0"/>
        <pt x="338" y="0" on="1"/>
        <pt x="338" y="41" on="1"/>
        <pt x="429" y="44" on="0"/>
        <pt x="513" y="74" on="0"/>
        <pt x="545" y="153" on="0"/>
        <pt x="545" y="238" on="1"/>
        <pt x="545" y="709" on="1"/>
        <pt x="215" y="709" on="1"/>
        <pt x="215" y="750" on="1"/>
        <pt x="545" y="750" on="1"/>
        <pt x="545" y="1403" on="1"/>
        <pt x="434" y="1403" on="1"/>
        <pt x="307" y="1403" on="0"/>
        <pt x="184" y="1332" on="0"/>
        <pt x="135" y="1179" on="0"/>
        <pt x="119" y="1020" on="1"/>
        <pt x="72" y="1020" on="1"/>
        <pt x="78" y="1085" on="0"/>
        <pt x="78" y="1188" on="1"/>
        <pt x="78" y="1308" on="0"/>
        <pt x="63" y="1450" on="1"/>
        <pt x="233" y="1444" on="0"/>
        <pt x="641" y="1444" on="1"/>
        <pt x="1046" y="1444" on="0"/>
        <pt x="1216" y="1450" on="1"/>
      </contour>
    </TTGlyph>
    <TTGlyph name="Tcaron" xMin="59" yMin="0" xMax="1212" yMax="1896">
      <component glyphName=".ttfautohint" x="59" y="0" flags="0x0"/>
      <component glyphName="T" x="0" y="0" flags="0x0"/>
      <component glyphName="caron.case" x="199" y="0" flags="0x0"/>
    </TTGlyph>
    <TTGlyph name="Tcedilla" xMin="59" yMin="-385" xMax="1212" yMax="1450">
      <contour>
        <pt x="1198" y="1304" on="0"/>
        <pt x="1198" y="1188" on="1"/>
        <pt x="1198" y="1085" on="0"/>
        <pt x="1204" y="1020" on="1"/>
        <pt x="1157" y="1020" on="1"/>
        <pt x="1141" y="1179" on="0"/>
        <pt x="1092" y="1332" on="0"/>
        <pt x="969" y="1403" on="0"/>
        <pt x="842" y="1403" on="1"/>
        <pt x="731" y="1403" on="1"/>
        <pt x="731" y="238" on="1"/>
        <pt x="731" y="153" on="0"/>
        <pt x="763" y="74" on="0"/>
        <pt x="847" y="44" on="0"/>
        <pt x="938" y="41" on="1"/>
        <pt x="938" y="0" on="1"/>
        <pt x="837" y="6" on="0"/>
        <pt x="659" y="6" on="1"/>
        <pt x="606" y="-147" on="1"/>
        <pt x="667" y="-133" on="0"/>
        <pt x="727" y="-133" on="1"/>
        <pt x="785" y="-133" on="0"/>
        <pt x="852" y="-184" on="0"/>
        <pt x="852" y="-229" on="1"/>
        <pt x="852" y="-283" on="0"/>
        <pt x="781" y="-353" on="0"/>
        <pt x="675" y="-385" on="0"/>
        <pt x="621" y="-385" on="1"/>
        <pt x="516" y="-385" on="0"/>
        <pt x="451" y="-362" on="1"/>
        <pt x="459" y="-326" on="1"/>
        <pt x="501" y="-332" on="0"/>
        <pt x="537" y="-332" on="1"/>
        <pt x="611" y="-332" on="0"/>
        <pt x="721" y="-289" on="0"/>
        <pt x="721" y="-240" on="1"/>
        <pt x="721" y="-182" on="0"/>
        <pt x="635" y="-182" on="1"/>
        <pt x="577" y="-182" on="0"/>
        <pt x="535" y="-197" on="1"/>
        <pt x="603" y="6" on="1"/>
        <pt x="423" y="6" on="0"/>
        <pt x="334" y="0" on="1"/>
        <pt x="334" y="41" on="1"/>
        <pt x="425" y="44" on="0"/>
        <pt x="509" y="74" on="0"/>
        <pt x="541" y="153" on="0"/>
        <pt x="541" y="238" on="1"/>
        <pt x="541" y="1403" on="1"/>
        <pt x="430" y="1403" on="1"/>
        <pt x="303" y="1403" on="0"/>
        <pt x="180" y="1332" on="0"/>
        <pt x="131" y="1179" on="0"/>
        <pt x="115" y="1020" on="1"/>
        <pt x="68" y="1020" on="1"/>
        <pt x="74" y="1085" on="0"/>
        <pt x="74" y="1188" on="1"/>
        <pt x="74" y="1308" on="0"/>
        <pt x="59" y="1450" on="1"/>
        <pt x="229" y="1444" on="0"/>
        <pt x="637" y="1444" on="1"/>
        <pt x="1042" y="1444" on="0"/>
        <pt x="1212" y="1450" on="1"/>
      </contour>
    </TTGlyph>
    <TTGlyph name="Thorn" xMin="86" yMin="0" xMax="1124" yMax="1450">
      <contour>
        <pt x="442" y="217" on="1"/>
        <pt x="442" y="140" on="0"/>
        <pt x="467" y="70" on="0"/>
        <pt x="534" y="44" on="0"/>
        <pt x="608" y="41" on="1"/>
        <pt x="608" y="0" on="1"/>
        <pt x="514" y="6" on="0"/>
        <pt x="348" y="6" on="1"/>
        <pt x="172" y="6" on="0"/>
        <pt x="86" y="0" on="1"/>
        <pt x="86" y="41" on="1"/>
        <pt x="160" y="44" on="0"/>
        <pt x="227" y="70" on="0"/>
        <pt x="252" y="140" on="0"/>
        <pt x="252" y="217" on="1"/>
        <pt x="252" y="1233" on="1"/>
        <pt x="252" y="1310" on="0"/>
        <pt x="227" y="1380" on="0"/>
        <pt x="160" y="1406" on="0"/>
        <pt x="86" y="1409" on="1"/>
        <pt x="86" y="1450" on="1"/>
        <pt x="172" y="1444" on="0"/>
        <pt x="348" y="1444" on="1"/>
        <pt x="514" y="1444" on="0"/>
        <pt x="608" y="1450" on="1"/>
        <pt x="608" y="1409" on="1"/>
        <pt x="534" y="1406" on="0"/>
        <pt x="467" y="1380" on="0"/>
        <pt x="442" y="1310" on="0"/>
        <pt x="442" y="1233" on="1"/>
        <pt x="442" y="1142" on="1"/>
        <pt x="484" y="1142" on="0"/>
        <pt x="544" y="1144" on="1"/>
        <pt x="631" y="1145" on="1"/>
        <pt x="791" y="1145" on="0"/>
        <pt x="1013" y="1041" on="0"/>
        <pt x="1124" y="860" on="0"/>
        <pt x="1124" y="745" on="1"/>
        <pt x="1124" y="629" on="0"/>
        <pt x="1025" y="420" on="0"/>
        <pt x="784" y="283" on="0"/>
        <pt x="586" y="283" on="1"/>
        <pt x="442" y="283" on="1"/>
      </contour>
      <contour>
        <pt x="534" y="1106" on="0"/>
        <pt x="442" y="1104" on="1"/>
        <pt x="442" y="324" on="1"/>
        <pt x="565" y="324" on="1"/>
        <pt x="766" y="324" on="0"/>
        <pt x="920" y="544" on="0"/>
        <pt x="920" y="733" on="1"/>
        <pt x="920" y="921" on="0"/>
        <pt x="761" y="1106" on="0"/>
        <pt x="580" y="1106" on="1"/>
      </contour>
    </TTGlyph>
    <TTGlyph name="U" xMin="55" yMin="-29" xMax="1341" yMax="1450">
      <contour>
        <pt x="1270" y="1406" on="0"/>
        <pt x="1201" y="1371" on="0"/>
        <pt x="1176" y="1291" on="0"/>
        <pt x="1176" y="1212" on="1"/>
        <pt x="1176" y="596" on="1"/>
        <pt x="1176" y="449" on="0"/>
        <pt x="1137" y="238" on="0"/>
        <pt x="1092" y="162" on="1"/>
        <pt x="1040" y="74" on="0"/>
        <pt x="841" y="-29" on="0"/>
        <pt x="717" y="-29" on="1"/>
        <pt x="492" y="-29" on="0"/>
        <pt x="373" y="82" on="1"/>
        <pt x="312" y="139" on="0"/>
        <pt x="247" y="266" on="0"/>
        <pt x="221" y="446" on="0"/>
        <pt x="221" y="590" on="1"/>
        <pt x="221" y="1233" on="1"/>
        <pt x="221" y="1310" on="0"/>
        <pt x="196" y="1380" on="0"/>
        <pt x="129" y="1406" on="0"/>
        <pt x="55" y="1409" on="1"/>
        <pt x="55" y="1450" on="1"/>
        <pt x="142" y="1444" on="0"/>
        <pt x="317" y="1444" on="1"/>
        <pt x="482" y="1444" on="0"/>
        <pt x="578" y="1450" on="1"/>
        <pt x="578" y="1409" on="1"/>
        <pt x="504" y="1406" on="0"/>
        <pt x="437" y="1380" on="0"/>
        <pt x="412" y="1310" on="0"/>
        <pt x="412" y="1233" on="1"/>
        <pt x="412" y="555" on="1"/>
        <pt x="412" y="391" on="0"/>
        <pt x="456" y="175" on="0"/>
        <pt x="597" y="43" on="0"/>
        <pt x="735" y="43" on="1"/>
        <pt x="952" y="43" on="0"/>
        <pt x="1128" y="321" on="0"/>
        <pt x="1128" y="573" on="1"/>
        <pt x="1128" y="1212" on="1"/>
        <pt x="1128" y="1288" on="0"/>
        <pt x="1093" y="1370" on="0"/>
        <pt x="1014" y="1406" on="0"/>
        <pt x="942" y="1409" on="1"/>
        <pt x="942" y="1450" on="1"/>
        <pt x="1016" y="1444" on="0"/>
        <pt x="1151" y="1444" on="1"/>
        <pt x="1274" y="1444" on="0"/>
        <pt x="1341" y="1450" on="1"/>
        <pt x="1341" y="1409" on="1"/>
      </contour>
    </TTGlyph>
    <TTGlyph name="Uacute" xMin="55" yMin="-29" xMax="1341" yMax="1916">
      <component glyphName=".ttfautohint" x="55" y="0" flags="0x0"/>
      <component glyphName="U" x="0" y="0" flags="0x0"/>
      <component glyphName="acute.case" x="555" y="0" flags="0x0"/>
    </TTGlyph>
    <TTGlyph name="Ubreve" xMin="55" yMin="-29" xMax="1341" yMax="1862">
      <component glyphName=".ttfautohint" x="55" y="0" flags="0x0"/>
      <component glyphName="U" x="0" y="0" flags="0x0"/>
      <component glyphName="breve.case" x="262" y="0" flags="0x0"/>
    </TTGlyph>
    <TTGlyph name="Ucircumflex" xMin="55" yMin="-29" xMax="1341" yMax="1876">
      <component glyphName=".ttfautohint" x="55" y="0" flags="0x0"/>
      <component glyphName="U" x="0" y="0" flags="0x0"/>
      <component glyphName="circumflex.case" x="289" y="0" flags="0x0"/>
    </TTGlyph>
    <TTGlyph name="Udieresis" xMin="55" yMin="-29" xMax="1341" yMax="1819">
      <component glyphName=".ttfautohint" x="55" y="0" flags="0x0"/>
      <component glyphName="U" x="0" y="0" flags="0x0"/>
      <component glyphName="dieresis.case" x="334" y="0" flags="0x0"/>
    </TTGlyph>
    <TTGlyph name="Ugrave" xMin="55" yMin="-29" xMax="1341" yMax="1916">
      <component glyphName=".ttfautohint" x="55" y="0" flags="0x0"/>
      <component glyphName="U" x="0" y="0" flags="0x0"/>
      <component glyphName="grave.case" x="336" y="0" flags="0x0"/>
    </TTGlyph>
    <TTGlyph name="Uhungarumlaut" xMin="55" yMin="-29" xMax="1341" yMax="1918">
      <component glyphName=".ttfautohint" x="55" y="0" flags="0x0"/>
      <component glyphName="U" x="0" y="0" flags="0x0"/>
      <component glyphName="hungarumlaut.case" x="305" y="0" flags="0x0"/>
    </TTGlyph>
    <TTGlyph name="Umacron" xMin="55" yMin="-29" xMax="1341" yMax="1729">
      <component glyphName=".ttfautohint" x="55" y="0" flags="0x0"/>
      <component glyphName="U" x="0" y="0" flags="0x0"/>
      <component glyphName="macron.case" x="309" y="0" flags="0x0"/>
    </TTGlyph>
    <TTGlyph name="Uogonek" xMin="55" yMin="-385" xMax="1341" yMax="1450">
      <contour>
        <pt x="1273" y="1444" on="0"/>
        <pt x="1341" y="1450" on="1"/>
        <pt x="1341" y="1409" on="1"/>
        <pt x="1270" y="1406" on="0"/>
        <pt x="1201" y="1371" on="0"/>
        <pt x="1176" y="1291" on="0"/>
        <pt x="1176" y="1212" on="1"/>
        <pt x="1176" y="596" on="1"/>
        <pt x="1176" y="449" on="0"/>
        <pt x="1137" y="238" on="0"/>
        <pt x="1092" y="162" on="1"/>
        <pt x="1054" y="97" on="0"/>
        <pt x="923" y="5" on="0"/>
        <pt x="839" y="-15" on="1"/>
        <pt x="761" y="-48" on="0"/>
        <pt x="690" y="-146" on="0"/>
        <pt x="690" y="-197" on="1"/>
        <pt x="690" y="-238" on="0"/>
        <pt x="737" y="-287" on="0"/>
        <pt x="778" y="-287" on="1"/>
        <pt x="815" y="-287" on="0"/>
        <pt x="882" y="-248" on="0"/>
        <pt x="903" y="-219" on="1"/>
        <pt x="933" y="-246" on="1"/>
        <pt x="842" y="-385" on="0"/>
        <pt x="702" y="-385" on="1"/>
        <pt x="629" y="-385" on="0"/>
        <pt x="540" y="-312" on="0"/>
        <pt x="540" y="-252" on="1"/>
        <pt x="540" y="-186" on="0"/>
        <pt x="640" y="-72" on="0"/>
        <pt x="734" y="-29" on="1"/>
        <pt x="717" y="-29" on="1"/>
        <pt x="492" y="-29" on="0"/>
        <pt x="373" y="82" on="1"/>
        <pt x="312" y="139" on="0"/>
        <pt x="247" y="266" on="0"/>
        <pt x="221" y="446" on="0"/>
        <pt x="221" y="590" on="1"/>
        <pt x="221" y="1233" on="1"/>
        <pt x="221" y="1310" on="0"/>
        <pt x="196" y="1380" on="0"/>
        <pt x="129" y="1406" on="0"/>
        <pt x="55" y="1409" on="1"/>
        <pt x="55" y="1450" on="1"/>
        <pt x="142" y="1444" on="0"/>
        <pt x="317" y="1444" on="1"/>
        <pt x="482" y="1444" on="0"/>
        <pt x="578" y="1450" on="1"/>
        <pt x="578" y="1409" on="1"/>
        <pt x="504" y="1406" on="0"/>
        <pt x="437" y="1380" on="0"/>
        <pt x="412" y="1310" on="0"/>
        <pt x="412" y="1233" on="1"/>
        <pt x="412" y="555" on="1"/>
        <pt x="412" y="391" on="0"/>
        <pt x="456" y="175" on="0"/>
        <pt x="597" y="43" on="0"/>
        <pt x="735" y="43" on="1"/>
        <pt x="952" y="43" on="0"/>
        <pt x="1128" y="321" on="0"/>
        <pt x="1128" y="573" on="1"/>
        <pt x="1128" y="1212" on="1"/>
        <pt x="1128" y="1288" on="0"/>
        <pt x="1093" y="1370" on="0"/>
        <pt x="1014" y="1406" on="0"/>
        <pt x="942" y="1409" on="1"/>
        <pt x="942" y="1450" on="1"/>
        <pt x="1015" y="1444" on="0"/>
        <pt x="1151" y="1444" on="1"/>
      </contour>
    </TTGlyph>
    <TTGlyph name="Uring" xMin="55" yMin="-29" xMax="1341" yMax="2017">
      <component glyphName=".ttfautohint" x="55" y="0" flags="0x0"/>
      <component glyphName="U" x="0" y="0" flags="0x0"/>
      <component glyphName="ring" x="453" y="397" flags="0x0"/>
    </TTGlyph>
    <TTGlyph name="Utilde" xMin="55" yMin="-29" xMax="1341" yMax="1847">
      <component glyphName=".ttfautohint" x="55" y="0" flags="0x0"/>
      <component glyphName="U" x="0" y="0" flags="0x0"/>
      <component glyphName="tilde.case" x="236" y="0" flags="0x0"/>
    </TTGlyph>
    <TTGlyph name="V" xMin="-12" yMin="-10" xMax="1305" yMax="1450">
      <contour>
        <pt x="1243" y="1444" on="0"/>
        <pt x="1305" y="1450" on="1"/>
        <pt x="1305" y="1409" on="1"/>
        <pt x="1202" y="1386" on="0"/>
        <pt x="1143" y="1231" on="1"/>
        <pt x="662" y="-10" on="1"/>
        <pt x="645" y="-10" on="1"/>
        <pt x="629" y="-10" on="1"/>
        <pt x="129" y="1278" on="1"/>
        <pt x="79" y="1405" on="0"/>
        <pt x="-12" y="1409" on="1"/>
        <pt x="-12" y="1450" on="1"/>
        <pt x="71" y="1444" on="0"/>
        <pt x="207" y="1444" on="1"/>
        <pt x="383" y="1444" on="0"/>
        <pt x="469" y="1450" on="1"/>
        <pt x="469" y="1409" on="1"/>
        <pt x="391" y="1406" on="0"/>
        <pt x="324" y="1374" on="0"/>
        <pt x="324" y="1333" on="1"/>
        <pt x="324" y="1299" on="0"/>
        <pt x="348" y="1237" on="1"/>
        <pt x="719" y="253" on="1"/>
        <pt x="1053" y="1118" on="1"/>
        <pt x="1094" y="1224" on="0"/>
        <pt x="1094" y="1285" on="1"/>
        <pt x="1094" y="1350" on="0"/>
        <pt x="1006" y="1407" on="0"/>
        <pt x="915" y="1409" on="1"/>
        <pt x="915" y="1450" on="1"/>
        <pt x="1032" y="1444" on="0"/>
        <pt x="1151" y="1444" on="1"/>
      </contour>
    </TTGlyph>
    <TTGlyph name="W" xMin="-14" yMin="-10" xMax="1858" yMax="1450">
      <contour>
        <pt x="1796" y="1444" on="0"/>
        <pt x="1858" y="1450" on="1"/>
        <pt x="1858" y="1409" on="1"/>
        <pt x="1744" y="1384" on="0"/>
        <pt x="1696" y="1231" on="1"/>
        <pt x="1309" y="-10" on="1"/>
        <pt x="1292" y="-10" on="1"/>
        <pt x="1276" y="-10" on="1"/>
        <pt x="920" y="1045" on="1"/>
        <pt x="594" y="-10" on="1"/>
        <pt x="578" y="-10" on="1"/>
        <pt x="561" y="-10" on="1"/>
        <pt x="127" y="1278" on="1"/>
        <pt x="83" y="1404" on="0"/>
        <pt x="-14" y="1409" on="1"/>
        <pt x="-14" y="1450" on="1"/>
        <pt x="68" y="1444" on="0"/>
        <pt x="205" y="1444" on="1"/>
        <pt x="352" y="1444" on="0"/>
        <pt x="426" y="1450" on="1"/>
        <pt x="426" y="1409" on="1"/>
        <pt x="372" y="1405" on="0"/>
        <pt x="326" y="1373" on="0"/>
        <pt x="326" y="1338" on="1"/>
        <pt x="326" y="1305" on="0"/>
        <pt x="348" y="1237" on="1"/>
        <pt x="648" y="324" on="1"/>
        <pt x="896" y="1117" on="1"/>
        <pt x="842" y="1278" on="1"/>
        <pt x="800" y="1405" on="0"/>
        <pt x="721" y="1409" on="1"/>
        <pt x="721" y="1450" on="1"/>
        <pt x="795" y="1444" on="0"/>
        <pt x="920" y="1444" on="1"/>
        <pt x="1095" y="1444" on="0"/>
        <pt x="1182" y="1450" on="1"/>
        <pt x="1182" y="1409" on="1"/>
        <pt x="1129" y="1407" on="0"/>
        <pt x="1073" y="1396" on="0"/>
        <pt x="1042" y="1366" on="0"/>
        <pt x="1042" y="1336" on="1"/>
        <pt x="1042" y="1302" on="0"/>
        <pt x="1063" y="1237" on="1"/>
        <pt x="1357" y="326" on="1"/>
        <pt x="1610" y="1118" on="1"/>
        <pt x="1643" y="1222" on="0"/>
        <pt x="1643" y="1283" on="1"/>
        <pt x="1643" y="1351" on="0"/>
        <pt x="1560" y="1407" on="0"/>
        <pt x="1468" y="1409" on="1"/>
        <pt x="1468" y="1450" on="1"/>
        <pt x="1585" y="1444" on="0"/>
        <pt x="1704" y="1444" on="1"/>
      </contour>
    </TTGlyph>
    <TTGlyph name="Wacute" xMin="-14" yMin="-10" xMax="1858" yMax="1916">
      <component glyphName=".ttfautohint" x="0" y="0" flags="0x0"/>
      <component glyphName="W" x="0" y="0" flags="0x0"/>
      <component glyphName="acute.case" x="784" y="0" flags="0x0"/>
    </TTGlyph>
    <TTGlyph name="Wcircumflex" xMin="-14" yMin="-10" xMax="1858" yMax="1876">
      <component glyphName=".ttfautohint" x="0" y="0" flags="0x0"/>
      <component glyphName="W" x="0" y="0" flags="0x0"/>
      <component glyphName="circumflex.case" x="518" y="0" flags="0x0"/>
    </TTGlyph>
    <TTGlyph name="Wdieresis" xMin="-14" yMin="-10" xMax="1858" yMax="1819">
      <component glyphName=".ttfautohint" x="0" y="0" flags="0x0"/>
      <component glyphName="W" x="0" y="0" flags="0x0"/>
      <component glyphName="dieresis.case" x="563" y="0" flags="0x0"/>
    </TTGlyph>
    <TTGlyph name="Wgrave" xMin="-14" yMin="-10" xMax="1858" yMax="1916">
      <component glyphName=".ttfautohint" x="0" y="0" flags="0x0"/>
      <component glyphName="W" x="0" y="0" flags="0x0"/>
      <component glyphName="grave.case" x="565" y="0" flags="0x0"/>
    </TTGlyph>
    <TTGlyph name="X" xMin="33" yMin="0" xMax="1284" yMax="1450">
      <contour>
        <pt x="1173" y="104" on="0"/>
        <pt x="1211" y="63" on="0"/>
        <pt x="1253" y="45" on="0"/>
        <pt x="1284" y="43" on="1"/>
        <pt x="1284" y="0" on="1"/>
        <pt x="1279" y="0" on="0"/>
        <pt x="1257" y="2" on="1"/>
        <pt x="1143" y="8" on="0"/>
        <pt x="1108" y="8" on="1"/>
        <pt x="1003" y="8" on="0"/>
        <pt x="856" y="1" on="1"/>
        <pt x="819" y="0" on="1"/>
        <pt x="819" y="43" on="1"/>
        <pt x="899" y="43" on="0"/>
        <pt x="965" y="57" on="0"/>
        <pt x="965" y="76" on="1"/>
        <pt x="965" y="91" on="0"/>
        <pt x="950" y="113" on="1"/>
        <pt x="600" y="649" on="1"/>
        <pt x="379" y="319" on="1"/>
        <pt x="301" y="203" on="0"/>
        <pt x="301" y="139" on="1"/>
        <pt x="301" y="87" on="0"/>
        <pt x="394" y="43" on="0"/>
        <pt x="483" y="41" on="1"/>
        <pt x="483" y="0" on="1"/>
        <pt x="367" y="6" on="0"/>
        <pt x="207" y="6" on="1"/>
        <pt x="94" y="6" on="0"/>
        <pt x="33" y="0" on="1"/>
        <pt x="33" y="41" on="1"/>
        <pt x="94" y="50" on="0"/>
        <pt x="205" y="142" on="0"/>
        <pt x="264" y="229" on="1"/>
        <pt x="573" y="690" on="1"/>
        <pt x="172" y="1305" on="1"/>
        <pt x="146" y="1346" on="0"/>
        <pt x="108" y="1387" on="0"/>
        <pt x="66" y="1405" on="0"/>
        <pt x="35" y="1407" on="1"/>
        <pt x="35" y="1450" on="1"/>
        <pt x="40" y="1450" on="0"/>
        <pt x="62" y="1448" on="1"/>
        <pt x="176" y="1442" on="0"/>
        <pt x="211" y="1442" on="1"/>
        <pt x="348" y="1442" on="0"/>
        <pt x="500" y="1450" on="1"/>
        <pt x="500" y="1407" on="1"/>
        <pt x="363" y="1407" on="0"/>
        <pt x="363" y="1362" on="1"/>
        <pt x="363" y="1346" on="0"/>
        <pt x="381" y="1317" on="1"/>
        <pt x="700" y="829" on="1"/>
        <pt x="901" y="1130" on="1"/>
        <pt x="990" y="1263" on="0"/>
        <pt x="990" y="1327" on="1"/>
        <pt x="990" y="1370" on="0"/>
        <pt x="911" y="1407" on="0"/>
        <pt x="831" y="1409" on="1"/>
        <pt x="831" y="1450" on="1"/>
        <pt x="948" y="1444" on="0"/>
        <pt x="1067" y="1444" on="1"/>
        <pt x="1179" y="1444" on="0"/>
        <pt x="1241" y="1450" on="1"/>
        <pt x="1241" y="1409" on="1"/>
        <pt x="1179" y="1400" on="0"/>
        <pt x="1068" y="1307" on="0"/>
        <pt x="1010" y="1221" on="1"/>
        <pt x="723" y="793" on="1"/>
        <pt x="1147" y="145" on="1"/>
      </contour>
    </TTGlyph>
    <TTGlyph name="Y" xMin="-6" yMin="0" xMax="1204" yMax="1450">
      <contour>
        <pt x="1143" y="1444" on="0"/>
        <pt x="1204" y="1450" on="1"/>
        <pt x="1204" y="1409" on="1"/>
        <pt x="1163" y="1400" on="0"/>
        <pt x="1085" y="1315" on="0"/>
        <pt x="1040" y="1227" on="1"/>
        <pt x="719" y="590" on="1"/>
        <pt x="719" y="217" on="1"/>
        <pt x="719" y="140" on="0"/>
        <pt x="744" y="70" on="0"/>
        <pt x="811" y="44" on="0"/>
        <pt x="885" y="41" on="1"/>
        <pt x="885" y="0" on="1"/>
        <pt x="789" y="6" on="0"/>
        <pt x="625" y="6" on="1"/>
        <pt x="449" y="6" on="0"/>
        <pt x="362" y="0" on="1"/>
        <pt x="362" y="41" on="1"/>
        <pt x="436" y="44" on="0"/>
        <pt x="503" y="70" on="0"/>
        <pt x="528" y="140" on="0"/>
        <pt x="528" y="217" on="1"/>
        <pt x="528" y="526" on="1"/>
        <pt x="113" y="1292" on="1"/>
        <pt x="75" y="1361" on="0"/>
        <pt x="20" y="1407" on="0"/>
        <pt x="-6" y="1407" on="1"/>
        <pt x="-6" y="1450" on="1"/>
        <pt x="74" y="1444" on="0"/>
        <pt x="174" y="1444" on="1"/>
        <pt x="373" y="1444" on="0"/>
        <pt x="461" y="1450" on="1"/>
        <pt x="461" y="1407" on="1"/>
        <pt x="317" y="1407" on="0"/>
        <pt x="317" y="1328" on="1"/>
        <pt x="317" y="1298" on="0"/>
        <pt x="338" y="1257" on="1"/>
        <pt x="679" y="604" on="1"/>
        <pt x="940" y="1124" on="1"/>
        <pt x="996" y="1237" on="0"/>
        <pt x="996" y="1300" on="1"/>
        <pt x="996" y="1358" on="0"/>
        <pt x="906" y="1407" on="0"/>
        <pt x="815" y="1409" on="1"/>
        <pt x="815" y="1450" on="1"/>
        <pt x="932" y="1444" on="0"/>
        <pt x="1051" y="1444" on="1"/>
      </contour>
    </TTGlyph>
    <TTGlyph name="Yacute" xMin="-6" yMin="0" xMax="1204" yMax="1916">
      <component glyphName=".ttfautohint" x="0" y="0" flags="0x0"/>
      <component glyphName="Y" x="0" y="0" flags="0x0"/>
      <component glyphName="acute.case" x="457" y="0" flags="0x0"/>
    </TTGlyph>
    <TTGlyph name="Ycircumflex" xMin="-6" yMin="0" xMax="1204" yMax="1876">
      <component glyphName=".ttfautohint" x="0" y="0" flags="0x0"/>
      <component glyphName="Y" x="0" y="0" flags="0x0"/>
      <component glyphName="circumflex.case" x="191" y="0" flags="0x0"/>
    </TTGlyph>
    <TTGlyph name="Ydieresis" xMin="-6" yMin="0" xMax="1204" yMax="1819">
      <component glyphName=".ttfautohint" x="0" y="0" flags="0x0"/>
      <component glyphName="Y" x="0" y="0" flags="0x0"/>
      <component glyphName="dieresis.case" x="236" y="0" flags="0x0"/>
    </TTGlyph>
    <TTGlyph name="Ygrave" xMin="-6" yMin="0" xMax="1204" yMax="1916">
      <component glyphName=".ttfautohint" x="0" y="0" flags="0x0"/>
      <component glyphName="Y" x="0" y="0" flags="0x0"/>
      <component glyphName="grave.case" x="238" y="0" flags="0x0"/>
    </TTGlyph>
    <TTGlyph name="Z" xMin="86" yMin="0" xMax="1126" yMax="1450">
      <contour>
        <pt x="279" y="47" on="1"/>
        <pt x="711" y="47" on="1"/>
        <pt x="839" y="47" on="0"/>
        <pt x="972" y="119" on="0"/>
        <pt x="1031" y="277" on="0"/>
        <pt x="1047" y="430" on="1"/>
        <pt x="1094" y="430" on="1"/>
        <pt x="1087" y="355" on="0"/>
        <pt x="1087" y="262" on="1"/>
        <pt x="1087" y="156" on="0"/>
        <pt x="1102" y="0" on="1"/>
        <pt x="950" y="6" on="0"/>
        <pt x="592" y="6" on="1"/>
        <pt x="242" y="6" on="0"/>
        <pt x="86" y="0" on="1"/>
        <pt x="86" y="41" on="1"/>
        <pt x="940" y="1403" on="1"/>
        <pt x="510" y="1403" on="1"/>
        <pt x="382" y="1403" on="0"/>
        <pt x="249" y="1331" on="0"/>
        <pt x="190" y="1173" on="0"/>
        <pt x="174" y="1020" on="1"/>
        <pt x="127" y="1020" on="1"/>
        <pt x="133" y="1085" on="0"/>
        <pt x="133" y="1188" on="1"/>
        <pt x="133" y="1304" on="0"/>
        <pt x="119" y="1450" on="1"/>
        <pt x="270" y="1444" on="0"/>
        <pt x="629" y="1444" on="1"/>
        <pt x="977" y="1444" on="0"/>
        <pt x="1126" y="1450" on="1"/>
        <pt x="1126" y="1409" on="1"/>
      </contour>
    </TTGlyph>
    <TTGlyph name="Zacute" xMin="86" yMin="0" xMax="1126" yMax="1916">
      <component glyphName=".ttfautohint" x="86" y="0" flags="0x0"/>
      <component glyphName="Z" x="0" y="0" flags="0x0"/>
      <component glyphName="acute.case" x="438" y="0" flags="0x0"/>
    </TTGlyph>
    <TTGlyph name="Zacute.loclPLK" xMin="86" yMin="0" xMax="1126" yMax="1920">
      <component glyphName=".ttfautohint" x="86" y="0" flags="0x0"/>
      <component glyphName="Z" x="0" y="0" flags="0x0"/>
      <component glyphName="acute.loclPLK.case" x="495" y="0" flags="0x0"/>
    </TTGlyph>
    <TTGlyph name="Zcaron" xMin="86" yMin="0" xMax="1126" yMax="1896">
      <component glyphName=".ttfautohint" x="86" y="0" flags="0x0"/>
      <component glyphName="Z" x="0" y="0" flags="0x0"/>
      <component glyphName="caron.case" x="166" y="0" flags="0x0"/>
    </TTGlyph>
    <TTGlyph name="Zdotaccent" xMin="86" yMin="0" xMax="1126" yMax="1964">
      <component glyphName=".ttfautohint" x="86" y="0" flags="0x0"/>
      <component glyphName="Z" x="0" y="0" flags="0x0"/>
      <component glyphName="dotaccent" x="401" y="397" flags="0x0"/>
    </TTGlyph>
    <TTGlyph name="a" xMin="-6" yMin="0" xMax="1268" yMax="1255">
      <contour>
        <pt x="1182" y="45" on="0"/>
        <pt x="1268" y="41" on="1"/>
        <pt x="1268" y="0" on="1"/>
        <pt x="1184" y="6" on="0"/>
        <pt x="1049" y="6" on="1"/>
        <pt x="873" y="6" on="0"/>
        <pt x="786" y="0" on="1"/>
        <pt x="786" y="41" on="1"/>
        <pt x="863" y="44" on="0"/>
        <pt x="933" y="76" on="0"/>
        <pt x="933" y="116" on="1"/>
        <pt x="933" y="153" on="0"/>
        <pt x="905" y="213" on="1"/>
        <pt x="802" y="446" on="1"/>
        <pt x="302" y="446" on="1"/>
        <pt x="233" y="293" on="1"/>
        <pt x="199" y="214" on="0"/>
        <pt x="199" y="162" on="1"/>
        <pt x="199" y="54" on="0"/>
        <pt x="358" y="41" on="1"/>
        <pt x="358" y="0" on="1"/>
        <pt x="297" y="6" on="0"/>
        <pt x="172" y="6" on="1"/>
        <pt x="47" y="6" on="0"/>
        <pt x="-6" y="0" on="1"/>
        <pt x="-6" y="41" on="1"/>
        <pt x="48" y="55" on="0"/>
        <pt x="128" y="152" on="0"/>
        <pt x="162" y="231" on="1"/>
        <pt x="614" y="1255" on="1"/>
        <pt x="647" y="1255" on="1"/>
        <pt x="1126" y="172" on="1"/>
      </contour>
      <contour>
        <pt x="553" y="1008" on="1"/>
        <pt x="320" y="487" on="1"/>
        <pt x="784" y="487" on="1"/>
      </contour>
    </TTGlyph>
    <TTGlyph name="aacute" xMin="-6" yMin="0" xMax="1268" yMax="1785">
      <component glyphName=".ttfautohint" x="0" y="0" flags="0x0"/>
      <component glyphName="a" x="0" y="0" flags="0x0"/>
      <component glyphName="acute.smcp" x="276" y="0" flags="0x0"/>
    </TTGlyph>
    <TTGlyph name="abreve" xMin="-6" yMin="0" xMax="1268" yMax="1696">
      <component glyphName=".ttfautohint" x="0" y="0" flags="0x0"/>
      <component glyphName="a" x="0" y="0" flags="0x0"/>
      <component glyphName="breve.smcp" x="147" y="0" flags="0x0"/>
    </TTGlyph>
    <TTGlyph name="acircumflex" xMin="-6" yMin="0" xMax="1268" yMax="1749">
      <component glyphName=".ttfautohint" x="0" y="0" flags="0x0"/>
      <component glyphName="a" x="0" y="0" flags="0x0"/>
      <component glyphName="circumflex.smcp" x="178" y="0" flags="0x0"/>
    </TTGlyph>
    <TTGlyph name="acute" xMin="41" yMin="1227" xMax="415" yMax="1680">
      <contour>
        <pt x="415" y="1642" on="0"/>
        <pt x="415" y="1608" on="1"/>
        <pt x="415" y="1575" on="0"/>
        <pt x="387" y="1538" on="1"/>
        <pt x="358" y="1501" on="0"/>
        <pt x="270" y="1424" on="1"/>
        <pt x="140" y="1308" on="0"/>
        <pt x="63" y="1227" on="1"/>
        <pt x="41" y="1245" on="1"/>
        <pt x="107" y="1348" on="0"/>
        <pt x="182" y="1494" on="1"/>
        <pt x="237" y="1599" on="0"/>
        <pt x="264" y="1634" on="1"/>
        <pt x="299" y="1680" on="0"/>
        <pt x="342" y="1680" on="1"/>
        <pt x="367" y="1680" on="0"/>
        <pt x="387" y="1665" on="1"/>
      </contour>
    </TTGlyph>
    <TTGlyph name="acute.case" xMin="41" yMin="1581" xMax="521" yMax="1916">
      <contour>
        <pt x="416" y="1916" on="0"/>
        <pt x="447" y="1916" on="1"/>
        <pt x="487" y="1916" on="0"/>
        <pt x="510" y="1882" on="1"/>
        <pt x="521" y="1863" on="0"/>
        <pt x="521" y="1844" on="1"/>
        <pt x="521" y="1799" on="0"/>
        <pt x="467" y="1763" on="1"/>
        <pt x="422" y="1736" on="0"/>
        <pt x="321" y="1698" on="1"/>
        <pt x="161" y="1634" on="0"/>
        <pt x="55" y="1581" on="1"/>
        <pt x="41" y="1608" on="1"/>
        <pt x="132" y="1677" on="0"/>
        <pt x="259" y="1792" on="1"/>
        <pt x="344" y="1870" on="0"/>
        <pt x="385" y="1896" on="1"/>
      </contour>
    </TTGlyph>
    <TTGlyph name="acute.loclPLK" xMin="51" yMin="1225" xMax="301" yMax="1682">
      <contour>
        <pt x="277" y="1666" on="0"/>
        <pt x="301" y="1630" on="0"/>
        <pt x="301" y="1605" on="1"/>
        <pt x="301" y="1581" on="0"/>
        <pt x="289" y="1552" on="1"/>
        <pt x="270" y="1511" on="0"/>
        <pt x="220" y="1443" on="1"/>
        <pt x="142" y="1340" on="0"/>
        <pt x="78" y="1225" on="1"/>
        <pt x="51" y="1237" on="1"/>
        <pt x="95" y="1365" on="0"/>
        <pt x="115" y="1496" on="1"/>
        <pt x="127" y="1574" on="0"/>
        <pt x="145" y="1616" on="1"/>
        <pt x="159" y="1649" on="0"/>
        <pt x="203" y="1682" on="0"/>
        <pt x="227" y="1682" on="1"/>
        <pt x="241" y="1682" on="0"/>
        <pt x="258" y="1675" on="1"/>
      </contour>
    </TTGlyph>
    <TTGlyph name="acute.loclPLK.case" xMin="51" yMin="1554" xMax="263" yMax="1920">
      <contour>
        <pt x="237" y="1903" on="0"/>
        <pt x="263" y="1865" on="0"/>
        <pt x="263" y="1842" on="1"/>
        <pt x="263" y="1825" on="0"/>
        <pt x="256" y="1808" on="1"/>
        <pt x="238" y="1770" on="0"/>
        <pt x="181" y="1698" on="1"/>
        <pt x="111" y="1607" on="0"/>
        <pt x="78" y="1554" on="1"/>
        <pt x="51" y="1567" on="1"/>
        <pt x="68" y="1629" on="0"/>
        <pt x="85" y="1747" on="1"/>
        <pt x="95" y="1832" on="0"/>
        <pt x="111" y="1872" on="1"/>
        <pt x="132" y="1920" on="0"/>
        <pt x="180" y="1920" on="1"/>
        <pt x="196" y="1920" on="0"/>
        <pt x="217" y="1913" on="1"/>
      </contour>
    </TTGlyph>
    <TTGlyph name="acute.loclPLK.smcp" xMin="51" yMin="1432" xMax="263" yMax="1797">
      <contour>
        <pt x="237" y="1781" on="0"/>
        <pt x="263" y="1743" on="0"/>
        <pt x="263" y="1720" on="1"/>
        <pt x="263" y="1703" on="0"/>
        <pt x="256" y="1686" on="1"/>
        <pt x="239" y="1647" on="0"/>
        <pt x="179" y="1573" on="1"/>
        <pt x="108" y="1481" on="0"/>
        <pt x="78" y="1432" on="1"/>
        <pt x="51" y="1444" on="1"/>
        <pt x="68" y="1506" on="0"/>
        <pt x="85" y="1624" on="1"/>
        <pt x="95" y="1709" on="0"/>
        <pt x="111" y="1749" on="1"/>
        <pt x="132" y="1797" on="0"/>
        <pt x="180" y="1797" on="1"/>
        <pt x="196" y="1797" on="0"/>
        <pt x="217" y="1790" on="1"/>
      </contour>
    </TTGlyph>
    <TTGlyph name="acute.smcp" xMin="188" yMin="1450" xMax="669" yMax="1785">
      <contour>
        <pt x="565" y="1785" on="0"/>
        <pt x="594" y="1785" on="1"/>
        <pt x="636" y="1785" on="0"/>
        <pt x="657" y="1751" on="1"/>
        <pt x="669" y="1733" on="0"/>
        <pt x="669" y="1712" on="1"/>
        <pt x="669" y="1668" on="0"/>
        <pt x="614" y="1632" on="1"/>
        <pt x="577" y="1609" on="0"/>
        <pt x="466" y="1565" on="1"/>
        <pt x="319" y="1508" on="0"/>
        <pt x="203" y="1450" on="1"/>
        <pt x="188" y="1477" on="1"/>
        <pt x="286" y="1551" on="0"/>
        <pt x="408" y="1662" on="1"/>
        <pt x="486" y="1735" on="0"/>
        <pt x="532" y="1765" on="1"/>
      </contour>
    </TTGlyph>
    <TTGlyph name="adieresis" xMin="-6" yMin="0" xMax="1268" yMax="1700">
      <component glyphName=".ttfautohint" x="0" y="0" flags="0x0"/>
      <component glyphName="a" x="0" y="0" flags="0x0"/>
      <component glyphName="dieresis.smcp" x="221" y="0" flags="0x0"/>
    </TTGlyph>
    <TTGlyph name="ae" xMin="-6" yMin="0" xMax="1511" yMax="1350">
      <contour>
        <pt x="1497" y="134" on="0"/>
        <pt x="1511" y="0" on="1"/>
        <pt x="1391" y="6" on="0"/>
        <pt x="1104" y="6" on="1"/>
        <pt x="782" y="6" on="0"/>
        <pt x="612" y="0" on="1"/>
        <pt x="612" y="41" on="1"/>
        <pt x="669" y="44" on="0"/>
        <pt x="719" y="70" on="0"/>
        <pt x="737" y="140" on="0"/>
        <pt x="737" y="217" on="1"/>
        <pt x="737" y="606" on="1"/>
        <pt x="433" y="606" on="1"/>
        <pt x="211" y="213" on="1"/>
        <pt x="176" y="152" on="0"/>
        <pt x="176" y="114" on="1"/>
        <pt x="176" y="78" on="0"/>
        <pt x="245" y="44" on="0"/>
        <pt x="317" y="41" on="1"/>
        <pt x="317" y="0" on="1"/>
        <pt x="255" y="6" on="0"/>
        <pt x="131" y="6" on="1"/>
        <pt x="46" y="6" on="0"/>
        <pt x="-6" y="0" on="1"/>
        <pt x="-6" y="41" on="1"/>
        <pt x="27" y="43" on="0"/>
        <pt x="94" y="102" on="0"/>
        <pt x="135" y="172" on="1"/>
        <pt x="705" y="1171" on="1"/>
        <pt x="688" y="1188" on="0"/>
        <pt x="627" y="1202" on="0"/>
        <pt x="571" y="1204" on="1"/>
        <pt x="571" y="1245" on="1"/>
        <pt x="627" y="1243" on="0"/>
        <pt x="745" y="1241" on="1"/>
        <pt x="807" y="1350" on="1"/>
        <pt x="854" y="1350" on="1"/>
        <pt x="792" y="1240" on="1"/>
        <pt x="883" y="1239" on="0"/>
        <pt x="1044" y="1239" on="0"/>
        <pt x="1104" y="1239" on="1"/>
        <pt x="1362" y="1239" on="0"/>
        <pt x="1470" y="1245" on="1"/>
        <pt x="1456" y="1122" on="0"/>
        <pt x="1456" y="1024" on="1"/>
        <pt x="1456" y="944" on="0"/>
        <pt x="1462" y="897" on="1"/>
        <pt x="1415" y="897" on="1"/>
        <pt x="1404" y="1020" on="0"/>
        <pt x="1369" y="1142" on="0"/>
        <pt x="1285" y="1198" on="0"/>
        <pt x="1202" y="1198" on="1"/>
        <pt x="1094" y="1198" on="1"/>
        <pt x="1020" y="1198" on="0"/>
        <pt x="953" y="1175" on="0"/>
        <pt x="928" y="1106" on="0"/>
        <pt x="928" y="1028" on="1"/>
        <pt x="928" y="647" on="1"/>
        <pt x="1077" y="647" on="1"/>
        <pt x="1134" y="647" on="0"/>
        <pt x="1195" y="699" on="0"/>
        <pt x="1216" y="769" on="0"/>
        <pt x="1222" y="822" on="1"/>
        <pt x="1223" y="830" on="0"/>
        <pt x="1225" y="847" on="0"/>
        <pt x="1227" y="856" on="1"/>
        <pt x="1274" y="856" on="1"/>
        <pt x="1267" y="776" on="0"/>
        <pt x="1267" y="704" on="1"/>
        <pt x="1268" y="627" on="1"/>
        <pt x="1268" y="547" on="0"/>
        <pt x="1280" y="397" on="1"/>
        <pt x="1233" y="397" on="1"/>
        <pt x="1231" y="411" on="0"/>
        <pt x="1231" y="417" on="1"/>
        <pt x="1224" y="481" on="0"/>
        <pt x="1202" y="555" on="0"/>
        <pt x="1139" y="606" on="0"/>
        <pt x="1077" y="606" on="1"/>
        <pt x="928" y="606" on="1"/>
        <pt x="928" y="217" on="1"/>
        <pt x="928" y="140" on="0"/>
        <pt x="953" y="71" on="0"/>
        <pt x="1020" y="47" on="0"/>
        <pt x="1094" y="47" on="1"/>
        <pt x="1223" y="47" on="1"/>
        <pt x="1322" y="47" on="0"/>
        <pt x="1412" y="109" on="0"/>
        <pt x="1443" y="240" on="0"/>
        <pt x="1456" y="389" on="1"/>
        <pt x="1503" y="389" on="1"/>
        <pt x="1497" y="334" on="0"/>
        <pt x="1497" y="242" on="1"/>
      </contour>
      <contour>
        <pt x="737" y="1028" on="1"/>
        <pt x="737" y="1097" on="0"/>
        <pt x="728" y="1128" on="1"/>
        <pt x="456" y="647" on="1"/>
        <pt x="737" y="647" on="1"/>
      </contour>
    </TTGlyph>
    <TTGlyph name="agrave" xMin="-6" yMin="0" xMax="1268" yMax="1785">
      <component glyphName=".ttfautohint" x="0" y="0" flags="0x0"/>
      <component glyphName="a" x="0" y="0" flags="0x0"/>
      <component glyphName="grave.smcp" x="207" y="0" flags="0x0"/>
    </TTGlyph>
    <TTGlyph name="amacron" xMin="-6" yMin="0" xMax="1268" yMax="1581">
      <component glyphName=".ttfautohint" x="0" y="0" flags="0x0"/>
      <component glyphName="a" x="0" y="0" flags="0x0"/>
      <component glyphName="macron.smcp" x="192" y="0" flags="0x0"/>
    </TTGlyph>
    <TTGlyph name="ampersand" xMin="111" yMin="-29" xMax="1673" yMax="1479">
      <contour>
        <pt x="1459" y="1479" on="0"/>
        <pt x="1595" y="1412" on="0"/>
        <pt x="1673" y="1287" on="0"/>
        <pt x="1673" y="1202" on="1"/>
        <pt x="1673" y="1104" on="0"/>
        <pt x="1567" y="959" on="0"/>
        <pt x="1479" y="915" on="1"/>
        <pt x="1404" y="879" on="0"/>
        <pt x="1175" y="808" on="1"/>
        <pt x="1290" y="760" on="0"/>
        <pt x="1399" y="578" on="0"/>
        <pt x="1399" y="461" on="1"/>
        <pt x="1399" y="334" on="0"/>
        <pt x="1248" y="109" on="0"/>
        <pt x="964" y="-29" on="0"/>
        <pt x="774" y="-29" on="1"/>
        <pt x="595" y="-29" on="0"/>
        <pt x="292" y="96" on="0"/>
        <pt x="111" y="328" on="0"/>
        <pt x="111" y="481" on="1"/>
        <pt x="111" y="616" on="0"/>
        <pt x="245" y="802" on="0"/>
        <pt x="416" y="899" on="0"/>
        <pt x="489" y="918" on="1"/>
        <pt x="389" y="961" on="0"/>
        <pt x="283" y="1103" on="0"/>
        <pt x="283" y="1182" on="1"/>
        <pt x="283" y="1250" on="0"/>
        <pt x="363" y="1367" on="0"/>
        <pt x="519" y="1438" on="0"/>
        <pt x="629" y="1438" on="1"/>
        <pt x="766" y="1438" on="0"/>
        <pt x="842" y="1376" on="1"/>
        <pt x="880" y="1345" on="0"/>
        <pt x="918" y="1270" on="0"/>
        <pt x="918" y="1235" on="1"/>
        <pt x="918" y="1186" on="0"/>
        <pt x="848" y="1126" on="0"/>
        <pt x="803" y="1126" on="1"/>
        <pt x="759" y="1126" on="0"/>
        <pt x="696" y="1182" on="0"/>
        <pt x="696" y="1229" on="1"/>
        <pt x="696" y="1273" on="0"/>
        <pt x="757" y="1337" on="0"/>
        <pt x="805" y="1341" on="1"/>
        <pt x="796" y="1368" on="0"/>
        <pt x="710" y="1407" on="0"/>
        <pt x="649" y="1407" on="1"/>
        <pt x="542" y="1407" on="0"/>
        <pt x="412" y="1279" on="0"/>
        <pt x="412" y="1163" on="1"/>
        <pt x="412" y="1026" on="0"/>
        <pt x="516" y="930" on="1"/>
        <pt x="587" y="942" on="0"/>
        <pt x="643" y="942" on="1"/>
        <pt x="681" y="942" on="0"/>
        <pt x="725" y="918" on="0"/>
        <pt x="725" y="895" on="1"/>
        <pt x="725" y="877" on="0"/>
        <pt x="694" y="856" on="0"/>
        <pt x="668" y="856" on="1"/>
        <pt x="638" y="856" on="0"/>
        <pt x="570" y="878" on="0"/>
        <pt x="524" y="899" on="0"/>
        <pt x="518" y="901" on="1"/>
        <pt x="252" y="822" on="0"/>
        <pt x="252" y="565" on="1"/>
        <pt x="252" y="428" on="0"/>
        <pt x="396" y="228" on="0"/>
        <pt x="646" y="123" on="0"/>
        <pt x="801" y="123" on="1"/>
        <pt x="947" y="123" on="0"/>
        <pt x="1193" y="214" on="0"/>
        <pt x="1339" y="385" on="0"/>
        <pt x="1339" y="498" on="1"/>
        <pt x="1339" y="578" on="0"/>
        <pt x="1252" y="747" on="0"/>
        <pt x="1133" y="795" on="1"/>
        <pt x="960" y="741" on="0"/>
        <pt x="897" y="717" on="1"/>
        <pt x="811" y="684" on="0"/>
        <pt x="717" y="600" on="0"/>
        <pt x="717" y="539" on="1"/>
        <pt x="717" y="489" on="0"/>
        <pt x="776" y="414" on="0"/>
        <pt x="864" y="375" on="0"/>
        <pt x="905" y="375" on="1"/>
        <pt x="940" y="375" on="0"/>
        <pt x="1023" y="399" on="0"/>
        <pt x="1028" y="420" on="1"/>
        <pt x="989" y="427" on="0"/>
        <pt x="932" y="477" on="0"/>
        <pt x="932" y="524" on="1"/>
        <pt x="932" y="572" on="0"/>
        <pt x="996" y="631" on="0"/>
        <pt x="1044" y="631" on="1"/>
        <pt x="1093" y="631" on="0"/>
        <pt x="1153" y="570" on="0"/>
        <pt x="1153" y="520" on="1"/>
        <pt x="1153" y="465" on="0"/>
        <pt x="1079" y="385" on="0"/>
        <pt x="966" y="344" on="0"/>
        <pt x="909" y="344" on="1"/>
        <pt x="847" y="344" on="0"/>
        <pt x="730" y="396" on="0"/>
        <pt x="655" y="504" on="0"/>
        <pt x="655" y="584" on="1"/>
        <pt x="655" y="688" on="0"/>
        <pt x="796" y="834" on="0"/>
        <pt x="938" y="883" on="1"/>
        <pt x="982" y="897" on="0"/>
        <pt x="1086" y="927" on="1"/>
        <pt x="1328" y="994" on="0"/>
        <pt x="1438" y="1044" on="1"/>
        <pt x="1535" y="1090" on="0"/>
        <pt x="1614" y="1185" on="0"/>
        <pt x="1614" y="1241" on="1"/>
        <pt x="1614" y="1298" on="0"/>
        <pt x="1548" y="1393" on="0"/>
        <pt x="1439" y="1448" on="0"/>
        <pt x="1376" y="1448" on="1"/>
        <pt x="1324" y="1448" on="0"/>
        <pt x="1315" y="1430" on="1"/>
        <pt x="1342" y="1416" on="0"/>
        <pt x="1372" y="1363" on="0"/>
        <pt x="1372" y="1335" on="1"/>
        <pt x="1372" y="1293" on="0"/>
        <pt x="1304" y="1235" on="0"/>
        <pt x="1257" y="1235" on="1"/>
        <pt x="1213" y="1235" on="0"/>
        <pt x="1149" y="1288" on="0"/>
        <pt x="1149" y="1337" on="1"/>
        <pt x="1149" y="1387" on="0"/>
        <pt x="1217" y="1451" on="0"/>
        <pt x="1320" y="1479" on="0"/>
        <pt x="1374" y="1479" on="1"/>
      </contour>
    </TTGlyph>
    <TTGlyph name="ampersand.smcp" xMin="109" yMin="-29" xMax="1583" yMax="1274">
      <contour>
        <pt x="1583" y="963" on="0"/>
        <pt x="1482" y="835" on="0"/>
        <pt x="1380" y="793" on="1"/>
        <pt x="1329" y="772" on="0"/>
        <pt x="1165" y="709" on="1"/>
        <pt x="1281" y="678" on="0"/>
        <pt x="1382" y="526" on="0"/>
        <pt x="1382" y="442" on="1"/>
        <pt x="1382" y="314" on="0"/>
        <pt x="1233" y="99" on="0"/>
        <pt x="947" y="-29" on="0"/>
        <pt x="750" y="-29" on="1"/>
        <pt x="575" y="-29" on="0"/>
        <pt x="282" y="75" on="0"/>
        <pt x="109" y="270" on="0"/>
        <pt x="109" y="399" on="1"/>
        <pt x="109" y="528" on="0"/>
        <pt x="229" y="705" on="0"/>
        <pt x="382" y="798" on="0"/>
        <pt x="446" y="815" on="1"/>
        <pt x="345" y="847" on="0"/>
        <pt x="240" y="963" on="0"/>
        <pt x="240" y="1038" on="1"/>
        <pt x="240" y="1104" on="0"/>
        <pt x="320" y="1211" on="0"/>
        <pt x="478" y="1274" on="0"/>
        <pt x="588" y="1274" on="1"/>
        <pt x="718" y="1274" on="0"/>
        <pt x="799" y="1212" on="1"/>
        <pt x="837" y="1182" on="0"/>
        <pt x="874" y="1106" on="0"/>
        <pt x="874" y="1071" on="1"/>
        <pt x="874" y="1023" on="0"/>
        <pt x="805" y="963" on="0"/>
        <pt x="760" y="963" on="1"/>
        <pt x="716" y="963" on="0"/>
        <pt x="653" y="1017" on="0"/>
        <pt x="653" y="1065" on="1"/>
        <pt x="653" y="1110" on="0"/>
        <pt x="715" y="1175" on="0"/>
        <pt x="762" y="1178" on="1"/>
        <pt x="753" y="1204" on="0"/>
        <pt x="667" y="1243" on="0"/>
        <pt x="610" y="1243" on="1"/>
        <pt x="540" y="1243" on="0"/>
        <pt x="430" y="1188" on="0"/>
        <pt x="369" y="1092" on="0"/>
        <pt x="369" y="1032" on="1"/>
        <pt x="369" y="963" on="0"/>
        <pt x="414" y="869" on="0"/>
        <pt x="473" y="827" on="1"/>
        <pt x="541" y="840" on="0"/>
        <pt x="600" y="840" on="1"/>
        <pt x="637" y="840" on="0"/>
        <pt x="682" y="814" on="0"/>
        <pt x="682" y="793" on="1"/>
        <pt x="682" y="754" on="0"/>
        <pt x="625" y="754" on="1"/>
        <pt x="574" y="754" on="0"/>
        <pt x="475" y="799" on="1"/>
        <pt x="250" y="723" on="0"/>
        <pt x="250" y="485" on="1"/>
        <pt x="250" y="370" on="0"/>
        <pt x="388" y="201" on="0"/>
        <pt x="629" y="111" on="0"/>
        <pt x="780" y="111" on="1"/>
        <pt x="945" y="111" on="0"/>
        <pt x="1197" y="196" on="0"/>
        <pt x="1335" y="351" on="0"/>
        <pt x="1335" y="453" on="1"/>
        <pt x="1335" y="525" on="0"/>
        <pt x="1252" y="663" on="0"/>
        <pt x="1125" y="694" on="1"/>
        <pt x="930" y="620" on="0"/>
        <pt x="915" y="614" on="1"/>
        <pt x="822" y="578" on="0"/>
        <pt x="717" y="496" on="0"/>
        <pt x="717" y="432" on="1"/>
        <pt x="717" y="390" on="0"/>
        <pt x="757" y="326" on="0"/>
        <pt x="823" y="293" on="0"/>
        <pt x="862" y="293" on="1"/>
        <pt x="905" y="293" on="0"/>
        <pt x="979" y="316" on="0"/>
        <pt x="985" y="338" on="1"/>
        <pt x="945" y="345" on="0"/>
        <pt x="889" y="395" on="0"/>
        <pt x="889" y="442" on="1"/>
        <pt x="889" y="490" on="0"/>
        <pt x="953" y="549" on="0"/>
        <pt x="1001" y="549" on="1"/>
        <pt x="1050" y="549" on="0"/>
        <pt x="1110" y="488" on="0"/>
        <pt x="1110" y="438" on="1"/>
        <pt x="1110" y="383" on="0"/>
        <pt x="1036" y="303" on="0"/>
        <pt x="923" y="262" on="0"/>
        <pt x="868" y="262" on="1"/>
        <pt x="778" y="262" on="0"/>
        <pt x="674" y="361" on="0"/>
        <pt x="674" y="453" on="1"/>
        <pt x="674" y="661" on="0"/>
        <pt x="956" y="762" on="1"/>
        <pt x="1029" y="788" on="1"/>
        <pt x="1282" y="876" on="0"/>
        <pt x="1374" y="922" on="1"/>
        <pt x="1461" y="964" on="0"/>
        <pt x="1530" y="1047" on="0"/>
        <pt x="1530" y="1096" on="1"/>
        <pt x="1530" y="1140" on="0"/>
        <pt x="1481" y="1208" on="0"/>
        <pt x="1398" y="1245" on="0"/>
        <pt x="1348" y="1245" on="1"/>
        <pt x="1328" y="1245" on="0"/>
        <pt x="1296" y="1234" on="0"/>
        <pt x="1292" y="1225" on="1"/>
        <pt x="1319" y="1211" on="0"/>
        <pt x="1350" y="1157" on="0"/>
        <pt x="1350" y="1130" on="1"/>
        <pt x="1350" y="1088" on="0"/>
        <pt x="1281" y="1030" on="0"/>
        <pt x="1237" y="1030" on="1"/>
        <pt x="1191" y="1030" on="0"/>
        <pt x="1126" y="1084" on="0"/>
        <pt x="1126" y="1128" on="1"/>
        <pt x="1126" y="1206" on="0"/>
        <pt x="1264" y="1274" on="0"/>
        <pt x="1356" y="1274" on="1"/>
        <pt x="1420" y="1274" on="0"/>
        <pt x="1523" y="1222" on="0"/>
        <pt x="1583" y="1123" on="0"/>
        <pt x="1583" y="1055" on="1"/>
      </contour>
    </TTGlyph>
    <TTGlyph name="aogonek" xMin="-6" yMin="-385" xMax="1268" yMax="1255">
      <contour>
        <pt x="1096" y="-27" on="0"/>
        <pt x="1001" y="-137" on="0"/>
        <pt x="1001" y="-197" on="1"/>
        <pt x="1001" y="-238" on="0"/>
        <pt x="1048" y="-287" on="0"/>
        <pt x="1089" y="-287" on="1"/>
        <pt x="1126" y="-287" on="0"/>
        <pt x="1193" y="-248" on="0"/>
        <pt x="1214" y="-219" on="1"/>
        <pt x="1244" y="-246" on="1"/>
        <pt x="1153" y="-385" on="0"/>
        <pt x="1013" y="-385" on="1"/>
        <pt x="940" y="-385" on="0"/>
        <pt x="851" y="-312" on="0"/>
        <pt x="851" y="-252" on="1"/>
        <pt x="851" y="-172" on="0"/>
        <pt x="997" y="-39" on="0"/>
        <pt x="1132" y="5" on="1"/>
        <pt x="1049" y="6" on="1"/>
        <pt x="873" y="6" on="0"/>
        <pt x="786" y="0" on="1"/>
        <pt x="786" y="41" on="1"/>
        <pt x="863" y="44" on="0"/>
        <pt x="933" y="76" on="0"/>
        <pt x="933" y="116" on="1"/>
        <pt x="933" y="153" on="0"/>
        <pt x="905" y="213" on="1"/>
        <pt x="802" y="446" on="1"/>
        <pt x="302" y="446" on="1"/>
        <pt x="233" y="293" on="1"/>
        <pt x="199" y="214" on="0"/>
        <pt x="199" y="162" on="1"/>
        <pt x="199" y="54" on="0"/>
        <pt x="358" y="41" on="1"/>
        <pt x="358" y="0" on="1"/>
        <pt x="297" y="6" on="0"/>
        <pt x="172" y="6" on="1"/>
        <pt x="47" y="6" on="0"/>
        <pt x="-6" y="0" on="1"/>
        <pt x="-6" y="41" on="1"/>
        <pt x="48" y="55" on="0"/>
        <pt x="128" y="152" on="0"/>
        <pt x="162" y="231" on="1"/>
        <pt x="614" y="1255" on="1"/>
        <pt x="647" y="1255" on="1"/>
        <pt x="1126" y="172" on="1"/>
        <pt x="1182" y="45" on="0"/>
        <pt x="1268" y="41" on="1"/>
        <pt x="1268" y="0" on="1"/>
        <pt x="1202" y="3" on="1"/>
      </contour>
      <contour>
        <pt x="553" y="1008" on="1"/>
        <pt x="320" y="487" on="1"/>
        <pt x="784" y="487" on="1"/>
      </contour>
    </TTGlyph>
    <TTGlyph name="approxequal" xMin="143" yMin="451" xMax="1149" yMax="1010">
      <contour>
        <pt x="463" y="1010" on="0"/>
        <pt x="590" y="962" on="0"/>
        <pt x="680" y="916" on="1"/>
        <pt x="766" y="872" on="0"/>
        <pt x="875" y="831" on="0"/>
        <pt x="932" y="831" on="1"/>
        <pt x="994" y="831" on="0"/>
        <pt x="1084" y="894" on="0"/>
        <pt x="1114" y="961" on="1"/>
        <pt x="1149" y="950" on="1"/>
        <pt x="1121" y="841" on="0"/>
        <pt x="1002" y="723" on="0"/>
        <pt x="899" y="723" on="1"/>
        <pt x="830" y="723" on="0"/>
        <pt x="705" y="769" on="0"/>
        <pt x="614" y="815" on="1"/>
        <pt x="529" y="858" on="0"/>
        <pt x="419" y="899" on="0"/>
        <pt x="360" y="899" on="1"/>
        <pt x="294" y="899" on="0"/>
        <pt x="207" y="835" on="0"/>
        <pt x="178" y="772" on="1"/>
        <pt x="143" y="782" on="1"/>
        <pt x="171" y="891" on="0"/>
        <pt x="290" y="1010" on="0"/>
        <pt x="393" y="1010" on="1"/>
      </contour>
      <contour>
        <pt x="463" y="737" on="0"/>
        <pt x="592" y="690" on="0"/>
        <pt x="680" y="644" on="1"/>
        <pt x="766" y="600" on="0"/>
        <pt x="875" y="559" on="0"/>
        <pt x="932" y="559" on="1"/>
        <pt x="1055" y="559" on="0"/>
        <pt x="1114" y="688" on="1"/>
        <pt x="1149" y="678" on="1"/>
        <pt x="1121" y="569" on="0"/>
        <pt x="1002" y="451" on="0"/>
        <pt x="899" y="451" on="1"/>
        <pt x="830" y="451" on="0"/>
        <pt x="705" y="497" on="0"/>
        <pt x="614" y="543" on="1"/>
        <pt x="529" y="586" on="0"/>
        <pt x="419" y="627" on="0"/>
        <pt x="360" y="627" on="1"/>
        <pt x="294" y="627" on="0"/>
        <pt x="207" y="563" on="0"/>
        <pt x="178" y="500" on="1"/>
        <pt x="143" y="510" on="1"/>
        <pt x="171" y="619" on="0"/>
        <pt x="290" y="737" on="0"/>
        <pt x="393" y="737" on="1"/>
      </contour>
    </TTGlyph>
    <TTGlyph name="aring" xMin="-6" yMin="0" xMax="1268" yMax="1772">
      <component glyphName=".ttfautohint" x="0" y="0" flags="0x0"/>
      <component glyphName="a" x="0" y="0" flags="0x0"/>
      <component glyphName="ring.smcp" x="340" y="0" flags="0x0"/>
    </TTGlyph>
    <TTGlyph name="arrowboth" xMin="51" yMin="158" xMax="1331" yMax="924">
      <contour>
        <pt x="977" y="770" on="0"/>
        <pt x="1184" y="584" on="0"/>
        <pt x="1331" y="541" on="1"/>
        <pt x="1184" y="497" on="0"/>
        <pt x="977" y="312" on="0"/>
        <pt x="907" y="158" on="1"/>
        <pt x="872" y="158" on="1"/>
        <pt x="957" y="337" on="0"/>
        <pt x="961" y="524" on="1"/>
        <pt x="422" y="524" on="1"/>
        <pt x="426" y="339" on="0"/>
        <pt x="510" y="158" on="1"/>
        <pt x="475" y="158" on="1"/>
        <pt x="405" y="312" on="0"/>
        <pt x="198" y="497" on="0"/>
        <pt x="51" y="541" on="1"/>
        <pt x="198" y="584" on="0"/>
        <pt x="405" y="770" on="0"/>
        <pt x="475" y="924" on="1"/>
        <pt x="510" y="924" on="1"/>
        <pt x="425" y="742" on="0"/>
        <pt x="422" y="557" on="1"/>
        <pt x="961" y="557" on="1"/>
        <pt x="958" y="743" on="0"/>
        <pt x="872" y="924" on="1"/>
        <pt x="907" y="924" on="1"/>
      </contour>
    </TTGlyph>
    <TTGlyph name="arrowdown" xMin="123" yMin="-20" xMax="889" yMax="1200">
      <contour>
        <pt x="552" y="952" on="0"/>
        <pt x="734" y="1128" on="0"/>
        <pt x="889" y="1200" on="1"/>
        <pt x="889" y="1165" on="1"/>
        <pt x="735" y="1095" on="0"/>
        <pt x="549" y="888" on="0"/>
        <pt x="506" y="741" on="1"/>
        <pt x="463" y="888" on="0"/>
        <pt x="277" y="1095" on="0"/>
        <pt x="123" y="1165" on="1"/>
        <pt x="123" y="1200" on="1"/>
        <pt x="278" y="1128" on="0"/>
        <pt x="459" y="952" on="0"/>
        <pt x="506" y="829" on="1"/>
      </contour>
      <contour>
        <pt x="552" y="768" on="0"/>
        <pt x="734" y="944" on="0"/>
        <pt x="889" y="1016" on="1"/>
        <pt x="889" y="981" on="1"/>
        <pt x="748" y="917" on="0"/>
        <pt x="569" y="733" on="0"/>
        <pt x="522" y="606" on="1"/>
        <pt x="522" y="350" on="1"/>
        <pt x="707" y="353" on="0"/>
        <pt x="889" y="438" on="1"/>
        <pt x="889" y="403" on="1"/>
        <pt x="735" y="333" on="0"/>
        <pt x="549" y="127" on="0"/>
        <pt x="506" y="-20" on="1"/>
        <pt x="463" y="127" on="0"/>
        <pt x="277" y="333" on="0"/>
        <pt x="123" y="403" on="1"/>
        <pt x="123" y="438" on="1"/>
        <pt x="304" y="354" on="0"/>
        <pt x="489" y="350" on="1"/>
        <pt x="489" y="608" on="1"/>
        <pt x="442" y="734" on="0"/>
        <pt x="264" y="917" on="0"/>
        <pt x="123" y="981" on="1"/>
        <pt x="123" y="1016" on="1"/>
        <pt x="278" y="944" on="0"/>
        <pt x="459" y="768" on="0"/>
        <pt x="506" y="645" on="1"/>
      </contour>
    </TTGlyph>
    <TTGlyph name="arrowdownleft" xMin="133" yMin="-20" xMax="1268" yMax="1114">
      <contour>
        <pt x="851" y="633" on="0"/>
        <pt x="970" y="633" on="1"/>
        <pt x="1103" y="633" on="0"/>
        <pt x="1268" y="571" on="1"/>
        <pt x="1243" y="547" on="1"/>
        <pt x="1103" y="600" on="0"/>
        <pt x="976" y="600" on="1"/>
        <pt x="822" y="600" on="0"/>
        <pt x="672" y="518" on="1"/>
        <pt x="754" y="667" on="0"/>
        <pt x="754" y="821" on="1"/>
        <pt x="754" y="948" on="0"/>
        <pt x="700" y="1090" on="1"/>
        <pt x="725" y="1114" on="1"/>
        <pt x="787" y="949" on="0"/>
        <pt x="787" y="817" on="1"/>
        <pt x="787" y="695" on="0"/>
        <pt x="735" y="582" on="1"/>
      </contour>
      <contour>
        <pt x="720" y="502" on="0"/>
        <pt x="841" y="502" on="1"/>
        <pt x="972" y="502" on="0"/>
        <pt x="1137" y="442" on="1"/>
        <pt x="1112" y="418" on="1"/>
        <pt x="972" y="470" on="0"/>
        <pt x="848" y="470" on="1"/>
        <pt x="716" y="470" on="0"/>
        <pt x="590" y="413" on="1"/>
        <pt x="407" y="231" on="1"/>
        <pt x="541" y="103" on="0"/>
        <pt x="729" y="33" on="1"/>
        <pt x="705" y="8" on="1"/>
        <pt x="563" y="62" on="0"/>
        <pt x="436" y="62" on="1"/>
        <pt x="282" y="62" on="0"/>
        <pt x="133" y="-20" on="1"/>
        <pt x="215" y="130" on="0"/>
        <pt x="215" y="284" on="1"/>
        <pt x="215" y="411" on="0"/>
        <pt x="162" y="551" on="1"/>
        <pt x="186" y="575" on="1"/>
        <pt x="257" y="389" on="0"/>
        <pt x="384" y="253" on="1"/>
        <pt x="567" y="438" on="1"/>
        <pt x="624" y="563" on="0"/>
        <pt x="624" y="692" on="1"/>
        <pt x="624" y="816" on="0"/>
        <pt x="571" y="958" on="1"/>
        <pt x="596" y="983" on="1"/>
        <pt x="656" y="818" on="0"/>
        <pt x="656" y="688" on="1"/>
        <pt x="656" y="565" on="0"/>
        <pt x="604" y="451" on="1"/>
      </contour>
    </TTGlyph>
    <TTGlyph name="arrowdownright" xMin="133" yMin="-20" xMax="1268" yMax="1114">
      <component glyphName=".ttfautohint" x="133" y="0" flags="0x0"/>
      <component glyphName="arrowupleft" x="1401" y="1094" scale="-1.0" flags="0x0"/>
    </TTGlyph>
    <TTGlyph name="arrowleft" xMin="51" yMin="158" xMax="1272" yMax="924">
      <contour>
        <pt x="840" y="495" on="0"/>
        <pt x="1015" y="313" on="0"/>
        <pt x="1087" y="158" on="1"/>
        <pt x="1053" y="158" on="1"/>
        <pt x="988" y="299" on="0"/>
        <pt x="806" y="476" on="0"/>
        <pt x="680" y="524" on="1"/>
        <pt x="422" y="524" on="1"/>
        <pt x="426" y="339" on="0"/>
        <pt x="510" y="158" on="1"/>
        <pt x="475" y="158" on="1"/>
        <pt x="405" y="312" on="0"/>
        <pt x="198" y="497" on="0"/>
        <pt x="51" y="541" on="1"/>
        <pt x="198" y="584" on="0"/>
        <pt x="405" y="770" on="0"/>
        <pt x="475" y="924" on="1"/>
        <pt x="510" y="924" on="1"/>
        <pt x="425" y="742" on="0"/>
        <pt x="422" y="557" on="1"/>
        <pt x="677" y="557" on="1"/>
        <pt x="804" y="604" on="0"/>
        <pt x="988" y="783" on="0"/>
        <pt x="1053" y="924" on="1"/>
        <pt x="1087" y="924" on="1"/>
        <pt x="1015" y="768" on="0"/>
        <pt x="840" y="587" on="0"/>
        <pt x="717" y="541" on="1"/>
      </contour>
      <contour>
        <pt x="1024" y="494" on="0"/>
        <pt x="1200" y="313" on="0"/>
        <pt x="1272" y="158" on="1"/>
        <pt x="1237" y="158" on="1"/>
        <pt x="1167" y="312" on="0"/>
        <pt x="960" y="497" on="0"/>
        <pt x="813" y="541" on="1"/>
        <pt x="960" y="584" on="0"/>
        <pt x="1167" y="770" on="0"/>
        <pt x="1237" y="924" on="1"/>
        <pt x="1272" y="924" on="1"/>
        <pt x="1200" y="769" on="0"/>
        <pt x="1024" y="587" on="0"/>
        <pt x="901" y="541" on="1"/>
      </contour>
    </TTGlyph>
    <TTGlyph name="arrowright" xMin="123" yMin="158" xMax="1344" yMax="924">
      <component glyphName=".ttfautohint" x="123" y="158" flags="0x0"/>
      <component glyphName="arrowleft" x="1395" y="0" scalex="-1.0" scaley="1.0" flags="0x0"/>
    </TTGlyph>
    <TTGlyph name="arrowup" xMin="123" yMin="-20" xMax="889" yMax="1200">
      <contour>
        <pt x="710" y="826" on="0"/>
        <pt x="522" y="829" on="1"/>
        <pt x="522" y="574" on="1"/>
        <pt x="569" y="447" on="0"/>
        <pt x="748" y="263" on="0"/>
        <pt x="889" y="199" on="1"/>
        <pt x="889" y="164" on="1"/>
        <pt x="734" y="236" on="0"/>
        <pt x="552" y="412" on="0"/>
        <pt x="506" y="535" on="1"/>
        <pt x="459" y="412" on="0"/>
        <pt x="278" y="236" on="0"/>
        <pt x="123" y="164" on="1"/>
        <pt x="123" y="199" on="1"/>
        <pt x="264" y="263" on="0"/>
        <pt x="442" y="446" on="0"/>
        <pt x="489" y="572" on="1"/>
        <pt x="489" y="829" on="1"/>
        <pt x="304" y="826" on="0"/>
        <pt x="123" y="741" on="1"/>
        <pt x="123" y="776" on="1"/>
        <pt x="277" y="846" on="0"/>
        <pt x="463" y="1053" on="0"/>
        <pt x="506" y="1200" on="1"/>
        <pt x="549" y="1053" on="0"/>
        <pt x="735" y="846" on="0"/>
        <pt x="889" y="776" on="1"/>
        <pt x="889" y="741" on="1"/>
      </contour>
      <contour>
        <pt x="549" y="292" on="0"/>
        <pt x="735" y="85" on="0"/>
        <pt x="889" y="14" on="1"/>
        <pt x="889" y="-20" on="1"/>
        <pt x="733" y="52" on="0"/>
        <pt x="552" y="227" on="0"/>
        <pt x="506" y="350" on="1"/>
        <pt x="460" y="227" on="0"/>
        <pt x="278" y="52" on="0"/>
        <pt x="123" y="-20" on="1"/>
        <pt x="123" y="14" on="1"/>
        <pt x="277" y="85" on="0"/>
        <pt x="463" y="292" on="0"/>
        <pt x="506" y="438" on="1"/>
      </contour>
    </TTGlyph>
    <TTGlyph name="arrowupleft" xMin="133" yMin="-20" xMax="1268" yMax="1114">
      <contour>
        <pt x="972" y="591" on="0"/>
        <pt x="842" y="591" on="1"/>
        <pt x="718" y="591" on="0"/>
        <pt x="604" y="643" on="1"/>
        <pt x="656" y="529" on="0"/>
        <pt x="656" y="405" on="1"/>
        <pt x="656" y="276" on="0"/>
        <pt x="596" y="111" on="1"/>
        <pt x="571" y="135" on="1"/>
        <pt x="624" y="277" on="0"/>
        <pt x="624" y="401" on="1"/>
        <pt x="624" y="532" on="0"/>
        <pt x="567" y="656" on="1"/>
        <pt x="384" y="841" on="1"/>
        <pt x="257" y="706" on="0"/>
        <pt x="186" y="518" on="1"/>
        <pt x="162" y="543" on="1"/>
        <pt x="215" y="683" on="0"/>
        <pt x="215" y="810" on="1"/>
        <pt x="215" y="964" on="0"/>
        <pt x="133" y="1114" on="1"/>
        <pt x="283" y="1032" on="0"/>
        <pt x="437" y="1032" on="1"/>
        <pt x="561" y="1032" on="0"/>
        <pt x="705" y="1085" on="1"/>
        <pt x="729" y="1061" on="1"/>
        <pt x="541" y="991" on="0"/>
        <pt x="407" y="863" on="1"/>
        <pt x="591" y="681" on="1"/>
        <pt x="718" y="623" on="0"/>
        <pt x="847" y="623" on="1"/>
        <pt x="970" y="623" on="0"/>
        <pt x="1112" y="676" on="1"/>
        <pt x="1137" y="651" on="1"/>
      </contour>
      <contour>
        <pt x="1103" y="460" on="0"/>
        <pt x="971" y="460" on="1"/>
        <pt x="849" y="460" on="0"/>
        <pt x="735" y="512" on="1"/>
        <pt x="787" y="398" on="0"/>
        <pt x="787" y="277" on="1"/>
        <pt x="787" y="145" on="0"/>
        <pt x="725" y="-20" on="1"/>
        <pt x="700" y="4" on="1"/>
        <pt x="754" y="146" on="0"/>
        <pt x="754" y="272" on="1"/>
        <pt x="754" y="426" on="0"/>
        <pt x="672" y="575" on="1"/>
        <pt x="821" y="493" on="0"/>
        <pt x="975" y="493" on="1"/>
        <pt x="1101" y="493" on="0"/>
        <pt x="1243" y="547" on="1"/>
        <pt x="1268" y="522" on="1"/>
      </contour>
    </TTGlyph>
    <TTGlyph name="arrowupright" xMin="133" yMin="-20" xMax="1268" yMax="1114">
      <component glyphName=".ttfautohint" x="133" y="0" flags="0x0"/>
      <component glyphName="arrowupleft" x="1401" y="0" scalex="-1.0" scaley="1.0" flags="0x0"/>
    </TTGlyph>
    <TTGlyph name="asciicircum" xMin="147" yMin="659" xMax="950" yMax="1081">
      <contour>
        <pt x="616" y="963" on="0"/>
        <pt x="820" y="751" on="0"/>
        <pt x="950" y="688" on="1"/>
        <pt x="934" y="659" on="1"/>
        <pt x="810" y="704" on="0"/>
        <pt x="578" y="838" on="0"/>
        <pt x="508" y="905" on="1"/>
        <pt x="450" y="838" on="0"/>
        <pt x="263" y="704" on="0"/>
        <pt x="164" y="659" on="1"/>
        <pt x="147" y="688" on="1"/>
        <pt x="278" y="751" on="0"/>
        <pt x="482" y="963" on="0"/>
        <pt x="530" y="1081" on="1"/>
        <pt x="567" y="1081" on="1"/>
      </contour>
    </TTGlyph>
    <TTGlyph name="asciicircum.case" xMin="51" yMin="1059" xMax="854" yMax="1481">
      <contour>
        <pt x="520" y="1363" on="0"/>
        <pt x="723" y="1151" on="0"/>
        <pt x="854" y="1087" on="1"/>
        <pt x="838" y="1059" on="1"/>
        <pt x="714" y="1104" on="0"/>
        <pt x="482" y="1237" on="0"/>
        <pt x="412" y="1305" on="1"/>
        <pt x="354" y="1237" on="0"/>
        <pt x="167" y="1103" on="0"/>
        <pt x="68" y="1059" on="1"/>
        <pt x="51" y="1087" on="1"/>
        <pt x="182" y="1151" on="0"/>
        <pt x="386" y="1363" on="0"/>
        <pt x="434" y="1481" on="1"/>
        <pt x="471" y="1481" on="1"/>
      </contour>
    </TTGlyph>
    <TTGlyph name="asciitilde" xMin="152" yMin="481" xMax="1180" yMax="748">
      <contour>
        <pt x="508" y="748" on="0"/>
        <pt x="625" y="708" on="0"/>
        <pt x="709" y="667" on="1"/>
        <pt x="788" y="629" on="0"/>
        <pt x="899" y="590" on="0"/>
        <pt x="961" y="590" on="1"/>
        <pt x="1095" y="590" on="0"/>
        <pt x="1145" y="709" on="1"/>
        <pt x="1180" y="698" on="1"/>
        <pt x="1172" y="632" on="0"/>
        <pt x="1090" y="534" on="0"/>
        <pt x="964" y="481" on="0"/>
        <pt x="891" y="481" on="1"/>
        <pt x="823" y="481" on="0"/>
        <pt x="706" y="521" on="0"/>
        <pt x="622" y="562" on="1"/>
        <pt x="543" y="600" on="0"/>
        <pt x="432" y="639" on="0"/>
        <pt x="371" y="639" on="1"/>
        <pt x="236" y="639" on="0"/>
        <pt x="186" y="520" on="1"/>
        <pt x="152" y="530" on="1"/>
        <pt x="160" y="596" on="0"/>
        <pt x="241" y="695" on="0"/>
        <pt x="367" y="748" on="0"/>
        <pt x="440" y="748" on="1"/>
      </contour>
    </TTGlyph>
    <TTGlyph name="asciitilde.case" xMin="41" yMin="596" xMax="1069" yMax="863">
      <component glyphName=".ttfautohint" x="41" y="596" flags="0x0"/>
      <component glyphName="asciitilde" x="-111" y="115" flags="0x0"/>
    </TTGlyph>
    <TTGlyph name="asciitilde.smcp" xMin="148" yMin="501" xMax="1176" yMax="768">
      <component glyphName=".ttfautohint" x="148" y="501" flags="0x0"/>
      <component glyphName="asciitilde" x="-4" y="20" flags="0x0"/>
    </TTGlyph>
    <TTGlyph name="asterisk" xMin="120" yMin="629" xMax="888" yMax="1493">
      <contour>
        <pt x="887" y="929" on="0"/>
        <pt x="887" y="879" on="1"/>
        <pt x="887" y="861" on="0"/>
        <pt x="877" y="844" on="1"/>
        <pt x="859" y="812" on="0"/>
        <pt x="820" y="812" on="1"/>
        <pt x="787" y="812" on="0"/>
        <pt x="745" y="836" on="1"/>
        <pt x="714" y="854" on="0"/>
        <pt x="649" y="912" on="0"/>
        <pt x="595" y="967" on="1"/>
        <pt x="510" y="1051" on="1"/>
        <pt x="543" y="928" on="1"/>
        <pt x="564" y="851" on="0"/>
        <pt x="581" y="772" on="0"/>
        <pt x="582" y="739" on="1"/>
        <pt x="581" y="682" on="0"/>
        <pt x="535" y="629" on="0"/>
        <pt x="502" y="629" on="1"/>
        <pt x="472" y="629" on="0"/>
        <pt x="430" y="681" on="0"/>
        <pt x="430" y="739" on="1"/>
        <pt x="430" y="774" on="0"/>
        <pt x="447" y="851" on="0"/>
        <pt x="467" y="928" on="1"/>
        <pt x="500" y="1051" on="1"/>
        <pt x="454" y="1008" on="0"/>
        <pt x="410" y="962" on="1"/>
        <pt x="358" y="909" on="0"/>
        <pt x="294" y="851" on="0"/>
        <pt x="264" y="834" on="1"/>
        <pt x="224" y="811" on="0"/>
        <pt x="191" y="811" on="1"/>
        <pt x="148" y="811" on="0"/>
        <pt x="129" y="846" on="1"/>
        <pt x="120" y="862" on="0"/>
        <pt x="120" y="877" on="1"/>
        <pt x="120" y="924" on="0"/>
        <pt x="188" y="965" on="1"/>
        <pt x="218" y="982" on="0"/>
        <pt x="292" y="1006" on="0"/>
        <pt x="366" y="1025" on="1"/>
        <pt x="458" y="1050" on="0"/>
        <pt x="492" y="1060" on="1"/>
        <pt x="432" y="1078" on="0"/>
        <pt x="371" y="1093" on="1"/>
        <pt x="295" y="1113" on="0"/>
        <pt x="216" y="1138" on="0"/>
        <pt x="186" y="1155" on="1"/>
        <pt x="121" y="1194" on="0"/>
        <pt x="121" y="1243" on="1"/>
        <pt x="121" y="1261" on="0"/>
        <pt x="131" y="1278" on="1"/>
        <pt x="147" y="1310" on="0"/>
        <pt x="187" y="1310" on="1"/>
        <pt x="220" y="1310" on="0"/>
        <pt x="262" y="1286" on="1"/>
        <pt x="293" y="1268" on="0"/>
        <pt x="355" y="1212" on="0"/>
        <pt x="410" y="1157" on="1"/>
        <pt x="463" y="1102" on="0"/>
        <pt x="498" y="1069" on="1"/>
        <pt x="489" y="1108" on="0"/>
        <pt x="467" y="1187" on="1"/>
        <pt x="447" y="1261" on="0"/>
        <pt x="428" y="1347" on="0"/>
        <pt x="428" y="1382" on="1"/>
        <pt x="428" y="1439" on="0"/>
        <pt x="472" y="1493" on="0"/>
        <pt x="504" y="1493" on="1"/>
        <pt x="535" y="1493" on="0"/>
        <pt x="578" y="1439" on="0"/>
        <pt x="578" y="1382" on="1"/>
        <pt x="578" y="1347" on="0"/>
        <pt x="561" y="1267" on="0"/>
        <pt x="540" y="1192" on="1"/>
        <pt x="550" y="1232" on="0"/>
        <pt x="508" y="1071" on="1"/>
        <pt x="542" y="1103" on="0"/>
        <pt x="599" y="1160" on="1"/>
        <pt x="698" y="1261" on="0"/>
        <pt x="743" y="1288" on="1"/>
        <pt x="785" y="1311" on="0"/>
        <pt x="816" y="1311" on="1"/>
        <pt x="860" y="1311" on="0"/>
        <pt x="879" y="1276" on="1"/>
        <pt x="888" y="1260" on="0"/>
        <pt x="888" y="1245" on="1"/>
        <pt x="888" y="1196" on="0"/>
        <pt x="819" y="1157" on="1"/>
        <pt x="789" y="1139" on="0"/>
        <pt x="712" y="1115" on="0"/>
        <pt x="641" y="1096" on="1"/>
        <pt x="576" y="1080" on="0"/>
        <pt x="515" y="1062" on="1"/>
        <pt x="556" y="1050" on="0"/>
        <pt x="638" y="1028" on="1"/>
        <pt x="772" y="994" on="0"/>
        <pt x="821" y="967" on="1"/>
      </contour>
    </TTGlyph>
    <TTGlyph name="at" xMin="100" yMin="-330" xMax="1729" yMax="1368">
      <contour>
        <pt x="987" y="53" on="0"/>
        <pt x="987" y="186" on="1"/>
        <pt x="987" y="219" on="0"/>
        <pt x="1001" y="285" on="0"/>
        <pt x="1016" y="332" on="0"/>
        <pt x="1018" y="340" on="1"/>
        <pt x="1018" y="342" on="1"/>
        <pt x="960" y="193" on="0"/>
        <pt x="808" y="53" on="0"/>
        <pt x="702" y="53" on="1"/>
        <pt x="592" y="53" on="0"/>
        <pt x="492" y="188" on="0"/>
        <pt x="492" y="301" on="1"/>
        <pt x="492" y="453" on="0"/>
        <pt x="638" y="771" on="0"/>
        <pt x="866" y="979" on="0"/>
        <pt x="979" y="979" on="1"/>
        <pt x="1104" y="979" on="0"/>
        <pt x="1127" y="870" on="1"/>
        <pt x="1143" y="950" on="1"/>
        <pt x="1260" y="950" on="0"/>
        <pt x="1327" y="979" on="1"/>
        <pt x="1155" y="227" on="1"/>
        <pt x="1142" y="185" on="0"/>
        <pt x="1142" y="157" on="1"/>
        <pt x="1142" y="128" on="0"/>
        <pt x="1171" y="104" on="0"/>
        <pt x="1202" y="104" on="1"/>
        <pt x="1289" y="104" on="0"/>
        <pt x="1521" y="277" on="0"/>
        <pt x="1688" y="597" on="0"/>
        <pt x="1688" y="807" on="1"/>
        <pt x="1688" y="989" on="0"/>
        <pt x="1529" y="1223" on="0"/>
        <pt x="1261" y="1331" on="0"/>
        <pt x="1092" y="1331" on="1"/>
        <pt x="845" y="1331" on="0"/>
        <pt x="406" y="1046" on="0"/>
        <pt x="141" y="569" on="0"/>
        <pt x="141" y="297" on="1"/>
        <pt x="141" y="93" on="0"/>
        <pt x="297" y="-171" on="0"/>
        <pt x="573" y="-293" on="0"/>
        <pt x="756" y="-293" on="1"/>
        <pt x="992" y="-293" on="0"/>
        <pt x="1178" y="-182" on="1"/>
        <pt x="1192" y="-209" on="1"/>
        <pt x="1113" y="-265" on="0"/>
        <pt x="886" y="-330" on="0"/>
        <pt x="754" y="-330" on="1"/>
        <pt x="558" y="-330" on="0"/>
        <pt x="265" y="-197" on="0"/>
        <pt x="100" y="82" on="0"/>
        <pt x="100" y="293" on="1"/>
        <pt x="100" y="566" on="0"/>
        <pt x="367" y="1064" on="0"/>
        <pt x="822" y="1368" on="0"/>
        <pt x="1090" y="1368" on="1"/>
        <pt x="1275" y="1368" on="0"/>
        <pt x="1562" y="1249" on="0"/>
        <pt x="1729" y="997" on="0"/>
        <pt x="1729" y="805" on="1"/>
        <pt x="1729" y="586" on="0"/>
        <pt x="1547" y="243" on="0"/>
        <pt x="1269" y="53" on="0"/>
        <pt x="1135" y="53" on="1"/>
      </contour>
      <contour>
        <pt x="824" y="115" on="0"/>
        <pt x="932" y="221" on="0"/>
        <pt x="1028" y="421" on="0"/>
        <pt x="1062" y="556" on="1"/>
        <pt x="1113" y="805" on="1"/>
        <pt x="1106" y="932" on="0"/>
        <pt x="987" y="932" on="1"/>
        <pt x="902" y="932" on="0"/>
        <pt x="754" y="746" on="0"/>
        <pt x="666" y="457" on="0"/>
        <pt x="666" y="313" on="1"/>
        <pt x="666" y="115" on="0"/>
        <pt x="772" y="115" on="1"/>
      </contour>
    </TTGlyph>
    <TTGlyph name="at.case" xMin="100" yMin="-219" xMax="1729" yMax="1479">
      <component glyphName=".ttfautohint" x="100" y="0" flags="0x0"/>
      <component glyphName="at" x="0" y="111" flags="0x0"/>
    </TTGlyph>
    <TTGlyph name="at.smcp" xMin="94" yMin="-330" xMax="1723" yMax="1368">
      <component glyphName=".ttfautohint" x="94" y="0" flags="0x0"/>
      <component glyphName="at" x="-6" y="0" flags="0x0"/>
    </TTGlyph>
    <TTGlyph name="atilde" xMin="-6" yMin="0" xMax="1268" yMax="1716">
      <component glyphName=".ttfautohint" x="0" y="0" flags="0x0"/>
      <component glyphName="a" x="0" y="0" flags="0x0"/>
      <component glyphName="tilde.smcp" x="112" y="0" flags="0x0"/>
    </TTGlyph>
    <TTGlyph name="b" xMin="86" yMin="0" xMax="1143" yMax="1245">
      <contour>
        <pt x="959" y="637" on="0"/>
        <pt x="1143" y="458" on="0"/>
        <pt x="1143" y="336" on="1"/>
        <pt x="1143" y="237" on="0"/>
        <pt x="1030" y="85" on="0"/>
        <pt x="817" y="0" on="0"/>
        <pt x="672" y="0" on="1"/>
        <pt x="582" y="2" on="1"/>
        <pt x="458" y="6" on="0"/>
        <pt x="340" y="6" on="1"/>
        <pt x="172" y="6" on="0"/>
        <pt x="86" y="0" on="1"/>
        <pt x="86" y="41" on="1"/>
        <pt x="160" y="44" on="0"/>
        <pt x="227" y="70" on="0"/>
        <pt x="252" y="140" on="0"/>
        <pt x="252" y="217" on="1"/>
        <pt x="252" y="1028" on="1"/>
        <pt x="252" y="1106" on="0"/>
        <pt x="227" y="1176" on="0"/>
        <pt x="161" y="1201" on="0"/>
        <pt x="86" y="1204" on="1"/>
        <pt x="86" y="1245" on="1"/>
        <pt x="171" y="1239" on="0"/>
        <pt x="336" y="1239" on="1"/>
        <pt x="371" y="1239" on="0"/>
        <pt x="545" y="1242" on="1"/>
        <pt x="625" y="1243" on="1"/>
        <pt x="758" y="1243" on="0"/>
        <pt x="943" y="1172" on="0"/>
        <pt x="1036" y="1046" on="0"/>
        <pt x="1036" y="963" on="1"/>
        <pt x="1036" y="864" on="0"/>
        <pt x="898" y="708" on="0"/>
        <pt x="745" y="668" on="1"/>
        <pt x="745" y="664" on="1"/>
      </contour>
      <contour>
        <pt x="518" y="1204" on="0"/>
        <pt x="463" y="1175" on="0"/>
        <pt x="442" y="1101" on="0"/>
        <pt x="442" y="1028" on="1"/>
        <pt x="442" y="668" on="1"/>
        <pt x="559" y="668" on="1"/>
        <pt x="716" y="668" on="0"/>
        <pt x="840" y="811" on="0"/>
        <pt x="840" y="940" on="1"/>
        <pt x="840" y="1072" on="0"/>
        <pt x="713" y="1204" on="0"/>
        <pt x="573" y="1204" on="1"/>
      </contour>
      <contour>
        <pt x="762" y="47" on="0"/>
        <pt x="938" y="197" on="0"/>
        <pt x="938" y="344" on="1"/>
        <pt x="938" y="486" on="0"/>
        <pt x="774" y="633" on="0"/>
        <pt x="594" y="633" on="1"/>
        <pt x="442" y="633" on="1"/>
        <pt x="442" y="217" on="1"/>
        <pt x="442" y="143" on="0"/>
        <pt x="463" y="73" on="0"/>
        <pt x="518" y="47" on="0"/>
        <pt x="575" y="47" on="1"/>
      </contour>
    </TTGlyph>
    <TTGlyph name="backslash" xMin="68" yMin="-29" xMax="692" yMax="1479">
      <component glyphName=".ttfautohint" x="68" y="0" flags="0x0"/>
      <component glyphName="slash" x="762" y="0" scalex="-1.0" scaley="1.0" flags="0x0"/>
    </TTGlyph>
    <TTGlyph name="bar" xMin="186" yMin="-399" xMax="268" yMax="1757">
      <contour>
        <pt x="186" y="-399" on="1"/>
        <pt x="186" y="1757" on="1"/>
        <pt x="268" y="1757" on="1"/>
        <pt x="268" y="-399" on="1"/>
      </contour>
    </TTGlyph>
    <TTGlyph name="blacksquare" xMin="195" yMin="104" xMax="1008" yMax="956">
      <contour>
        <pt x="195" y="104" on="1"/>
        <pt x="195" y="956" on="1"/>
        <pt x="1008" y="956" on="1"/>
        <pt x="1008" y="104" on="1"/>
      </contour>
    </TTGlyph>
    <TTGlyph name="blacksquare.case" xMin="182" yMin="303" xMax="1036" yMax="1155">
      <contour>
        <pt x="182" y="303" on="1"/>
        <pt x="182" y="1155" on="1"/>
        <pt x="1036" y="1155" on="1"/>
        <pt x="1036" y="303" on="1"/>
      </contour>
    </TTGlyph>
    <TTGlyph name="blacksquare.smcp" xMin="207" yMin="197" xMax="1061" yMax="1049">
      <contour>
        <pt x="207" y="197" on="1"/>
        <pt x="207" y="1049" on="1"/>
        <pt x="1061" y="1049" on="1"/>
        <pt x="1061" y="197" on="1"/>
      </contour>
    </TTGlyph>
    <TTGlyph name="braceleft" xMin="55" yMin="-385" xMax="569" yMax="1602">
      <contour>
        <pt x="497" y="1561" on="0"/>
        <pt x="432" y="1503" on="0"/>
        <pt x="406" y="1326" on="0"/>
        <pt x="406" y="1128" on="1"/>
        <pt x="406" y="954" on="0"/>
        <pt x="327" y="742" on="0"/>
        <pt x="200" y="638" on="0"/>
        <pt x="113" y="612" on="1"/>
        <pt x="200" y="586" on="0"/>
        <pt x="327" y="482" on="0"/>
        <pt x="406" y="269" on="0"/>
        <pt x="406" y="96" on="1"/>
        <pt x="406" y="-109" on="0"/>
        <pt x="432" y="-289" on="0"/>
        <pt x="497" y="-345" on="0"/>
        <pt x="569" y="-346" on="1"/>
        <pt x="569" y="-385" on="1"/>
        <pt x="435" y="-385" on="0"/>
        <pt x="287" y="-300" on="0"/>
        <pt x="221" y="-94" on="0"/>
        <pt x="221" y="96" on="1"/>
        <pt x="221" y="293" on="0"/>
        <pt x="195" y="500" on="0"/>
        <pt x="129" y="589" on="0"/>
        <pt x="66" y="594" on="1"/>
        <pt x="55" y="594" on="1"/>
        <pt x="55" y="631" on="1"/>
        <pt x="66" y="631" on="1"/>
        <pt x="129" y="635" on="0"/>
        <pt x="195" y="723" on="0"/>
        <pt x="221" y="930" on="0"/>
        <pt x="221" y="1128" on="1"/>
        <pt x="221" y="1311" on="0"/>
        <pt x="287" y="1515" on="0"/>
        <pt x="436" y="1602" on="0"/>
        <pt x="569" y="1602" on="1"/>
        <pt x="569" y="1563" on="1"/>
      </contour>
    </TTGlyph>
    <TTGlyph name="braceleft.case" xMin="59" yMin="-152" xMax="580" yMax="1602">
      <contour>
        <pt x="509" y="1561" on="0"/>
        <pt x="442" y="1510" on="0"/>
        <pt x="416" y="1362" on="0"/>
        <pt x="416" y="1202" on="1"/>
        <pt x="416" y="1039" on="0"/>
        <pt x="342" y="845" on="0"/>
        <pt x="213" y="750" on="0"/>
        <pt x="117" y="727" on="1"/>
        <pt x="213" y="704" on="0"/>
        <pt x="342" y="609" on="0"/>
        <pt x="416" y="414" on="0"/>
        <pt x="416" y="252" on="1"/>
        <pt x="416" y="84" on="0"/>
        <pt x="442" y="-65" on="0"/>
        <pt x="507" y="-112" on="0"/>
        <pt x="580" y="-113" on="1"/>
        <pt x="580" y="-152" on="1"/>
        <pt x="446" y="-152" on="0"/>
        <pt x="294" y="-79" on="0"/>
        <pt x="225" y="95" on="0"/>
        <pt x="225" y="252" on="1"/>
        <pt x="225" y="433" on="0"/>
        <pt x="199" y="621" on="0"/>
        <pt x="134" y="703" on="0"/>
        <pt x="70" y="709" on="1"/>
        <pt x="59" y="709" on="1"/>
        <pt x="59" y="745" on="1"/>
        <pt x="70" y="745" on="1"/>
        <pt x="134" y="750" on="0"/>
        <pt x="199" y="831" on="0"/>
        <pt x="225" y="1020" on="0"/>
        <pt x="225" y="1202" on="1"/>
        <pt x="225" y="1350" on="0"/>
        <pt x="294" y="1524" on="0"/>
        <pt x="448" y="1602" on="0"/>
        <pt x="580" y="1602" on="1"/>
        <pt x="580" y="1563" on="1"/>
      </contour>
    </TTGlyph>
    <TTGlyph name="braceleft.smcp" xMin="66" yMin="-119" xMax="580" yMax="1364">
      <contour>
        <pt x="509" y="1323" on="0"/>
        <pt x="442" y="1280" on="0"/>
        <pt x="416" y="1158" on="0"/>
        <pt x="416" y="1026" on="1"/>
        <pt x="416" y="886" on="0"/>
        <pt x="338" y="723" on="0"/>
        <pt x="213" y="648" on="0"/>
        <pt x="123" y="627" on="1"/>
        <pt x="213" y="606" on="0"/>
        <pt x="338" y="531" on="0"/>
        <pt x="416" y="367" on="0"/>
        <pt x="416" y="227" on="1"/>
        <pt x="416" y="93" on="0"/>
        <pt x="442" y="-33" on="0"/>
        <pt x="509" y="-78" on="0"/>
        <pt x="580" y="-80" on="1"/>
        <pt x="580" y="-119" on="1"/>
        <pt x="448" y="-119" on="0"/>
        <pt x="297" y="-51" on="0"/>
        <pt x="231" y="99" on="0"/>
        <pt x="231" y="227" on="1"/>
        <pt x="231" y="383" on="0"/>
        <pt x="205" y="540" on="0"/>
        <pt x="141" y="604" on="0"/>
        <pt x="76" y="608" on="1"/>
        <pt x="66" y="608" on="1"/>
        <pt x="66" y="645" on="1"/>
        <pt x="76" y="645" on="1"/>
        <pt x="141" y="649" on="0"/>
        <pt x="205" y="713" on="0"/>
        <pt x="231" y="870" on="0"/>
        <pt x="231" y="1026" on="1"/>
        <pt x="231" y="1152" on="0"/>
        <pt x="297" y="1298" on="0"/>
        <pt x="448" y="1364" on="0"/>
        <pt x="580" y="1364" on="1"/>
        <pt x="580" y="1325" on="1"/>
      </contour>
    </TTGlyph>
    <TTGlyph name="braceright" xMin="54" yMin="-385" xMax="568" yMax="1602">
      <component glyphName=".ttfautohint" x="54" y="0" flags="0x0"/>
      <component glyphName="braceleft" x="623" y="0" scalex="-1.0" scaley="1.0" flags="0x0"/>
    </TTGlyph>
    <TTGlyph name="braceright.case" xMin="57" yMin="-152" xMax="578" yMax="1602">
      <component glyphName=".ttfautohint" x="57" y="0" flags="0x0"/>
      <component glyphName="braceleft.case" x="637" y="0" scalex="-1.0" scaley="1.0" flags="0x0"/>
    </TTGlyph>
    <TTGlyph name="braceright.smcp" xMin="69" yMin="-119" xMax="583" yMax="1364">
      <component glyphName=".ttfautohint" x="69" y="0" flags="0x0"/>
      <component glyphName="braceleft.smcp" x="649" y="0" scalex="-1.0" scaley="1.0" flags="0x0"/>
    </TTGlyph>
    <TTGlyph name="bracketleft" xMin="188" yMin="-371" xMax="539" yMax="1581">
      <contour>
        <pt x="373" y="1542" on="1"/>
        <pt x="373" y="-332" on="1"/>
        <pt x="539" y="-332" on="1"/>
        <pt x="539" y="-371" on="1"/>
        <pt x="188" y="-371" on="1"/>
        <pt x="188" y="1581" on="1"/>
        <pt x="539" y="1581" on="1"/>
        <pt x="539" y="1542" on="1"/>
      </contour>
    </TTGlyph>
    <TTGlyph name="bracketleft.case" xMin="193" yMin="-131" xMax="549" yMax="1581">
      <contour>
        <pt x="383" y="1542" on="1"/>
        <pt x="383" y="-92" on="1"/>
        <pt x="549" y="-92" on="1"/>
        <pt x="549" y="-131" on="1"/>
        <pt x="193" y="-131" on="1"/>
        <pt x="193" y="1581" on="1"/>
        <pt x="549" y="1581" on="1"/>
        <pt x="549" y="1542" on="1"/>
      </contour>
    </TTGlyph>
    <TTGlyph name="bracketleft.smcp" xMin="203" yMin="-111" xMax="553" yMax="1356">
      <contour>
        <pt x="387" y="1317" on="1"/>
        <pt x="387" y="-72" on="1"/>
        <pt x="553" y="-72" on="1"/>
        <pt x="553" y="-111" on="1"/>
        <pt x="203" y="-111" on="1"/>
        <pt x="203" y="1356" on="1"/>
        <pt x="553" y="1356" on="1"/>
        <pt x="553" y="1317" on="1"/>
      </contour>
    </TTGlyph>
    <TTGlyph name="bracketright" xMin="67" yMin="-371" xMax="418" yMax="1581">
      <component glyphName=".ttfautohint" x="67" y="0" flags="0x0"/>
      <component glyphName="bracketleft" x="606" y="0" scalex="-1.0" scaley="1.0" flags="0x0"/>
    </TTGlyph>
    <TTGlyph name="bracketright.case" xMin="69" yMin="-131" xMax="425" yMax="1581">
      <component glyphName=".ttfautohint" x="69" y="0" flags="0x0"/>
      <component glyphName="bracketleft.case" x="618" y="0" scalex="-1.0" scaley="1.0" flags="0x0"/>
    </TTGlyph>
    <TTGlyph name="bracketright.smcp" xMin="80" yMin="-111" xMax="430" yMax="1356">
      <component glyphName=".ttfautohint" x="80" y="0" flags="0x0"/>
      <component glyphName="bracketleft.smcp" x="633" y="0" scalex="-1.0" scaley="1.0" flags="0x0"/>
    </TTGlyph>
    <TTGlyph name="breve" xMin="72" yMin="1296" xMax="805" yMax="1614">
      <contour>
        <pt x="754" y="1473" on="0"/>
        <pt x="567" y="1296" on="0"/>
        <pt x="438" y="1296" on="1"/>
        <pt x="310" y="1296" on="0"/>
        <pt x="123" y="1473" on="0"/>
        <pt x="72" y="1595" on="1"/>
        <pt x="106" y="1614" on="1"/>
        <pt x="226" y="1417" on="0"/>
        <pt x="438" y="1417" on="1"/>
        <pt x="558" y="1417" on="0"/>
        <pt x="720" y="1530" on="0"/>
        <pt x="770" y="1614" on="1"/>
        <pt x="805" y="1595" on="1"/>
      </contour>
    </TTGlyph>
    <TTGlyph name="breve.case" xMin="51" yMin="1602" xMax="866" yMax="1862">
      <contour>
        <pt x="807" y="1742" on="0"/>
        <pt x="601" y="1602" on="0"/>
        <pt x="459" y="1602" on="1"/>
        <pt x="317" y="1602" on="0"/>
        <pt x="111" y="1742" on="0"/>
        <pt x="51" y="1839" on="1"/>
        <pt x="78" y="1860" on="1"/>
        <pt x="134" y="1805" on="0"/>
        <pt x="324" y="1729" on="0"/>
        <pt x="459" y="1729" on="1"/>
        <pt x="593" y="1729" on="0"/>
        <pt x="785" y="1806" on="0"/>
        <pt x="842" y="1862" on="1"/>
        <pt x="866" y="1839" on="1"/>
      </contour>
    </TTGlyph>
    <TTGlyph name="breve.smcp" xMin="72" yMin="1436" xMax="846" yMax="1696">
      <contour>
        <pt x="789" y="1576" on="0"/>
        <pt x="594" y="1436" on="0"/>
        <pt x="459" y="1436" on="1"/>
        <pt x="324" y="1436" on="0"/>
        <pt x="128" y="1576" on="0"/>
        <pt x="72" y="1673" on="1"/>
        <pt x="98" y="1694" on="1"/>
        <pt x="152" y="1639" on="0"/>
        <pt x="331" y="1563" on="0"/>
        <pt x="459" y="1563" on="1"/>
        <pt x="586" y="1563" on="0"/>
        <pt x="768" y="1641" on="0"/>
        <pt x="821" y="1696" on="1"/>
        <pt x="846" y="1673" on="1"/>
      </contour>
    </TTGlyph>
    <TTGlyph name="brevecy" xMin="41" yMin="1296" xMax="795" yMax="1626">
      <contour>
        <pt x="734" y="1626" on="0"/>
        <pt x="795" y="1565" on="0"/>
        <pt x="795" y="1518" on="1"/>
        <pt x="795" y="1435" on="0"/>
        <pt x="698" y="1370" on="1"/>
        <pt x="590" y="1296" on="0"/>
        <pt x="418" y="1296" on="1"/>
        <pt x="247" y="1296" on="0"/>
        <pt x="137" y="1370" on="1"/>
        <pt x="41" y="1436" on="0"/>
        <pt x="41" y="1518" on="1"/>
        <pt x="41" y="1565" on="0"/>
        <pt x="102" y="1626" on="0"/>
        <pt x="150" y="1626" on="1"/>
        <pt x="197" y="1626" on="0"/>
        <pt x="262" y="1566" on="0"/>
        <pt x="262" y="1516" on="1"/>
        <pt x="262" y="1474" on="0"/>
        <pt x="215" y="1419" on="0"/>
        <pt x="176" y="1411" on="1"/>
        <pt x="213" y="1371" on="0"/>
        <pt x="349" y="1337" on="0"/>
        <pt x="418" y="1337" on="1"/>
        <pt x="487" y="1337" on="0"/>
        <pt x="622" y="1371" on="0"/>
        <pt x="659" y="1411" on="1"/>
        <pt x="620" y="1419" on="0"/>
        <pt x="573" y="1474" on="0"/>
        <pt x="573" y="1516" on="1"/>
        <pt x="573" y="1566" on="0"/>
        <pt x="638" y="1626" on="0"/>
        <pt x="686" y="1626" on="1"/>
      </contour>
    </TTGlyph>
    <TTGlyph name="brevecy.case" xMin="41" yMin="1602" xMax="877" yMax="1931">
      <contour>
        <pt x="816" y="1931" on="0"/>
        <pt x="877" y="1870" on="0"/>
        <pt x="877" y="1819" on="1"/>
        <pt x="877" y="1776" on="0"/>
        <pt x="830" y="1710" on="0"/>
        <pt x="778" y="1679" on="1"/>
        <pt x="651" y="1602" on="0"/>
        <pt x="459" y="1602" on="1"/>
        <pt x="268" y="1602" on="0"/>
        <pt x="139" y="1679" on="1"/>
        <pt x="88" y="1710" on="0"/>
        <pt x="41" y="1776" on="0"/>
        <pt x="41" y="1819" on="1"/>
        <pt x="41" y="1870" on="0"/>
        <pt x="101" y="1931" on="0"/>
        <pt x="150" y="1931" on="1"/>
        <pt x="199" y="1931" on="0"/>
        <pt x="262" y="1872" on="0"/>
        <pt x="262" y="1821" on="1"/>
        <pt x="262" y="1779" on="0"/>
        <pt x="215" y="1724" on="0"/>
        <pt x="176" y="1716" on="1"/>
        <pt x="219" y="1676" on="0"/>
        <pt x="379" y="1642" on="0"/>
        <pt x="459" y="1642" on="1"/>
        <pt x="539" y="1642" on="0"/>
        <pt x="698" y="1676" on="0"/>
        <pt x="741" y="1716" on="1"/>
        <pt x="702" y="1724" on="0"/>
        <pt x="655" y="1779" on="0"/>
        <pt x="655" y="1821" on="1"/>
        <pt x="655" y="1871" on="0"/>
        <pt x="720" y="1931" on="0"/>
        <pt x="768" y="1931" on="1"/>
      </contour>
    </TTGlyph>
    <TTGlyph name="brevecy.smcp" xMin="41" yMin="1452" xMax="877" yMax="1782">
      <contour>
        <pt x="816" y="1782" on="0"/>
        <pt x="877" y="1721" on="0"/>
        <pt x="877" y="1669" on="1"/>
        <pt x="877" y="1627" on="0"/>
        <pt x="830" y="1561" on="0"/>
        <pt x="778" y="1530" on="1"/>
        <pt x="649" y="1452" on="0"/>
        <pt x="459" y="1452" on="1"/>
        <pt x="270" y="1452" on="0"/>
        <pt x="139" y="1530" on="1"/>
        <pt x="88" y="1561" on="0"/>
        <pt x="41" y="1627" on="0"/>
        <pt x="41" y="1669" on="1"/>
        <pt x="41" y="1721" on="0"/>
        <pt x="101" y="1782" on="0"/>
        <pt x="150" y="1782" on="1"/>
        <pt x="199" y="1782" on="0"/>
        <pt x="262" y="1722" on="0"/>
        <pt x="262" y="1671" on="1"/>
        <pt x="262" y="1629" on="0"/>
        <pt x="215" y="1575" on="0"/>
        <pt x="176" y="1567" on="1"/>
        <pt x="219" y="1527" on="0"/>
        <pt x="378" y="1493" on="0"/>
        <pt x="459" y="1493" on="1"/>
        <pt x="540" y="1493" on="0"/>
        <pt x="699" y="1527" on="0"/>
        <pt x="741" y="1567" on="1"/>
        <pt x="702" y="1575" on="0"/>
        <pt x="655" y="1629" on="0"/>
        <pt x="655" y="1671" on="1"/>
        <pt x="655" y="1722" on="0"/>
        <pt x="720" y="1782" on="0"/>
        <pt x="768" y="1782" on="1"/>
      </contour>
    </TTGlyph>
    <TTGlyph name="brokenbar" xMin="188" yMin="-399" xMax="270" yMax="1757">
      <contour>
        <pt x="188" y="786" on="1"/>
        <pt x="188" y="1757" on="1"/>
        <pt x="270" y="1757" on="1"/>
        <pt x="270" y="786" on="1"/>
      </contour>
      <contour>
        <pt x="188" y="-399" on="1"/>
        <pt x="188" y="668" on="1"/>
        <pt x="270" y="668" on="1"/>
        <pt x="270" y="-399" on="1"/>
      </contour>
    </TTGlyph>
    <TTGlyph name="bullet" xMin="160" yMin="260" xMax="743" yMax="844">
      <contour>
        <pt x="530" y="844" on="0"/>
        <pt x="664" y="765" on="0"/>
        <pt x="743" y="631" on="0"/>
        <pt x="743" y="551" on="1"/>
        <pt x="743" y="471" on="0"/>
        <pt x="664" y="338" on="0"/>
        <pt x="530" y="260" on="0"/>
        <pt x="451" y="260" on="1"/>
        <pt x="371" y="260" on="0"/>
        <pt x="238" y="338" on="0"/>
        <pt x="160" y="471" on="0"/>
        <pt x="160" y="551" on="1"/>
        <pt x="160" y="631" on="0"/>
        <pt x="238" y="765" on="0"/>
        <pt x="371" y="844" on="0"/>
        <pt x="451" y="844" on="1"/>
      </contour>
    </TTGlyph>
    <TTGlyph name="bullet.case" xMin="158" yMin="434" xMax="741" yMax="1018">
      <component glyphName=".ttfautohint" x="158" y="434" flags="0x0"/>
      <component glyphName="bullet" x="-2" y="174" flags="0x0"/>
    </TTGlyph>
    <TTGlyph name="bullet.smcp" xMin="160" yMin="358" xMax="743" yMax="942">
      <component glyphName=".ttfautohint" x="160" y="358" flags="0x0"/>
      <component glyphName="bullet" x="0" y="98" flags="0x0"/>
    </TTGlyph>
</ttFont>
